999
dxfrw 0.5.10
0
SECTION
2
HEADER
9
$ACADVER
1
AC1021
9
$HANDSEED
5
20000
9
$DWGCODEPAGE
3
ANSI_1252
9
$INSBASE
10
0
20
0
30
0
9
$EXTMIN
10
-30
20
-154
30
0
9
$EXTMAX
10
380
20
110
30
0
9
$LIMMIN
10
0
20
0
9
$LIMMAX
10
420
20
297
9
$ORTHOMODE
70
0
9
$LTSCALE
40
1
9
$TEXTSTYLE
7
STANDARD
9
$DIMASZ
40
2.5
9
$DIMSCALE
40
1
9
$DIMEXO
40
0.625
9
$DIMEXE
40
1.25
9
$DIMTXT
40
2.5
9
$DIMTSZ
40
0
9
$DIMAUNIT
70
0
9
$DIMADEC
70
2
9
$DIMLUNIT
70
2
9
$DIMSTYLE
2
STANDARD
9
$DIMGAP
40
0.625
9
$DIMTIH
70
0
9
$LUNITS
70
2
9
$LUPREC
70
4
9
$AUNITS
70
0
9
$AUPREC
70
2
9
$SPLINESEGS
70
8
9
$GRIDMODE
70
1
9
$SNAPSTYLE
70
0
9
$GRIDUNIT
10
0
20
0
9
$PINSBASE
10
76.076095026
20
63.4780994803
30
0
9
$PLIMMIN
10
0
20
0
9
$PLIMMAX
10
297
20
210
9
$INSUNITS
70
4
9
$PSVPSCALE
40
1
0
ENDSEC
0
SECTION
2
CLASSES
0
ENDSEC
0
SECTION
2
TABLES
0
TABLE
2
VPORT
5
8
330
0
100
AcDbSymbolTable
70
1
0
VPORT
5
31
330
2
100
AcDbSymbolTableRecord
100
AcDbViewportTableRecord
2
*ACTIVE
70
0
10
0
20
0
11
1
21
1
12
406.721107376
22
86.104468515
13
0
23
0
14
10
24
10
15
10
25
10
16
0
26
0
36
1
17
0
27
0
37
0
40
676.235094191
41
1.95031055901
42
50
43
0
44
0
50
0
51
0
71
0
72
100
73
1
74
3
75
0
76
1
77
0
78
0
281
0
65
1
110
0
120
0
130
0
111
1
121
0
131
0
112
0
122
1
132
0
79
0
146
0
348
10020
60
7
61
5
292
1
282
1
141
0
142
0
63
250
421
3358443
0
ENDTAB
0
TABLE
2
LTYPE
5
5
330
0
100
AcDbSymbolTable
70
4
0
LTYPE
5
14
330
5
100
AcDbSymbolTableRecord
100
AcDbLinetypeTableRecord
2
ByBlock
70
0
3

72
65
73
0
40
0
0
LTYPE
5
15
330
5
100
AcDbSymbolTableRecord
100
AcDbLinetypeTableRecord
2
ByLayer
70
0
3

72
65
73
0
40
0
0
LTYPE
5
16
330
5
100
AcDbSymbolTableRecord
100
AcDbLinetypeTableRecord
2
Continuous
70
0
3
Solid line
72
65
73
0
40
0
0
LTYPE
5
32
330
5
100
AcDbSymbolTableRecord
100
AcDbLinetypeTableRecord
2
DOT
70
0
3
Dot . . . . . . . . . . . . . . . . . . . . . .
72
65
73
2
40
6.35
49
0
74
0
49
-6.35
74
0
0
LTYPE
5
33
330
5
100
AcDbSymbolTableRecord
100
AcDbLinetypeTableRecord
2
DOT2
70
0
3
Dot (.5x) .....................................
72
65
73
2
40
3.175
49
0
74
0
49
-3.175
74
0
0
LTYPE
5
34
330
5
100
AcDbSymbolTableRecord
100
AcDbLinetypeTableRecord
2
DOTX2
70
0
3
Dot (2x) .  .  .  .  .  .  .  .  .  .  .  .  .
72
65
73
2
40
12.7
49
0
74
0
49
-12.7
74
0
0
LTYPE
5
35
330
5
100
AcDbSymbolTableRecord
100
AcDbLinetypeTableRecord
2
DASHED
70
0
3
Dot . . . . . . . . . . . . . . . . . . . . . .
72
65
73
2
40
19.05
49
12.7
74
0
49
-6.35
74
0
0
LTYPE
5
36
330
5
100
AcDbSymbolTableRecord
100
AcDbLinetypeTableRecord
2
DASHED2
70
0
3
Dashed (.5x) _ _ _ _ _ _ _ _ _ _ _ _ _ _ _ _ _
72
65
73
2
40
9.525
49
6.35
74
0
49
-3.175
74
0
0
LTYPE
5
37
330
5
100
AcDbSymbolTableRecord
100
AcDbLinetypeTableRecord
2
DASHEDX2
70
0
3
Dashed (2x) ____  ____  ____  ____  ____  ___
72
65
73
2
40
38.1
49
25.4
74
0
49
-12.7
74
0
0
LTYPE
5
38
330
5
100
AcDbSymbolTableRecord
100
AcDbLinetypeTableRecord
2
DASHDOT
70
0
3
Dash dot __ . __ . __ . __ . __ . __ . __ . __
72
65
73
4
40
25.4
49
12.7
74
0
49
-6.35
74
0
49
0
74
0
49
-6.35
74
0
0
LTYPE
5
39
330
5
100
AcDbSymbolTableRecord
100
AcDbLinetypeTableRecord
2
DASHDOT2
70
0
3
Dash dot (.5x) _._._._._._._._._._._._._._._.
72
65
73
4
40
12.7
49
6.35
74
0
49
-3.175
74
0
49
0
74
0
49
-3.175
74
0
0
LTYPE
5
3A
330
5
100
AcDbSymbolTableRecord
100
AcDbLinetypeTableRecord
2
DASHDOTX2
70
0
3
Dash dot (2x) ____  .  ____  .  ____  .  ___
72
65
73
4
40
50.8
49
25.4
74
0
49
-12.7
74
0
49
0
74
0
49
-12.7
74
0
0
LTYPE
5
3B
330
5
100
AcDbSymbolTableRecord
100
AcDbLinetypeTableRecord
2
DIVIDE
70
0
3
Divide ____ . . ____ . . ____ . . ____ . . ____
72
65
73
6
40
31.75
49
12.7
74
0
49
-6.35
74
0
49
0
74
0
49
-6.35
74
0
49
0
74
0
49
-6.35
74
0
0
LTYPE
5
3C
330
5
100
AcDbSymbolTableRecord
100
AcDbLinetypeTableRecord
2
DIVIDE2
70
0
3
Divide (.5x) __..__..__..__..__..__..__..__.._
72
65
73
6
40
15.875
49
6.35
74
0
49
-3.175
74
0
49
0
74
0
49
-3.175
74
0
49
0
74
0
49
-3.175
74
0
0
LTYPE
5
3D
330
5
100
AcDbSymbolTableRecord
100
AcDbLinetypeTableRecord
2
DIVIDEX2
70
0
3
Divide (2x) ________  .  .  ________  .  .  _
72
65
73
6
40
63.5
49
25.4
74
0
49
-12.7
74
0
49
0
74
0
49
-12.7
74
0
49
0
74
0
49
-12.7
74
0
0
LTYPE
5
3E
330
5
100
AcDbSymbolTableRecord
100
AcDbLinetypeTableRecord
2
BORDER
70
0
3
Border __ __ . __ __ . __ __ . __ __ . __ __ .
72
65
73
6
40
44.45
49
12.7
74
0
49
-6.35
74
0
49
12.7
74
0
49
-6.35
74
0
49
0
74
0
49
-6.35
74
0
0
LTYPE
5
3F
330
5
100
AcDbSymbolTableRecord
100
AcDbLinetypeTableRecord
2
BORDER2
70
0
3
Border (.5x) __.__.__.__.__.__.__.__.__.__.__.
72
65
73
6
40
22.225
49
6.35
74
0
49
-3.175
74
0
49
6.35
74
0
49
-3.175
74
0
49
0
74
0
49
-3.175
74
0
0
LTYPE
5
40
330
5
100
AcDbSymbolTableRecord
100
AcDbLinetypeTableRecord
2
BORDERX2
70
0
3
Border (2x) ____  ____  .  ____  ____  .  ___
72
65
73
6
40
88.9
49
25.4
74
0
49
-12.7
74
0
49
25.4
74
0
49
-12.7
74
0
49
0
74
0
49
-12.7
74
0
0
LTYPE
5
41
330
5
100
AcDbSymbolTableRecord
100
AcDbLinetypeTableRecord
2
CENTER
70
0
3
Center ____ _ ____ _ ____ _ ____ _ ____ _ ____
72
65
73
4
40
50.8
49
31.75
74
0
49
-6.35
74
0
49
6.35
74
0
49
-6.35
74
0
0
LTYPE
5
42
330
5
100
AcDbSymbolTableRecord
100
AcDbLinetypeTableRecord
2
CENTER2
70
0
3
Center (.5x) ___ _ ___ _ ___ _ ___ _ ___ _ ___
72
65
73
4
40
28.575
49
19.05
74
0
49
-3.175
74
0
49
3.175
74
0
49
-3.175
74
0
0
LTYPE
5
43
330
5
100
AcDbSymbolTableRecord
100
AcDbLinetypeTableRecord
2
CENTERX2
70
0
3
Center (2x) ________  __  ________  __  _____
72
65
73
4
40
101.6
49
63.5
74
0
49
-12.7
74
0
49
12.7
74
0
49
-12.7
74
0
0
ENDTAB
0
TABLE
2
LAYER
5
2
330
0
100
AcDbSymbolTable
70
1
0
LAYER
5
10
330
2
100
AcDbSymbolTableRecord
100
AcDbLayerTableRecord
2
0
70
0
62
7
6
CONTINUOUS
370
0
390
F
0
ENDTAB
0
TABLE
2
STYLE
5
3
330
0
100
AcDbSymbolTable
70
3
0
STYLE
5
44
330
2
100
AcDbSymbolTableRecord
100
AcDbTextStyleTableRecord
2
Standard
70
0
40
0
41
1
50
0
71
0
42
1
3
txt
4

0
ENDTAB
0
TABLE
2
VIEW
5
6
330
0
100
AcDbSymbolTable
70
0
0
ENDTAB
0
TABLE
2
UCS
5
7
330
0
100
AcDbSymbolTable
70
0
0
ENDTAB
0
TABLE
2
APPID
5
9
330
0
100
AcDbSymbolTable
70
1
0
APPID
5
12
330
9
100
AcDbSymbolTableRecord
100
AcDbRegAppTableRecord
2
ACAD
70
0
0
ENDTAB
0
TABLE
2
DIMSTYLE
5
A
330
0
100
AcDbSymbolTable
70
1
100
AcDbDimStyleTable
71
1
0
DIMSTYLE
105
45
330
A
100
AcDbSymbolTableRecord
100
AcDbDimStyleTableRecord
2
Standard
70
0
40
1
41
2.5
42
0.625
43
0.38
44
1.25
45
0
46
0
47
0
48
0
140
2.5
141
0.09
142
0
143
25.4
144
1
145
0
146
1
147
0.625
148
0
71
0
72
0
73
0
74
1
75
0
76
0
77
0
78
0
79
0
170
0
171
2
172
0
173
0
174
0
175
0
176
0
177
0
178
0
179
0
271
4
272
4
273
2
274
2
275
0
276
0
277
2
278
46
279
0
280
0
281
0
282
0
283
1
284
0
285
0
286
0
288
0
289
3
340
Standard
341

371
-2
372
-2
0
ENDTAB
0
TABLE
2
BLOCK_RECORD
5
1
330
0
100
AcDbSymbolTable
70
2
0
BLOCK_RECORD
5
1F
330
1
100
AcDbSymbolTableRecord
100
AcDbBlockTableRecord
2
*Model_Space
70
0
280
1
281
0
0
BLOCK_RECORD
5
1E
330
1
100
AcDbSymbolTableRecord
100
AcDbBlockTableRecord
2
*Paper_Space
70
0
280
1
281
0
0
BLOCK_RECORD
5
46
330
1
100
AcDbSymbolTableRecord
100
AcDbBlockTableRecord
2
seite1
70
0
280
1
281
0
0
BLOCK_RECORD
5
49
330
1
100
AcDbSymbolTableRecord
100
AcDbBlockTableRecord
2
deckel
70
0
280
1
281
0
0
BLOCK_RECORD
5
4C
330
1
100
AcDbSymbolTableRecord
100
AcDbBlockTableRecord
2
seite2
70
0
280
1
281
0
0
BLOCK_RECORD
5
4F
330
1
100
AcDbSymbolTableRecord
100
AcDbBlockTableRecord
2
seite3
70
0
280
1
281
0
0
BLOCK_RECORD
5
52
330
1
100
AcDbSymbolTableRecord
100
AcDbBlockTableRecord
2
seite4
70
0
280
1
281
0
0
BLOCK_RECORD
5
55
330
1
100
AcDbSymbolTableRecord
100
AcDbBlockTableRecord
2
boden
70
0
280
1
281
0
0
ENDTAB
0
ENDSEC
0
SECTION
2
BLOCKS
0
BLOCK
5
20
330
1F
100
AcDbEntity
8
0
100
AcDbBlockBegin
2
*Model_Space
70
0
10
0
20
0
30
0
3
*Model_Space
1

0
ENDBLK
5
21
330
1F
100
AcDbEntity
8
0
100
AcDbBlockEnd
0
BLOCK
5
1C
330
1B
100
AcDbEntity
8
0
100
AcDbBlockBegin
2
*Paper_Space
70
0
10
0
20
0
30
0
3
*Paper_Space
1

0
ENDBLK
5
1D
330
1F
100
AcDbEntity
8
0
100
AcDbBlockEnd
0
BLOCK
5
47
330
46
100
AcDbEntity
8
0
100
AcDbBlockBegin
2
seite1
70
0
10
0
20
0
3
seite1
1

0
LWPOLYLINE
5
58
100
AcDbEntity
8
0
6
ByLayer
62
256
370
-1
100
AcDbPolyline
90
4
70
0
43
0
10
-92.3640324083
20
-32.5563583887
10
-87.9895874083
20
-32.5563583887
10
-87.9895874083
20
-35.5584973887
10
-80.5353934083
20
-35.5584973887
0
LWPOLYLINE
5
59
100
AcDbEntity
8
0
6
ByLayer
62
256
370
-1
100
AcDbPolyline
90
2
70
0
43
0
10
-80.5353934083
20
-32.5563583887
10
-80.5353934083
20
-35.5584973887
0
LWPOLYLINE
5
5A
100
AcDbEntity
8
0
6
ByLayer
62
256
370
-1
100
AcDbPolyline
90
4
70
0
43
0
10
-80.5353934083
20
-32.5563583887
10
-73.1835044083
20
-32.5563583887
10
-73.1835044083
20
-35.5584973887
10
-65.7328374083
20
-35.5584973887
0
LWPOLYLINE
5
5B
100
AcDbEntity
8
0
6
ByLayer
62
256
370
-1
100
AcDbPolyline
90
2
70
0
43
0
10
-65.7328374083
20
-32.5563583887
10
-65.7328374083
20
-35.5584973887
0
LWPOLYLINE
5
5C
100
AcDbEntity
8
0
6
ByLayer
62
256
370
-1
100
AcDbPolyline
90
4
70
0
43
0
10
-65.7328374083
20
-32.5563583887
10
-58.3809484083
20
-32.5563583887
10
-58.3809484083
20
-35.5584973887
10
-50.9267544083
20
-35.5584973887
0
LWPOLYLINE
5
5D
100
AcDbEntity
8
0
6
ByLayer
62
256
370
-1
100
AcDbPolyline
90
2
70
0
43
0
10
-50.9267544083
20
-32.5563583887
10
-50.9267544083
20
-35.5584973887
0
LWPOLYLINE
5
5E
100
AcDbEntity
8
0
6
ByLayer
62
256
370
-1
100
AcDbPolyline
90
4
70
0
43
0
10
-50.9267544083
20
-32.5563583887
10
-43.5748654083
20
-32.5563583887
10
-43.5748654083
20
-35.5584973887
10
-36.1241984083
20
-35.5584973887
0
LWPOLYLINE
5
5F
100
AcDbEntity
8
0
6
ByLayer
62
256
370
-1
100
AcDbPolyline
90
2
70
0
43
0
10
-36.1241984083
20
-32.5563583887
10
-36.1241984083
20
-35.5584973887
0
LWPOLYLINE
5
60
100
AcDbEntity
8
0
6
ByLayer
62
256
370
-1
100
AcDbPolyline
90
4
70
0
43
0
10
-36.1241984083
20
-32.5563583887
10
-28.7723104083
20
-32.5563583887
10
-28.7723104083
20
-35.5584973887
10
-21.3216434083
20
-35.5584973887
0
LWPOLYLINE
5
61
100
AcDbEntity
8
0
6
ByLayer
62
256
370
-1
100
AcDbPolyline
90
2
70
0
43
0
10
-21.3216434083
20
-32.5563583887
10
-21.3216434083
20
-35.5584973887
0
LWPOLYLINE
5
62
100
AcDbEntity
8
0
6
ByLayer
62
256
370
-1
100
AcDbPolyline
90
4
70
0
43
0
10
-21.3216434083
20
-32.5563583887
10
-13.9697544083
20
-32.5563583887
10
-13.9697544083
20
-35.5584973887
10
-6.51556040831
20
-35.5584973887
0
LWPOLYLINE
5
63
100
AcDbEntity
8
0
6
ByLayer
62
256
370
-1
100
AcDbPolyline
90
2
70
0
43
0
10
-6.51556040831
20
-32.5563583887
10
-6.51556040831
20
-35.5584973887
0
LWPOLYLINE
5
64
100
AcDbEntity
8
0
6
ByLayer
62
256
370
-1
100
AcDbPolyline
90
4
70
0
43
0
10
-6.51556040831
20
-32.5563583887
10
0.836328591693
20
-32.5563583887
10
0.836328591693
20
-35.5584973887
10
8.28699559169
20
-35.5584973887
0
LWPOLYLINE
5
65
100
AcDbEntity
8
0
6
ByLayer
62
256
370
-1
100
AcDbPolyline
90
2
70
0
43
0
10
8.28699559169
20
-32.5563583887
10
8.28699559169
20
-35.5584973887
0
LWPOLYLINE
5
66
100
AcDbEntity
8
0
6
ByLayer
62
256
370
-1
100
AcDbPolyline
90
4
70
0
43
0
10
8.28699559169
20
-32.5563583887
10
15.6388845917
20
-32.5563583887
10
15.6388845917
20
-35.5584973887
10
23.0930785917
20
-35.5584973887
0
LWPOLYLINE
5
67
100
AcDbEntity
8
0
6
ByLayer
62
256
370
-1
100
AcDbPolyline
90
2
70
0
43
0
10
23.0930785917
20
-32.5563583887
10
23.0930785917
20
-35.5584973887
0
LWPOLYLINE
5
68
100
AcDbEntity
8
0
6
ByLayer
62
256
370
-1
100
AcDbPolyline
90
4
70
0
43
0
10
23.0930785917
20
-32.5563583887
10
30.4449675917
20
-32.5563583887
10
30.4449675917
20
-35.5584973887
10
37.8956345917
20
-35.5584973887
0
LWPOLYLINE
5
69
100
AcDbEntity
8
0
6
ByLayer
62
256
370
-1
100
AcDbPolyline
90
2
70
0
43
0
10
37.8956345917
20
-32.5563583887
10
37.8956345917
20
-35.5584973887
0
LWPOLYLINE
5
6A
100
AcDbEntity
8
0
6
ByLayer
62
256
370
-1
100
AcDbPolyline
90
4
70
0
43
0
10
37.8956345917
20
-32.5563583887
10
45.2475235917
20
-32.5563583887
10
45.2475235917
20
-35.5584973887
10
52.6981895917
20
-35.5584973887
0
LWPOLYLINE
5
6B
100
AcDbEntity
8
0
6
ByLayer
62
256
370
-1
100
AcDbPolyline
90
2
70
0
43
0
10
52.6981895917
20
-32.5563583887
10
52.6981895917
20
-35.5584973887
0
LWPOLYLINE
5
6C
100
AcDbEntity
8
0
6
ByLayer
62
256
370
-1
100
AcDbPolyline
90
4
70
0
43
0
10
52.6981895917
20
-32.5563583887
10
60.0536065917
20
-32.5563583887
10
60.0536065917
20
-35.5584973887
10
67.5042735917
20
-35.5584973887
0
LWPOLYLINE
5
6D
100
AcDbEntity
8
0
6
ByLayer
62
256
370
-1
100
AcDbPolyline
90
2
70
0
43
0
10
67.5042735917
20
-32.5563583887
10
67.5042735917
20
-35.5584973887
0
LWPOLYLINE
5
6E
100
AcDbEntity
8
0
6
ByLayer
62
256
370
-1
100
AcDbPolyline
90
4
70
0
43
0
10
67.5042735917
20
-32.5563583887
10
74.8561625917
20
-32.5563583887
10
74.8561625917
20
-35.5584973887
10
82.3068285917
20
-35.5584973887
0
LWPOLYLINE
5
6F
100
AcDbEntity
8
0
6
ByLayer
62
256
370
-1
100
AcDbPolyline
90
2
70
0
43
0
10
82.3068285917
20
-32.5563583887
10
82.3068285917
20
-35.5584973887
0
LWPOLYLINE
5
70
100
AcDbEntity
8
0
6
ByLayer
62
256
370
-1
100
AcDbPolyline
90
2
70
0
43
0
10
82.3068285917
20
-32.5563583887
10
86.6848015917
20
-32.5563583887
0
LWPOLYLINE
5
71
100
AcDbEntity
8
0
6
ByLayer
62
256
370
-1
100
AcDbPolyline
90
2
70
0
43
0
10
-92.3640324083
20
31.4939746113
10
-87.9895874083
20
31.4939746113
0
LWPOLYLINE
5
72
100
AcDbEntity
8
0
6
ByLayer
62
256
370
-1
100
AcDbPolyline
90
2
70
0
43
0
10
-87.9895874083
20
34.4925856113
10
-87.9895874083
20
31.4939746113
0
LWPOLYLINE
5
73
100
AcDbEntity
8
0
6
ByLayer
62
256
370
-1
100
AcDbPolyline
90
4
70
0
43
0
10
-87.9895874083
20
34.4925856113
10
-80.5353934083
20
34.4925856113
10
-80.5353934083
20
31.4939746113
10
-73.1835044083
20
31.4939746113
0
LWPOLYLINE
5
74
100
AcDbEntity
8
0
6
ByLayer
62
256
370
-1
100
AcDbPolyline
90
2
70
0
43
0
10
-73.1835044083
20
34.4925856113
10
-73.1835044083
20
31.4939746113
0
LWPOLYLINE
5
75
100
AcDbEntity
8
0
6
ByLayer
62
256
370
-1
100
AcDbPolyline
90
4
70
0
43
0
10
-73.1835044083
20
34.4925856113
10
-65.7328374083
20
34.4925856113
10
-65.7328374083
20
31.4939746113
10
-58.3809484083
20
31.4939746113
0
LWPOLYLINE
5
76
100
AcDbEntity
8
0
6
ByLayer
62
256
370
-1
100
AcDbPolyline
90
2
70
0
43
0
10
-58.3809484083
20
34.4925856113
10
-58.3809484083
20
31.4939746113
0
LWPOLYLINE
5
77
100
AcDbEntity
8
0
6
ByLayer
62
256
370
-1
100
AcDbPolyline
90
4
70
0
43
0
10
-58.3809484083
20
34.4925856113
10
-50.9267544083
20
34.4925856113
10
-50.9267544083
20
31.4939746113
10
-43.5748654083
20
31.4939746113
0
LWPOLYLINE
5
78
100
AcDbEntity
8
0
6
ByLayer
62
256
370
-1
100
AcDbPolyline
90
2
70
0
43
0
10
-43.5748654083
20
34.4925856113
10
-43.5748654083
20
31.4939746113
0
LWPOLYLINE
5
79
100
AcDbEntity
8
0
6
ByLayer
62
256
370
-1
100
AcDbPolyline
90
4
70
0
43
0
10
-43.5748654083
20
34.4925856113
10
-36.1241984083
20
34.4925856113
10
-36.1241984083
20
31.4939746113
10
-28.7723104083
20
31.4939746113
0
LWPOLYLINE
5
7A
100
AcDbEntity
8
0
6
ByLayer
62
256
370
-1
100
AcDbPolyline
90
2
70
0
43
0
10
-28.7723104083
20
34.4925856113
10
-28.7723104083
20
31.4939746113
0
LWPOLYLINE
5
7B
100
AcDbEntity
8
0
6
ByLayer
62
256
370
-1
100
AcDbPolyline
90
4
70
0
43
0
10
-28.7723104083
20
34.4925856113
10
-21.3216434083
20
34.4925856113
10
-21.3216434083
20
31.4939746113
10
-13.9697544083
20
31.4939746113
0
LWPOLYLINE
5
7C
100
AcDbEntity
8
0
6
ByLayer
62
256
370
-1
100
AcDbPolyline
90
2
70
0
43
0
10
-13.9697544083
20
34.4925856113
10
-13.9697544083
20
31.4939746113
0
LWPOLYLINE
5
7D
100
AcDbEntity
8
0
6
ByLayer
62
256
370
-1
100
AcDbPolyline
90
4
70
0
43
0
10
-13.9697544083
20
34.4925856113
10
-6.51556040831
20
34.4925856113
10
-6.51556040831
20
31.4939746113
10
0.836328591693
20
31.4939746113
0
LWPOLYLINE
5
7E
100
AcDbEntity
8
0
6
ByLayer
62
256
370
-1
100
AcDbPolyline
90
2
70
0
43
0
10
0.836328591693
20
34.4925856113
10
0.836328591693
20
31.4939746113
0
LWPOLYLINE
5
7F
100
AcDbEntity
8
0
6
ByLayer
62
256
370
-1
100
AcDbPolyline
90
4
70
0
43
0
10
0.836328591693
20
34.4925856113
10
8.28699559169
20
34.4925856113
10
8.28699559169
20
31.4939746113
10
15.6388845917
20
31.4939746113
0
LWPOLYLINE
5
80
100
AcDbEntity
8
0
6
ByLayer
62
256
370
-1
100
AcDbPolyline
90
2
70
0
43
0
10
15.6388845917
20
34.4925856113
10
15.6388845917
20
31.4939746113
0
LWPOLYLINE
5
81
100
AcDbEntity
8
0
6
ByLayer
62
256
370
-1
100
AcDbPolyline
90
4
70
0
43
0
10
15.6388845917
20
34.4925856113
10
23.0930785917
20
34.4925856113
10
23.0930785917
20
31.4939746113
10
30.4449675917
20
31.4939746113
0
LWPOLYLINE
5
82
100
AcDbEntity
8
0
6
ByLayer
62
256
370
-1
100
AcDbPolyline
90
2
70
0
43
0
10
30.4449675917
20
34.4925856113
10
30.4449675917
20
31.4939746113
0
LWPOLYLINE
5
83
100
AcDbEntity
8
0
6
ByLayer
62
256
370
-1
100
AcDbPolyline
90
4
70
0
43
0
10
30.4449675917
20
34.4925856113
10
37.8956345917
20
34.4925856113
10
37.8956345917
20
31.4939746113
10
45.2475235917
20
31.4939746113
0
LWPOLYLINE
5
84
100
AcDbEntity
8
0
6
ByLayer
62
256
370
-1
100
AcDbPolyline
90
2
70
0
43
0
10
45.2475235917
20
34.4925856113
10
45.2475235917
20
31.4939746113
0
LWPOLYLINE
5
85
100
AcDbEntity
8
0
6
ByLayer
62
256
370
-1
100
AcDbPolyline
90
4
70
0
43
0
10
45.2475235917
20
34.4925856113
10
52.6981895917
20
34.4925856113
10
52.6981895917
20
31.4939746113
10
60.0536065917
20
31.4939746113
0
LWPOLYLINE
5
86
100
AcDbEntity
8
0
6
ByLayer
62
256
370
-1
100
AcDbPolyline
90
2
70
0
43
0
10
60.0536065917
20
34.4925856113
10
60.0536065917
20
31.4939746113
0
LWPOLYLINE
5
87
100
AcDbEntity
8
0
6
ByLayer
62
256
370
-1
100
AcDbPolyline
90
4
70
0
43
0
10
60.0536065917
20
34.4925856113
10
67.5042735917
20
34.4925856113
10
67.5042735917
20
31.4939746113
10
74.8561625917
20
31.4939746113
0
LWPOLYLINE
5
88
100
AcDbEntity
8
0
6
ByLayer
62
256
370
-1
100
AcDbPolyline
90
2
70
0
43
0
10
74.8561625917
20
34.4925856113
10
74.8561625917
20
31.4939746113
0
LWPOLYLINE
5
89
100
AcDbEntity
8
0
6
ByLayer
62
256
370
-1
100
AcDbPolyline
90
4
70
0
43
0
10
74.8561625917
20
34.4925856113
10
82.3068285917
20
34.4925856113
10
82.3068285917
20
31.4939746113
10
86.6848015917
20
31.4939746113
0
LWPOLYLINE
5
8A
100
AcDbEntity
8
0
6
ByLayer
62
256
370
-1
100
AcDbPolyline
90
4
70
0
43
0
10
-92.3640324083
20
-32.5563583887
10
-92.3640324083
20
-27.7973863887
10
-95.3661714083
20
-27.7973863887
10
-95.3661714083
20
-19.9657193887
0
LWPOLYLINE
5
8B
100
AcDbEntity
8
0
6
ByLayer
62
256
370
-1
100
AcDbPolyline
90
2
70
0
43
0
10
-92.3640324083
20
-19.9657193887
10
-95.3661714083
20
-19.9657193887
0
LWPOLYLINE
5
8C
100
AcDbEntity
8
0
6
ByLayer
62
256
370
-1
100
AcDbPolyline
90
4
70
0
43
0
10
-92.3640324083
20
-19.9657193887
10
-92.3640324083
20
-12.2328303887
10
-95.3661714083
20
-12.2328303887
10
-95.3661714083
20
-4.39763638868
0
LWPOLYLINE
5
8D
100
AcDbEntity
8
0
6
ByLayer
62
256
370
-1
100
AcDbPolyline
90
2
70
0
43
0
10
-92.3640324083
20
-4.39763638868
10
-95.3661714083
20
-4.39763638868
0
LWPOLYLINE
5
8E
100
AcDbEntity
8
0
6
ByLayer
62
256
370
-1
100
AcDbPolyline
90
4
70
0
43
0
10
-92.3640324083
20
-4.39763638868
10
-92.3640324083
20
3.33525261132
10
-95.3661714083
20
3.33525261132
10
-95.3661714083
20
11.1669196113
0
LWPOLYLINE
5
8F
100
AcDbEntity
8
0
6
ByLayer
62
256
370
-1
100
AcDbPolyline
90
2
70
0
43
0
10
-92.3640324083
20
11.1669196113
10
-95.3661714083
20
11.1669196113
0
LWPOLYLINE
5
90
100
AcDbEntity
8
0
6
ByLayer
62
256
370
-1
100
AcDbPolyline
90
4
70
0
43
0
10
-92.3640324083
20
11.1669196113
10
-92.3640324083
20
18.8998086113
10
-95.3661714083
20
18.8998086113
10
-95.3661714083
20
26.7350026113
0
LWPOLYLINE
5
91
100
AcDbEntity
8
0
6
ByLayer
62
256
370
-1
100
AcDbPolyline
90
2
70
0
43
0
10
-92.3640324083
20
26.7350026113
10
-95.3661714083
20
26.7350026113
0
LWPOLYLINE
5
92
100
AcDbEntity
8
0
6
ByLayer
62
256
370
-1
100
AcDbPolyline
90
2
70
0
43
0
10
-92.3640324083
20
26.7350026113
10
-92.3640324083
20
31.4939746113
0
LWPOLYLINE
5
93
100
AcDbEntity
8
0
6
ByLayer
62
256
370
-1
100
AcDbPolyline
90
2
70
0
43
0
10
86.6848015917
20
-32.5563583887
10
86.6848015917
20
-27.7973863887
0
LWPOLYLINE
5
94
100
AcDbEntity
8
0
6
ByLayer
62
256
370
-1
100
AcDbPolyline
90
2
70
0
43
0
10
89.6834125917
20
-27.7973863887
10
86.6848015917
20
-27.7973863887
0
LWPOLYLINE
5
95
100
AcDbEntity
8
0
6
ByLayer
62
256
370
-1
100
AcDbPolyline
90
4
70
0
43
0
10
89.6834125917
20
-27.7973863887
10
89.6834125917
20
-19.9657193887
10
86.6848015917
20
-19.9657193887
10
86.6848015917
20
-12.2328303887
0
LWPOLYLINE
5
96
100
AcDbEntity
8
0
6
ByLayer
62
256
370
-1
100
AcDbPolyline
90
2
70
0
43
0
10
89.6834125917
20
-12.2328303887
10
86.6848015917
20
-12.2328303887
0
LWPOLYLINE
5
97
100
AcDbEntity
8
0
6
ByLayer
62
256
370
-1
100
AcDbPolyline
90
4
70
0
43
0
10
89.6834125917
20
-12.2328303887
10
89.6834125917
20
-4.39763638868
10
86.6848015917
20
-4.39763638868
10
86.6848015917
20
3.33525261132
0
LWPOLYLINE
5
98
100
AcDbEntity
8
0
6
ByLayer
62
256
370
-1
100
AcDbPolyline
90
2
70
0
43
0
10
89.6834125917
20
3.33525261132
10
86.6848015917
20
3.33525261132
0
LWPOLYLINE
5
99
100
AcDbEntity
8
0
6
ByLayer
62
256
370
-1
100
AcDbPolyline
90
4
70
0
43
0
10
89.6834125917
20
3.33525261132
10
89.6834125917
20
11.1669196113
10
86.6848015917
20
11.1669196113
10
86.6848015917
20
18.8998086113
0
LWPOLYLINE
5
9A
100
AcDbEntity
8
0
6
ByLayer
62
256
370
-1
100
AcDbPolyline
90
2
70
0
43
0
10
89.6834125917
20
18.8998086113
10
86.6848015917
20
18.8998086113
0
LWPOLYLINE
5
9B
100
AcDbEntity
8
0
6
ByLayer
62
256
370
-1
100
AcDbPolyline
90
4
70
0
43
0
10
89.6834125917
20
18.8998086113
10
89.6834125917
20
26.7350026113
10
86.6848015917
20
26.7350026113
10
86.6848015917
20
31.4939746113
0
ENDBLK
5
48
330
46
100
AcDbEntity
8
0
100
AcDbBlockEnd
0
BLOCK
5
4A
330
49
100
AcDbEntity
8
0
100
AcDbBlockBegin
2
deckel
70
0
10
0
20
0
3
deckel
1

0
LWPOLYLINE
5
9C
100
AcDbEntity
8
0
6
ByLayer
62
256
370
-1
100
AcDbPolyline
90
2
70
0
43
0
10
0
20
-140.052778
10
7.4295
20
-140.052778
0
LWPOLYLINE
5
9D
100
AcDbEntity
8
0
6
ByLayer
62
256
370
-1
100
AcDbPolyline
90
2
70
0
43
0
10
7.4295
20
-137.050639
10
7.4295
20
-140.052778
0
LWPOLYLINE
5
9E
100
AcDbEntity
8
0
6
ByLayer
62
256
370
-1
100
AcDbPolyline
90
4
70
0
43
0
10
7.4295
20
-137.050639
10
14.781389
20
-137.050639
10
14.781389
20
-140.052778
10
22.232056
20
-140.052778
0
LWPOLYLINE
5
9F
100
AcDbEntity
8
0
6
ByLayer
62
256
370
-1
100
AcDbPolyline
90
2
70
0
43
0
10
22.232056
20
-137.050639
10
22.232056
20
-140.052778
0
LWPOLYLINE
5
A0
100
AcDbEntity
8
0
6
ByLayer
62
256
370
-1
100
AcDbPolyline
90
4
70
0
43
0
10
22.232056
20
-137.050639
10
29.583945
20
-137.050639
10
29.583945
20
-140.052778
10
37.034611
20
-140.052778
0
LWPOLYLINE
5
A1
100
AcDbEntity
8
0
6
ByLayer
62
256
370
-1
100
AcDbPolyline
90
2
70
0
43
0
10
37.034611
20
-137.050639
10
37.034611
20
-140.052778
0
LWPOLYLINE
5
A2
100
AcDbEntity
8
0
6
ByLayer
62
256
370
-1
100
AcDbPolyline
90
4
70
0
43
0
10
37.034611
20
-137.050639
10
44.3865
20
-137.050639
10
44.3865
20
-140.052778
10
51.840695
20
-140.052778
0
LWPOLYLINE
5
A3
100
AcDbEntity
8
0
6
ByLayer
62
256
370
-1
100
AcDbPolyline
90
2
70
0
43
0
10
51.840695
20
-137.050639
10
51.840695
20
-140.052778
0
LWPOLYLINE
5
A4
100
AcDbEntity
8
0
6
ByLayer
62
256
370
-1
100
AcDbPolyline
90
4
70
0
43
0
10
51.840695
20
-137.050639
10
59.192584
20
-137.050639
10
59.192584
20
-140.052778
10
66.64325
20
-140.052778
0
LWPOLYLINE
5
A5
100
AcDbEntity
8
0
6
ByLayer
62
256
370
-1
100
AcDbPolyline
90
2
70
0
43
0
10
66.64325
20
-137.050639
10
66.64325
20
-140.052778
0
LWPOLYLINE
5
A6
100
AcDbEntity
8
0
6
ByLayer
62
256
370
-1
100
AcDbPolyline
90
4
70
0
43
0
10
66.64325
20
-137.050639
10
73.995139
20
-137.050639
10
73.995139
20
-140.052778
10
81.449334
20
-140.052778
0
LWPOLYLINE
5
A7
100
AcDbEntity
8
0
6
ByLayer
62
256
370
-1
100
AcDbPolyline
90
2
70
0
43
0
10
81.449334
20
-137.050639
10
81.449334
20
-140.052778
0
LWPOLYLINE
5
A8
100
AcDbEntity
8
0
6
ByLayer
62
256
370
-1
100
AcDbPolyline
90
4
70
0
43
0
10
81.449334
20
-137.050639
10
88.801223
20
-137.050639
10
88.801223
20
-140.052778
10
96.251889
20
-140.052778
0
LWPOLYLINE
5
A9
100
AcDbEntity
8
0
6
ByLayer
62
256
370
-1
100
AcDbPolyline
90
2
70
0
43
0
10
96.251889
20
-137.050639
10
96.251889
20
-140.052778
0
LWPOLYLINE
5
AA
100
AcDbEntity
8
0
6
ByLayer
62
256
370
-1
100
AcDbPolyline
90
4
70
0
43
0
10
96.251889
20
-137.050639
10
103.603778
20
-137.050639
10
103.603778
20
-140.052778
10
111.054445
20
-140.052778
0
LWPOLYLINE
5
AB
100
AcDbEntity
8
0
6
ByLayer
62
256
370
-1
100
AcDbPolyline
90
2
70
0
43
0
10
111.054445
20
-137.050639
10
111.054445
20
-140.052778
0
LWPOLYLINE
5
AC
100
AcDbEntity
8
0
6
ByLayer
62
256
370
-1
100
AcDbPolyline
90
4
70
0
43
0
10
111.054445
20
-137.050639
10
118.406334
20
-137.050639
10
118.406334
20
-140.052778
10
125.860528
20
-140.052778
0
LWPOLYLINE
5
AD
100
AcDbEntity
8
0
6
ByLayer
62
256
370
-1
100
AcDbPolyline
90
2
70
0
43
0
10
125.860528
20
-137.050639
10
125.860528
20
-140.052778
0
LWPOLYLINE
5
AE
100
AcDbEntity
8
0
6
ByLayer
62
256
370
-1
100
AcDbPolyline
90
4
70
0
43
0
10
125.860528
20
-137.050639
10
133.212417
20
-137.050639
10
133.212417
20
-140.052778
10
140.663084
20
-140.052778
0
LWPOLYLINE
5
AF
100
AcDbEntity
8
0
6
ByLayer
62
256
370
-1
100
AcDbPolyline
90
2
70
0
43
0
10
140.663084
20
-137.050639
10
140.663084
20
-140.052778
0
LWPOLYLINE
5
B0
100
AcDbEntity
8
0
6
ByLayer
62
256
370
-1
100
AcDbPolyline
90
4
70
0
43
0
10
140.663084
20
-137.050639
10
148.014973
20
-137.050639
10
148.014973
20
-140.052778
10
155.469167
20
-140.052778
0
LWPOLYLINE
5
B1
100
AcDbEntity
8
0
6
ByLayer
62
256
370
-1
100
AcDbPolyline
90
2
70
0
43
0
10
155.469167
20
-137.050639
10
155.469167
20
-140.052778
0
LWPOLYLINE
5
B2
100
AcDbEntity
8
0
6
ByLayer
62
256
370
-1
100
AcDbPolyline
90
4
70
0
43
0
10
155.469167
20
-137.050639
10
162.821056
20
-137.050639
10
162.821056
20
-140.052778
10
170.271723
20
-140.052778
0
LWPOLYLINE
5
B3
100
AcDbEntity
8
0
6
ByLayer
62
256
370
-1
100
AcDbPolyline
90
2
70
0
43
0
10
170.271723
20
-137.050639
10
170.271723
20
-140.052778
0
LWPOLYLINE
5
B4
100
AcDbEntity
8
0
6
ByLayer
62
256
370
-1
100
AcDbPolyline
90
4
70
0
43
0
10
170.271723
20
-137.050639
10
177.623611
20
-137.050639
10
177.623611
20
-140.052778
10
182.050973
20
-140.052778
0
LWPOLYLINE
5
B5
100
AcDbEntity
8
0
6
ByLayer
62
256
370
-1
100
AcDbPolyline
90
4
70
0
43
0
10
0
20
0
10
7.4295
20
0
10
7.4295
20
-3.002139
10
14.781389
20
-3.002139
0
LWPOLYLINE
5
B6
100
AcDbEntity
8
0
6
ByLayer
62
256
370
-1
100
AcDbPolyline
90
2
70
0
43
0
10
14.781389
20
0
10
14.781389
20
-3.002139
0
LWPOLYLINE
5
B7
100
AcDbEntity
8
0
6
ByLayer
62
256
370
-1
100
AcDbPolyline
90
4
70
0
43
0
10
14.781389
20
0
10
22.232056
20
0
10
22.232056
20
-3.002139
10
29.583945
20
-3.002139
0
LWPOLYLINE
5
B8
100
AcDbEntity
8
0
6
ByLayer
62
256
370
-1
100
AcDbPolyline
90
2
70
0
43
0
10
29.583945
20
0
10
29.583945
20
-3.002139
0
LWPOLYLINE
5
B9
100
AcDbEntity
8
0
6
ByLayer
62
256
370
-1
100
AcDbPolyline
90
4
70
0
43
0
10
29.583945
20
0
10
37.034611
20
0
10
37.034611
20
-3.002139
10
44.3865
20
-3.002139
0
LWPOLYLINE
5
BA
100
AcDbEntity
8
0
6
ByLayer
62
256
370
-1
100
AcDbPolyline
90
2
70
0
43
0
10
44.3865
20
0
10
44.3865
20
-3.002139
0
LWPOLYLINE
5
BB
100
AcDbEntity
8
0
6
ByLayer
62
256
370
-1
100
AcDbPolyline
90
4
70
0
43
0
10
44.3865
20
0
10
51.840695
20
0
10
51.840695
20
-3.002139
10
59.192584
20
-3.002139
0
LWPOLYLINE
5
BC
100
AcDbEntity
8
0
6
ByLayer
62
256
370
-1
100
AcDbPolyline
90
2
70
0
43
0
10
59.192584
20
0
10
59.192584
20
-3.002139
0
LWPOLYLINE
5
BD
100
AcDbEntity
8
0
6
ByLayer
62
256
370
-1
100
AcDbPolyline
90
4
70
0
43
0
10
59.192584
20
0
10
66.64325
20
0
10
66.64325
20
-3.002139
10
73.995139
20
-3.002139
0
LWPOLYLINE
5
BE
100
AcDbEntity
8
0
6
ByLayer
62
256
370
-1
100
AcDbPolyline
90
2
70
0
43
0
10
73.995139
20
0
10
73.995139
20
-3.002139
0
LWPOLYLINE
5
BF
100
AcDbEntity
8
0
6
ByLayer
62
256
370
-1
100
AcDbPolyline
90
4
70
0
43
0
10
73.995139
20
0
10
81.449334
20
0
10
81.449334
20
-3.002139
10
88.801223
20
-3.002139
0
LWPOLYLINE
5
C0
100
AcDbEntity
8
0
6
ByLayer
62
256
370
-1
100
AcDbPolyline
90
2
70
0
43
0
10
88.801223
20
0
10
88.801223
20
-3.002139
0
LWPOLYLINE
5
C1
100
AcDbEntity
8
0
6
ByLayer
62
256
370
-1
100
AcDbPolyline
90
4
70
0
43
0
10
88.801223
20
0
10
96.251889
20
0
10
96.251889
20
-3.002139
10
103.603778
20
-3.002139
0
LWPOLYLINE
5
C2
100
AcDbEntity
8
0
6
ByLayer
62
256
370
-1
100
AcDbPolyline
90
2
70
0
43
0
10
103.603778
20
0
10
103.603778
20
-3.002139
0
LWPOLYLINE
5
C3
100
AcDbEntity
8
0
6
ByLayer
62
256
370
-1
100
AcDbPolyline
90
4
70
0
43
0
10
103.603778
20
0
10
111.054445
20
0
10
111.054445
20
-3.002139
10
118.406334
20
-3.002139
0
LWPOLYLINE
5
C4
100
AcDbEntity
8
0
6
ByLayer
62
256
370
-1
100
AcDbPolyline
90
2
70
0
43
0
10
118.406334
20
0
10
118.406334
20
-3.002139
0
LWPOLYLINE
5
C5
100
AcDbEntity
8
0
6
ByLayer
62
256
370
-1
100
AcDbPolyline
90
4
70
0
43
0
10
118.406334
20
0
10
125.860528
20
0
10
125.860528
20
-3.002139
10
133.212417
20
-3.002139
0
LWPOLYLINE
5
C6
100
AcDbEntity
8
0
6
ByLayer
62
256
370
-1
100
AcDbPolyline
90
2
70
0
43
0
10
133.212417
20
0
10
133.212417
20
-3.002139
0
LWPOLYLINE
5
C7
100
AcDbEntity
8
0
6
ByLayer
62
256
370
-1
100
AcDbPolyline
90
4
70
0
43
0
10
133.212417
20
0
10
140.663084
20
0
10
140.663084
20
-3.002139
10
148.014973
20
-3.002139
0
LWPOLYLINE
5
C8
100
AcDbEntity
8
0
6
ByLayer
62
256
370
-1
100
AcDbPolyline
90
2
70
0
43
0
10
148.014973
20
0
10
148.014973
20
-3.002139
0
LWPOLYLINE
5
C9
100
AcDbEntity
8
0
6
ByLayer
62
256
370
-1
100
AcDbPolyline
90
4
70
0
43
0
10
148.014973
20
0
10
155.469167
20
0
10
155.469167
20
-3.002139
10
162.821056
20
-3.002139
0
LWPOLYLINE
5
CA
100
AcDbEntity
8
0
6
ByLayer
62
256
370
-1
100
AcDbPolyline
90
2
70
0
43
0
10
162.821056
20
0
10
162.821056
20
-3.002139
0
LWPOLYLINE
5
CB
100
AcDbEntity
8
0
6
ByLayer
62
256
370
-1
100
AcDbPolyline
90
4
70
0
43
0
10
162.821056
20
0
10
170.271723
20
0
10
170.271723
20
-3.002139
10
177.623611
20
-3.002139
0
LWPOLYLINE
5
CC
100
AcDbEntity
8
0
6
ByLayer
62
256
370
-1
100
AcDbPolyline
90
2
70
0
43
0
10
177.623611
20
0
10
177.623611
20
-3.002139
0
LWPOLYLINE
5
CD
100
AcDbEntity
8
0
6
ByLayer
62
256
370
-1
100
AcDbPolyline
90
2
70
0
43
0
10
177.623611
20
0
10
182.050973
20
0
0
LWPOLYLINE
5
CE
100
AcDbEntity
8
0
6
ByLayer
62
256
370
-1
100
AcDbPolyline
90
2
70
0
43
0
10
0
20
-140.052778
10
0
20
-132.655028
0
LWPOLYLINE
5
CF
100
AcDbEntity
8
0
6
ByLayer
62
256
370
-1
100
AcDbPolyline
90
2
70
0
43
0
10
3.002139
20
-132.655028
10
0
20
-132.655028
0
LWPOLYLINE
5
D0
100
AcDbEntity
8
0
6
ByLayer
62
256
370
-1
100
AcDbPolyline
90
4
70
0
43
0
10
3.002139
20
-132.655028
10
3.002139
20
-125.334889
10
0
20
-125.334889
10
0
20
-117.912444
0
LWPOLYLINE
5
D1
100
AcDbEntity
8
0
6
ByLayer
62
256
370
-1
100
AcDbPolyline
90
2
70
0
43
0
10
3.002139
20
-117.912444
10
0
20
-117.912444
0
LWPOLYLINE
5
D2
100
AcDbEntity
8
0
6
ByLayer
62
256
370
-1
100
AcDbPolyline
90
4
70
0
43
0
10
3.002139
20
-117.912444
10
3.002139
20
-110.592306
10
0
20
-110.592306
10
0
20
-103.169861
0
LWPOLYLINE
5
D3
100
AcDbEntity
8
0
6
ByLayer
62
256
370
-1
100
AcDbPolyline
90
2
70
0
43
0
10
3.002139
20
-103.169861
10
0
20
-103.169861
0
LWPOLYLINE
5
D4
100
AcDbEntity
8
0
6
ByLayer
62
256
370
-1
100
AcDbPolyline
90
4
70
0
43
0
10
3.002139
20
-103.169861
10
3.002139
20
-95.849722
10
0
20
-95.849722
10
0
20
-88.430806
0
LWPOLYLINE
5
D5
100
AcDbEntity
8
0
6
ByLayer
62
256
370
-1
100
AcDbPolyline
90
2
70
0
43
0
10
3.002139
20
-88.430806
10
0
20
-88.430806
0
LWPOLYLINE
5
D6
100
AcDbEntity
8
0
6
ByLayer
62
256
370
-1
100
AcDbPolyline
90
4
70
0
43
0
10
3.002139
20
-88.430806
10
3.002139
20
-81.107139
10
0
20
-81.107139
10
0
20
-73.688222
0
LWPOLYLINE
5
D7
100
AcDbEntity
8
0
6
ByLayer
62
256
370
-1
100
AcDbPolyline
90
2
70
0
43
0
10
3.002139
20
-73.688222
10
0
20
-73.688222
0
LWPOLYLINE
5
D8
100
AcDbEntity
8
0
6
ByLayer
62
256
370
-1
100
AcDbPolyline
90
4
70
0
43
0
10
3.002139
20
-73.688222
10
3.002139
20
-66.364556
10
0
20
-66.364556
10
0
20
-58.945639
0
LWPOLYLINE
5
D9
100
AcDbEntity
8
0
6
ByLayer
62
256
370
-1
100
AcDbPolyline
90
2
70
0
43
0
10
3.002139
20
-58.945639
10
0
20
-58.945639
0
LWPOLYLINE
5
DA
100
AcDbEntity
8
0
6
ByLayer
62
256
370
-1
100
AcDbPolyline
90
4
70
0
43
0
10
3.002139
20
-58.945639
10
3.002139
20
-51.6255
10
0
20
-51.6255
10
0
20
-44.203056
0
LWPOLYLINE
5
DB
100
AcDbEntity
8
0
6
ByLayer
62
256
370
-1
100
AcDbPolyline
90
2
70
0
43
0
10
3.002139
20
-44.203056
10
0
20
-44.203056
0
LWPOLYLINE
5
DC
100
AcDbEntity
8
0
6
ByLayer
62
256
370
-1
100
AcDbPolyline
90
4
70
0
43
0
10
3.002139
20
-44.203056
10
3.002139
20
-36.882917
10
0
20
-36.882917
10
0
20
-29.460472
0
LWPOLYLINE
5
DD
100
AcDbEntity
8
0
6
ByLayer
62
256
370
-1
100
AcDbPolyline
90
2
70
0
43
0
10
3.002139
20
-29.460472
10
0
20
-29.460472
0
LWPOLYLINE
5
DE
100
AcDbEntity
8
0
6
ByLayer
62
256
370
-1
100
AcDbPolyline
90
4
70
0
43
0
10
3.002139
20
-29.460472
10
3.002139
20
-22.140333
10
0
20
-22.140333
10
0
20
-14.717889
0
LWPOLYLINE
5
DF
100
AcDbEntity
8
0
6
ByLayer
62
256
370
-1
100
AcDbPolyline
90
2
70
0
43
0
10
3.002139
20
-14.717889
10
0
20
-14.717889
0
LWPOLYLINE
5
E0
100
AcDbEntity
8
0
6
ByLayer
62
256
370
-1
100
AcDbPolyline
90
4
70
0
43
0
10
3.002139
20
-14.717889
10
3.002139
20
-7.39775
10
0
20
-7.39775
10
0
20
0
0
LWPOLYLINE
5
E1
100
AcDbEntity
8
0
6
ByLayer
62
256
370
-1
100
AcDbPolyline
90
2
70
0
43
0
10
182.050973
20
-140.052778
10
182.050973
20
-132.704417
0
LWPOLYLINE
5
E2
100
AcDbEntity
8
0
6
ByLayer
62
256
370
-1
100
AcDbPolyline
90
2
70
0
43
0
10
185.049584
20
-132.704417
10
182.050973
20
-132.704417
0
LWPOLYLINE
5
E3
100
AcDbEntity
8
0
6
ByLayer
62
256
370
-1
100
AcDbPolyline
90
4
70
0
43
0
10
185.049584
20
-132.704417
10
185.049584
20
-125.2855
10
182.050973
20
-125.2855
10
182.050973
20
-117.961833
0
LWPOLYLINE
5
E4
100
AcDbEntity
8
0
6
ByLayer
62
256
370
-1
100
AcDbPolyline
90
2
70
0
43
0
10
185.049584
20
-117.961833
10
182.050973
20
-117.961833
0
LWPOLYLINE
5
E5
100
AcDbEntity
8
0
6
ByLayer
62
256
370
-1
100
AcDbPolyline
90
4
70
0
43
0
10
185.049584
20
-117.961833
10
185.049584
20
-110.542917
10
182.050973
20
-110.542917
10
182.050973
20
-103.222778
0
LWPOLYLINE
5
E6
100
AcDbEntity
8
0
6
ByLayer
62
256
370
-1
100
AcDbPolyline
90
2
70
0
43
0
10
185.049584
20
-103.222778
10
182.050973
20
-103.222778
0
LWPOLYLINE
5
E7
100
AcDbEntity
8
0
6
ByLayer
62
256
370
-1
100
AcDbPolyline
90
4
70
0
43
0
10
185.049584
20
-103.222778
10
185.049584
20
-95.800333
10
182.050973
20
-95.800333
10
182.050973
20
-88.480194
0
LWPOLYLINE
5
E8
100
AcDbEntity
8
0
6
ByLayer
62
256
370
-1
100
AcDbPolyline
90
2
70
0
43
0
10
185.049584
20
-88.480194
10
182.050973
20
-88.480194
0
LWPOLYLINE
5
E9
100
AcDbEntity
8
0
6
ByLayer
62
256
370
-1
100
AcDbPolyline
90
4
70
0
43
0
10
185.049584
20
-88.480194
10
185.049584
20
-81.05775
10
182.050973
20
-81.05775
10
182.050973
20
-73.737611
0
LWPOLYLINE
5
EA
100
AcDbEntity
8
0
6
ByLayer
62
256
370
-1
100
AcDbPolyline
90
2
70
0
43
0
10
185.049584
20
-73.737611
10
182.050973
20
-73.737611
0
LWPOLYLINE
5
EB
100
AcDbEntity
8
0
6
ByLayer
62
256
370
-1
100
AcDbPolyline
90
4
70
0
43
0
10
185.049584
20
-73.737611
10
185.049584
20
-66.315167
10
182.050973
20
-66.315167
10
182.050973
20
-58.995028
0
LWPOLYLINE
5
EC
100
AcDbEntity
8
0
6
ByLayer
62
256
370
-1
100
AcDbPolyline
90
2
70
0
43
0
10
185.049584
20
-58.995028
10
182.050973
20
-58.995028
0
LWPOLYLINE
5
ED
100
AcDbEntity
8
0
6
ByLayer
62
256
370
-1
100
AcDbPolyline
90
4
70
0
43
0
10
185.049584
20
-58.995028
10
185.049584
20
-51.572583
10
182.050973
20
-51.572583
10
182.050973
20
-44.252444
0
LWPOLYLINE
5
EE
100
AcDbEntity
8
0
6
ByLayer
62
256
370
-1
100
AcDbPolyline
90
2
70
0
43
0
10
185.049584
20
-44.252444
10
182.050973
20
-44.252444
0
LWPOLYLINE
5
EF
100
AcDbEntity
8
0
6
ByLayer
62
256
370
-1
100
AcDbPolyline
90
4
70
0
43
0
10
185.049584
20
-44.252444
10
185.049584
20
-36.83
10
182.050973
20
-36.83
10
182.050973
20
-29.509861
0
LWPOLYLINE
5
F0
100
AcDbEntity
8
0
6
ByLayer
62
256
370
-1
100
AcDbPolyline
90
2
70
0
43
0
10
185.049584
20
-29.509861
10
182.050973
20
-29.509861
0
LWPOLYLINE
5
F1
100
AcDbEntity
8
0
6
ByLayer
62
256
370
-1
100
AcDbPolyline
90
4
70
0
43
0
10
185.049584
20
-29.509861
10
185.049584
20
-22.090944
10
182.050973
20
-22.090944
10
182.050973
20
-14.767278
0
LWPOLYLINE
5
F2
100
AcDbEntity
8
0
6
ByLayer
62
256
370
-1
100
AcDbPolyline
90
2
70
0
43
0
10
185.049584
20
-14.767278
10
182.050973
20
-14.767278
0
LWPOLYLINE
5
F3
100
AcDbEntity
8
0
6
ByLayer
62
256
370
-1
100
AcDbPolyline
90
4
70
0
43
0
10
185.049584
20
-14.767278
10
185.049584
20
-7.348361
10
182.050973
20
-7.348361
10
182.050973
20
0
0
ENDBLK
5
4B
330
49
100
AcDbEntity
8
0
100
AcDbBlockEnd
0
BLOCK
5
4D
330
4C
100
AcDbEntity
8
0
100
AcDbBlockBegin
2
seite2
70
0
10
0
20
0
3
seite2
1

0
LWPOLYLINE
5
F4
100
AcDbEntity
8
0
6
ByLayer
62
256
370
-1
100
AcDbPolyline
90
2
70
0
43
0
10
-37.988000106
20
-73.2896689654
10
-30.181028106
20
-73.2896689654
0
LWPOLYLINE
5
F5
100
AcDbEntity
8
0
6
ByLayer
62
256
370
-1
100
AcDbPolyline
90
2
70
0
43
0
10
-30.181028106
20
-70.2910579654
10
-30.181028106
20
-73.2896689654
0
LWPOLYLINE
5
F6
100
AcDbEntity
8
0
6
ByLayer
62
256
370
-1
100
AcDbPolyline
90
4
70
0
43
0
10
-30.181028106
20
-70.2910579654
10
-22.448139106
20
-70.2910579654
10
-22.448139106
20
-73.2896689654
10
-14.612945106
20
-73.2896689654
0
LWPOLYLINE
5
F7
100
AcDbEntity
8
0
6
ByLayer
62
256
370
-1
100
AcDbPolyline
90
2
70
0
43
0
10
-14.612945106
20
-70.2910579654
10
-14.612945106
20
-73.2896689654
0
LWPOLYLINE
5
F8
100
AcDbEntity
8
0
6
ByLayer
62
256
370
-1
100
AcDbPolyline
90
4
70
0
43
0
10
-14.612945106
20
-70.2910579654
10
-6.88005610599
20
-70.2910579654
10
-6.88005610599
20
-73.2896689654
10
0.951610894014
20
-73.2896689654
0
LWPOLYLINE
5
F9
100
AcDbEntity
8
0
6
ByLayer
62
256
370
-1
100
AcDbPolyline
90
2
70
0
43
0
10
0.951610894014
20
-70.2910579654
10
0.951610894014
20
-73.2896689654
0
LWPOLYLINE
5
FA
100
AcDbEntity
8
0
6
ByLayer
62
256
370
-1
100
AcDbPolyline
90
4
70
0
43
0
10
0.951610894014
20
-70.2910579654
10
8.68802789401
20
-70.2910579654
10
8.68802789401
20
-73.2896689654
10
16.519693894
20
-73.2896689654
0
LWPOLYLINE
5
FB
100
AcDbEntity
8
0
6
ByLayer
62
256
370
-1
100
AcDbPolyline
90
2
70
0
43
0
10
16.519693894
20
-70.2910579654
10
16.519693894
20
-73.2896689654
0
LWPOLYLINE
5
FC
100
AcDbEntity
8
0
6
ByLayer
62
256
370
-1
100
AcDbPolyline
90
4
70
0
43
0
10
16.519693894
20
-70.2910579654
10
24.252582894
20
-70.2910579654
10
24.252582894
20
-73.2896689654
10
29.060943894
20
-73.2896689654
0
LWPOLYLINE
5
FD
100
AcDbEntity
8
0
6
ByLayer
62
256
370
-1
100
AcDbPolyline
90
4
70
0
43
0
10
-37.988000106
20
66.7595810346
10
-30.181028106
20
66.7595810346
10
-30.181028106
20
63.7609700346
10
-22.448139106
20
63.7609700346
0
LWPOLYLINE
5
FE
100
AcDbEntity
8
0
6
ByLayer
62
256
370
-1
100
AcDbPolyline
90
2
70
0
43
0
10
-22.448139106
20
66.7595810346
10
-22.448139106
20
63.7609700346
0
LWPOLYLINE
5
FF
100
AcDbEntity
8
0
6
ByLayer
62
256
370
-1
100
AcDbPolyline
90
4
70
0
43
0
10
-22.448139106
20
66.7595810346
10
-14.612945106
20
66.7595810346
10
-14.612945106
20
63.7609700346
10
-6.88005610599
20
63.7609700346
0
LWPOLYLINE
5
100
100
AcDbEntity
8
0
6
ByLayer
62
256
370
-1
100
AcDbPolyline
90
2
70
0
43
0
10
-6.88005610599
20
66.7595810346
10
-6.88005610599
20
63.7609700346
0
LWPOLYLINE
5
101
100
AcDbEntity
8
0
6
ByLayer
62
256
370
-1
100
AcDbPolyline
90
4
70
0
43
0
10
-6.88005610599
20
66.7595810346
10
0.951610894014
20
66.7595810346
10
0.951610894014
20
63.7609700346
10
8.68802789401
20
63.7609700346
0
LWPOLYLINE
5
102
100
AcDbEntity
8
0
6
ByLayer
62
256
370
-1
100
AcDbPolyline
90
2
70
0
43
0
10
8.68802789401
20
66.7595810346
10
8.68802789401
20
63.7609700346
0
LWPOLYLINE
5
103
100
AcDbEntity
8
0
6
ByLayer
62
256
370
-1
100
AcDbPolyline
90
4
70
0
43
0
10
8.68802789401
20
66.7595810346
10
16.519693894
20
66.7595810346
10
16.519693894
20
63.7609700346
10
24.252582894
20
63.7609700346
0
LWPOLYLINE
5
104
100
AcDbEntity
8
0
6
ByLayer
62
256
370
-1
100
AcDbPolyline
90
2
70
0
43
0
10
24.252582894
20
66.7595810346
10
24.252582894
20
63.7609700346
0
LWPOLYLINE
5
105
100
AcDbEntity
8
0
6
ByLayer
62
256
370
-1
100
AcDbPolyline
90
2
70
0
43
0
10
24.252582894
20
66.7595810346
10
29.060943894
20
66.7595810346
0
LWPOLYLINE
5
106
100
AcDbEntity
8
0
6
ByLayer
62
256
370
-1
100
AcDbPolyline
90
2
70
0
43
0
10
-37.988000106
20
-73.2896689654
10
-37.988000106
20
-65.8954469654
0
LWPOLYLINE
5
107
100
AcDbEntity
8
0
6
ByLayer
62
256
370
-1
100
AcDbPolyline
90
2
70
0
43
0
10
-34.989389106
20
-65.8954469654
10
-37.988000106
20
-65.8954469654
0
LWPOLYLINE
5
108
100
AcDbEntity
8
0
6
ByLayer
62
256
370
-1
100
AcDbPolyline
90
4
70
0
43
0
10
-34.989389106
20
-65.8954469654
10
-34.989389106
20
-58.5717799654
10
-37.988000106
20
-58.5717799654
10
-37.988000106
20
-51.1528639654
0
LWPOLYLINE
5
109
100
AcDbEntity
8
0
6
ByLayer
62
256
370
-1
100
AcDbPolyline
90
2
70
0
43
0
10
-34.989389106
20
-51.1528639654
10
-37.988000106
20
-51.1528639654
0
LWPOLYLINE
5
10A
100
AcDbEntity
8
0
6
ByLayer
62
256
370
-1
100
AcDbPolyline
90
4
70
0
43
0
10
-34.989389106
20
-51.1528639654
10
-34.989389106
20
-43.8327249654
10
-37.988000106
20
-43.8327249654
10
-37.988000106
20
-36.4102799654
0
LWPOLYLINE
5
10B
100
AcDbEntity
8
0
6
ByLayer
62
256
370
-1
100
AcDbPolyline
90
2
70
0
43
0
10
-34.989389106
20
-36.4102799654
10
-37.988000106
20
-36.4102799654
0
LWPOLYLINE
5
10C
100
AcDbEntity
8
0
6
ByLayer
62
256
370
-1
100
AcDbPolyline
90
4
70
0
43
0
10
-34.989389106
20
-36.4102799654
10
-34.989389106
20
-29.0901409654
10
-37.988000106
20
-29.0901409654
10
-37.988000106
20
-21.6676969654
0
LWPOLYLINE
5
10D
100
AcDbEntity
8
0
6
ByLayer
62
256
370
-1
100
AcDbPolyline
90
2
70
0
43
0
10
-34.989389106
20
-21.6676969654
10
-37.988000106
20
-21.6676969654
0
LWPOLYLINE
5
10E
100
AcDbEntity
8
0
6
ByLayer
62
256
370
-1
100
AcDbPolyline
90
4
70
0
43
0
10
-34.989389106
20
-21.6676969654
10
-34.989389106
20
-14.3475579654
10
-37.988000106
20
-14.3475579654
10
-37.988000106
20
-6.92511396543
0
LWPOLYLINE
5
10F
100
AcDbEntity
8
0
6
ByLayer
62
256
370
-1
100
AcDbPolyline
90
2
70
0
43
0
10
-34.989389106
20
-6.92511396543
10
-37.988000106
20
-6.92511396543
0
LWPOLYLINE
5
110
100
AcDbEntity
8
0
6
ByLayer
62
256
370
-1
100
AcDbPolyline
90
4
70
0
43
0
10
-34.989389106
20
-6.92511396543
10
-34.989389106
20
0.395025034571
10
-37.988000106
20
0.395025034571
10
-37.988000106
20
7.81747003457
0
LWPOLYLINE
5
111
100
AcDbEntity
8
0
6
ByLayer
62
256
370
-1
100
AcDbPolyline
90
2
70
0
43
0
10
-34.989389106
20
7.81747003457
10
-37.988000106
20
7.81747003457
0
LWPOLYLINE
5
112
100
AcDbEntity
8
0
6
ByLayer
62
256
370
-1
100
AcDbPolyline
90
4
70
0
43
0
10
-34.989389106
20
7.81747003457
10
-34.989389106
20
15.1376090346
10
-37.988000106
20
15.1376090346
10
-37.988000106
20
22.5600530346
0
LWPOLYLINE
5
113
100
AcDbEntity
8
0
6
ByLayer
62
256
370
-1
100
AcDbPolyline
90
2
70
0
43
0
10
-34.989389106
20
22.5600530346
10
-37.988000106
20
22.5600530346
0
LWPOLYLINE
5
114
100
AcDbEntity
8
0
6
ByLayer
62
256
370
-1
100
AcDbPolyline
90
4
70
0
43
0
10
-34.989389106
20
22.5600530346
10
-34.989389106
20
29.8801920346
10
-37.988000106
20
29.8801920346
10
-37.988000106
20
37.2991090346
0
LWPOLYLINE
5
115
100
AcDbEntity
8
0
6
ByLayer
62
256
370
-1
100
AcDbPolyline
90
2
70
0
43
0
10
-34.989389106
20
37.2991090346
10
-37.988000106
20
37.2991090346
0
LWPOLYLINE
5
116
100
AcDbEntity
8
0
6
ByLayer
62
256
370
-1
100
AcDbPolyline
90
4
70
0
43
0
10
-34.989389106
20
37.2991090346
10
-34.989389106
20
44.6227750346
10
-37.988000106
20
44.6227750346
10
-37.988000106
20
52.0416920346
0
LWPOLYLINE
5
117
100
AcDbEntity
8
0
6
ByLayer
62
256
370
-1
100
AcDbPolyline
90
2
70
0
43
0
10
-34.989389106
20
52.0416920346
10
-37.988000106
20
52.0416920346
0
LWPOLYLINE
5
118
100
AcDbEntity
8
0
6
ByLayer
62
256
370
-1
100
AcDbPolyline
90
4
70
0
43
0
10
-34.989389106
20
52.0416920346
10
-34.989389106
20
59.3653590346
10
-37.988000106
20
59.3653590346
10
-37.988000106
20
66.7595810346
0
LWPOLYLINE
5
119
100
AcDbEntity
8
0
6
ByLayer
62
256
370
-1
100
AcDbPolyline
90
2
70
0
43
0
10
29.060943894
20
-73.2896689654
10
29.060943894
20
-65.9448359654
0
LWPOLYLINE
5
11A
100
AcDbEntity
8
0
6
ByLayer
62
256
370
-1
100
AcDbPolyline
90
2
70
0
43
0
10
32.063082894
20
-65.9448359654
10
29.060943894
20
-65.9448359654
0
LWPOLYLINE
5
11B
100
AcDbEntity
8
0
6
ByLayer
62
256
370
-1
100
AcDbPolyline
90
4
70
0
43
0
10
32.063082894
20
-65.9448359654
10
32.063082894
20
-58.5223909654
10
29.060943894
20
-58.5223909654
10
29.060943894
20
-51.2022529654
0
LWPOLYLINE
5
11C
100
AcDbEntity
8
0
6
ByLayer
62
256
370
-1
100
AcDbPolyline
90
2
70
0
43
0
10
32.063082894
20
-51.2022529654
10
29.060943894
20
-51.2022529654
0
LWPOLYLINE
5
11D
100
AcDbEntity
8
0
6
ByLayer
62
256
370
-1
100
AcDbPolyline
90
4
70
0
43
0
10
32.063082894
20
-51.2022529654
10
32.063082894
20
-43.7798079654
10
29.060943894
20
-43.7798079654
10
29.060943894
20
-36.4596689654
0
LWPOLYLINE
5
11E
100
AcDbEntity
8
0
6
ByLayer
62
256
370
-1
100
AcDbPolyline
90
2
70
0
43
0
10
32.063082894
20
-36.4596689654
10
29.060943894
20
-36.4596689654
0
LWPOLYLINE
5
11F
100
AcDbEntity
8
0
6
ByLayer
62
256
370
-1
100
AcDbPolyline
90
4
70
0
43
0
10
32.063082894
20
-36.4596689654
10
32.063082894
20
-29.0372249654
10
29.060943894
20
-29.0372249654
10
29.060943894
20
-21.7170859654
0
LWPOLYLINE
5
120
100
AcDbEntity
8
0
6
ByLayer
62
256
370
-1
100
AcDbPolyline
90
2
70
0
43
0
10
32.063082894
20
-21.7170859654
10
29.060943894
20
-21.7170859654
0
LWPOLYLINE
5
121
100
AcDbEntity
8
0
6
ByLayer
62
256
370
-1
100
AcDbPolyline
90
4
70
0
43
0
10
32.063082894
20
-21.7170859654
10
32.063082894
20
-14.2981689654
10
29.060943894
20
-14.2981689654
10
29.060943894
20
-6.97450296543
0
LWPOLYLINE
5
122
100
AcDbEntity
8
0
6
ByLayer
62
256
370
-1
100
AcDbPolyline
90
2
70
0
43
0
10
32.063082894
20
-6.97450296543
10
29.060943894
20
-6.97450296543
0
LWPOLYLINE
5
123
100
AcDbEntity
8
0
6
ByLayer
62
256
370
-1
100
AcDbPolyline
90
4
70
0
43
0
10
32.063082894
20
-6.97450296543
10
32.063082894
20
0.444414034571
10
29.060943894
20
0.444414034571
10
29.060943894
20
7.76808103457
0
LWPOLYLINE
5
124
100
AcDbEntity
8
0
6
ByLayer
62
256
370
-1
100
AcDbPolyline
90
2
70
0
43
0
10
32.063082894
20
7.76808103457
10
29.060943894
20
7.76808103457
0
LWPOLYLINE
5
125
100
AcDbEntity
8
0
6
ByLayer
62
256
370
-1
100
AcDbPolyline
90
4
70
0
43
0
10
32.063082894
20
7.76808103457
10
32.063082894
20
15.1869970346
10
29.060943894
20
15.1869970346
10
29.060943894
20
22.5071360346
0
LWPOLYLINE
5
126
100
AcDbEntity
8
0
6
ByLayer
62
256
370
-1
100
AcDbPolyline
90
2
70
0
43
0
10
32.063082894
20
22.5071360346
10
29.060943894
20
22.5071360346
0
LWPOLYLINE
5
127
100
AcDbEntity
8
0
6
ByLayer
62
256
370
-1
100
AcDbPolyline
90
4
70
0
43
0
10
32.063082894
20
22.5071360346
10
32.063082894
20
29.9295810346
10
29.060943894
20
29.9295810346
10
29.060943894
20
37.2497200346
0
LWPOLYLINE
5
128
100
AcDbEntity
8
0
6
ByLayer
62
256
370
-1
100
AcDbPolyline
90
2
70
0
43
0
10
32.063082894
20
37.2497200346
10
29.060943894
20
37.2497200346
0
LWPOLYLINE
5
129
100
AcDbEntity
8
0
6
ByLayer
62
256
370
-1
100
AcDbPolyline
90
4
70
0
43
0
10
32.063082894
20
37.2497200346
10
32.063082894
20
44.6721640346
10
29.060943894
20
44.6721640346
10
29.060943894
20
51.9923030346
0
LWPOLYLINE
5
12A
100
AcDbEntity
8
0
6
ByLayer
62
256
370
-1
100
AcDbPolyline
90
2
70
0
43
0
10
32.063082894
20
51.9923030346
10
29.060943894
20
51.9923030346
0
LWPOLYLINE
5
12B
100
AcDbEntity
8
0
6
ByLayer
62
256
370
-1
100
AcDbPolyline
90
4
70
0
43
0
10
32.063082894
20
51.9923030346
10
32.063082894
20
59.4147470346
10
29.060943894
20
59.4147470346
10
29.060943894
20
66.7595810346
0
ENDBLK
5
4E
330
4C
100
AcDbEntity
8
0
100
AcDbBlockEnd
0
BLOCK
5
50
330
4F
100
AcDbEntity
8
0
100
AcDbBlockBegin
2
seite3
70
0
10
0
20
0
3
seite3
1

0
LWPOLYLINE
5
12C
100
AcDbEntity
8
0
6
ByLayer
62
256
370
-1
100
AcDbPolyline
90
2
70
0
43
0
10
-26.5955813888
20
-77.005246406
10
-18.7850813888
20
-77.005246406
0
LWPOLYLINE
5
12D
100
AcDbEntity
8
0
6
ByLayer
62
256
370
-1
100
AcDbPolyline
90
2
70
0
43
0
10
-18.7850813888
20
-74.006635406
10
-18.7850813888
20
-77.005246406
0
LWPOLYLINE
5
12E
100
AcDbEntity
8
0
6
ByLayer
62
256
370
-1
100
AcDbPolyline
90
4
70
0
43
0
10
-18.7850813888
20
-74.006635406
10
-11.0521933888
20
-74.006635406
10
-11.0521933888
20
-77.005246406
10
-3.22052638882
20
-77.005246406
0
LWPOLYLINE
5
12F
100
AcDbEntity
8
0
6
ByLayer
62
256
370
-1
100
AcDbPolyline
90
2
70
0
43
0
10
-3.22052638882
20
-74.006635406
10
-3.22052638882
20
-77.005246406
0
LWPOLYLINE
5
130
100
AcDbEntity
8
0
6
ByLayer
62
256
370
-1
100
AcDbPolyline
90
4
70
0
43
0
10
-3.22052638882
20
-74.006635406
10
4.51236261118
20
-74.006635406
10
4.51236261118
20
-77.005246406
10
12.3475566112
20
-77.005246406
0
LWPOLYLINE
5
131
100
AcDbEntity
8
0
6
ByLayer
62
256
370
-1
100
AcDbPolyline
90
2
70
0
43
0
10
12.3475566112
20
-74.006635406
10
12.3475566112
20
-77.005246406
0
LWPOLYLINE
5
132
100
AcDbEntity
8
0
6
ByLayer
62
256
370
-1
100
AcDbPolyline
90
4
70
0
43
0
10
12.3475566112
20
-74.006635406
10
20.0804456112
20
-74.006635406
10
20.0804456112
20
-77.005246406
10
27.9121126112
20
-77.005246406
0
LWPOLYLINE
5
133
100
AcDbEntity
8
0
6
ByLayer
62
256
370
-1
100
AcDbPolyline
90
2
70
0
43
0
10
27.9121126112
20
-74.006635406
10
27.9121126112
20
-77.005246406
0
LWPOLYLINE
5
134
100
AcDbEntity
8
0
6
ByLayer
62
256
370
-1
100
AcDbPolyline
90
4
70
0
43
0
10
27.9121126112
20
-74.006635406
10
35.6485296112
20
-74.006635406
10
35.6485296112
20
-77.005246406
10
40.4568906112
20
-77.005246406
0
LWPOLYLINE
5
135
100
AcDbEntity
8
0
6
ByLayer
62
256
370
-1
100
AcDbPolyline
90
4
70
0
43
0
10
-26.5955813888
20
63.044003594
10
-18.7850813888
20
63.044003594
10
-18.7850813888
20
60.045392594
10
-11.0521933888
20
60.045392594
0
LWPOLYLINE
5
136
100
AcDbEntity
8
0
6
ByLayer
62
256
370
-1
100
AcDbPolyline
90
2
70
0
43
0
10
-11.0521933888
20
63.044003594
10
-11.0521933888
20
60.045392594
0
LWPOLYLINE
5
137
100
AcDbEntity
8
0
6
ByLayer
62
256
370
-1
100
AcDbPolyline
90
4
70
0
43
0
10
-11.0521933888
20
63.044003594
10
-3.22052638882
20
63.044003594
10
-3.22052638882
20
60.045392594
10
4.51236261118
20
60.045392594
0
LWPOLYLINE
5
138
100
AcDbEntity
8
0
6
ByLayer
62
256
370
-1
100
AcDbPolyline
90
2
70
0
43
0
10
4.51236261118
20
63.044003594
10
4.51236261118
20
60.045392594
0
LWPOLYLINE
5
139
100
AcDbEntity
8
0
6
ByLayer
62
256
370
-1
100
AcDbPolyline
90
4
70
0
43
0
10
4.51236261118
20
63.044003594
10
12.3475566112
20
63.044003594
10
12.3475566112
20
60.045392594
10
20.0804456112
20
60.045392594
0
LWPOLYLINE
5
13A
100
AcDbEntity
8
0
6
ByLayer
62
256
370
-1
100
AcDbPolyline
90
2
70
0
43
0
10
20.0804456112
20
63.044003594
10
20.0804456112
20
60.045392594
0
LWPOLYLINE
5
13B
100
AcDbEntity
8
0
6
ByLayer
62
256
370
-1
100
AcDbPolyline
90
4
70
0
43
0
10
20.0804456112
20
63.044003594
10
27.9121126112
20
63.044003594
10
27.9121126112
20
60.045392594
10
35.6485296112
20
60.045392594
0
LWPOLYLINE
5
13C
100
AcDbEntity
8
0
6
ByLayer
62
256
370
-1
100
AcDbPolyline
90
2
70
0
43
0
10
35.6485296112
20
63.044003594
10
35.6485296112
20
60.045392594
0
LWPOLYLINE
5
13D
100
AcDbEntity
8
0
6
ByLayer
62
256
370
-1
100
AcDbPolyline
90
2
70
0
43
0
10
35.6485296112
20
63.044003594
10
40.4568906112
20
63.044003594
0
LWPOLYLINE
5
13E
100
AcDbEntity
8
0
6
ByLayer
62
256
370
-1
100
AcDbPolyline
90
2
70
0
43
0
10
-26.5955813888
20
-77.005246406
10
-26.5955813888
20
-69.611024406
0
LWPOLYLINE
5
13F
100
AcDbEntity
8
0
6
ByLayer
62
256
370
-1
100
AcDbPolyline
90
2
70
0
43
0
10
-23.5934433888
20
-69.611024406
10
-26.5955813888
20
-69.611024406
0
LWPOLYLINE
5
140
100
AcDbEntity
8
0
6
ByLayer
62
256
370
-1
100
AcDbPolyline
90
4
70
0
43
0
10
-23.5934433888
20
-69.611024406
10
-23.5934433888
20
-62.287357406
10
-26.5955813888
20
-62.287357406
10
-26.5955813888
20
-54.868441406
0
LWPOLYLINE
5
141
100
AcDbEntity
8
0
6
ByLayer
62
256
370
-1
100
AcDbPolyline
90
2
70
0
43
0
10
-23.5934433888
20
-54.868441406
10
-26.5955813888
20
-54.868441406
0
LWPOLYLINE
5
142
100
AcDbEntity
8
0
6
ByLayer
62
256
370
-1
100
AcDbPolyline
90
4
70
0
43
0
10
-23.5934433888
20
-54.868441406
10
-23.5934433888
20
-47.548302406
10
-26.5955813888
20
-47.548302406
10
-26.5955813888
20
-40.125857406
0
LWPOLYLINE
5
143
100
AcDbEntity
8
0
6
ByLayer
62
256
370
-1
100
AcDbPolyline
90
2
70
0
43
0
10
-23.5934433888
20
-40.125857406
10
-26.5955813888
20
-40.125857406
0
LWPOLYLINE
5
144
100
AcDbEntity
8
0
6
ByLayer
62
256
370
-1
100
AcDbPolyline
90
4
70
0
43
0
10
-23.5934433888
20
-40.125857406
10
-23.5934433888
20
-32.805718406
10
-26.5955813888
20
-32.805718406
10
-26.5955813888
20
-25.383274406
0
LWPOLYLINE
5
145
100
AcDbEntity
8
0
6
ByLayer
62
256
370
-1
100
AcDbPolyline
90
2
70
0
43
0
10
-23.5934433888
20
-25.383274406
10
-26.5955813888
20
-25.383274406
0
LWPOLYLINE
5
146
100
AcDbEntity
8
0
6
ByLayer
62
256
370
-1
100
AcDbPolyline
90
4
70
0
43
0
10
-23.5934433888
20
-25.383274406
10
-23.5934433888
20
-18.063135406
10
-26.5955813888
20
-18.063135406
10
-26.5955813888
20
-10.640691406
0
LWPOLYLINE
5
147
100
AcDbEntity
8
0
6
ByLayer
62
256
370
-1
100
AcDbPolyline
90
2
70
0
43
0
10
-23.5934433888
20
-10.640691406
10
-26.5955813888
20
-10.640691406
0
LWPOLYLINE
5
148
100
AcDbEntity
8
0
6
ByLayer
62
256
370
-1
100
AcDbPolyline
90
4
70
0
43
0
10
-23.5934433888
20
-10.640691406
10
-23.5934433888
20
-3.32055240603
10
-26.5955813888
20
-3.32055240603
10
-26.5955813888
20
4.10189259397
0
LWPOLYLINE
5
149
100
AcDbEntity
8
0
6
ByLayer
62
256
370
-1
100
AcDbPolyline
90
2
70
0
43
0
10
-23.5934433888
20
4.10189259397
10
-26.5955813888
20
4.10189259397
0
LWPOLYLINE
5
14A
100
AcDbEntity
8
0
6
ByLayer
62
256
370
-1
100
AcDbPolyline
90
4
70
0
43
0
10
-23.5934433888
20
4.10189259397
10
-23.5934433888
20
11.422031594
10
-26.5955813888
20
11.422031594
10
-26.5955813888
20
18.844475594
0
LWPOLYLINE
5
14B
100
AcDbEntity
8
0
6
ByLayer
62
256
370
-1
100
AcDbPolyline
90
2
70
0
43
0
10
-23.5934433888
20
18.844475594
10
-26.5955813888
20
18.844475594
0
LWPOLYLINE
5
14C
100
AcDbEntity
8
0
6
ByLayer
62
256
370
-1
100
AcDbPolyline
90
4
70
0
43
0
10
-23.5934433888
20
18.844475594
10
-23.5934433888
20
26.164614594
10
-26.5955813888
20
26.164614594
10
-26.5955813888
20
33.583531594
0
LWPOLYLINE
5
14D
100
AcDbEntity
8
0
6
ByLayer
62
256
370
-1
100
AcDbPolyline
90
2
70
0
43
0
10
-23.5934433888
20
33.583531594
10
-26.5955813888
20
33.583531594
0
LWPOLYLINE
5
14E
100
AcDbEntity
8
0
6
ByLayer
62
256
370
-1
100
AcDbPolyline
90
4
70
0
43
0
10
-23.5934433888
20
33.583531594
10
-23.5934433888
20
40.907197594
10
-26.5955813888
20
40.907197594
10
-26.5955813888
20
48.326114594
0
LWPOLYLINE
5
14F
100
AcDbEntity
8
0
6
ByLayer
62
256
370
-1
100
AcDbPolyline
90
2
70
0
43
0
10
-23.5934433888
20
48.326114594
10
-26.5955813888
20
48.326114594
0
LWPOLYLINE
5
150
100
AcDbEntity
8
0
6
ByLayer
62
256
370
-1
100
AcDbPolyline
90
4
70
0
43
0
10
-23.5934433888
20
48.326114594
10
-23.5934433888
20
55.649781594
10
-26.5955813888
20
55.649781594
10
-26.5955813888
20
63.044003594
0
LWPOLYLINE
5
151
100
AcDbEntity
8
0
6
ByLayer
62
256
370
-1
100
AcDbPolyline
90
2
70
0
43
0
10
40.4568906112
20
-77.005246406
10
40.4568906112
20
-69.660413406
0
LWPOLYLINE
5
152
100
AcDbEntity
8
0
6
ByLayer
62
256
370
-1
100
AcDbPolyline
90
2
70
0
43
0
10
43.4555016112
20
-69.660413406
10
40.4568906112
20
-69.660413406
0
LWPOLYLINE
5
153
100
AcDbEntity
8
0
6
ByLayer
62
256
370
-1
100
AcDbPolyline
90
4
70
0
43
0
10
43.4555016112
20
-69.660413406
10
43.4555016112
20
-62.237968406
10
40.4568906112
20
-62.237968406
10
40.4568906112
20
-54.917830406
0
LWPOLYLINE
5
154
100
AcDbEntity
8
0
6
ByLayer
62
256
370
-1
100
AcDbPolyline
90
2
70
0
43
0
10
43.4555016112
20
-54.917830406
10
40.4568906112
20
-54.917830406
0
LWPOLYLINE
5
155
100
AcDbEntity
8
0
6
ByLayer
62
256
370
-1
100
AcDbPolyline
90
4
70
0
43
0
10
43.4555016112
20
-54.917830406
10
43.4555016112
20
-47.495385406
10
40.4568906112
20
-47.495385406
10
40.4568906112
20
-40.175246406
0
LWPOLYLINE
5
156
100
AcDbEntity
8
0
6
ByLayer
62
256
370
-1
100
AcDbPolyline
90
2
70
0
43
0
10
43.4555016112
20
-40.175246406
10
40.4568906112
20
-40.175246406
0
LWPOLYLINE
5
157
100
AcDbEntity
8
0
6
ByLayer
62
256
370
-1
100
AcDbPolyline
90
4
70
0
43
0
10
43.4555016112
20
-40.175246406
10
43.4555016112
20
-32.752802406
10
40.4568906112
20
-32.752802406
10
40.4568906112
20
-25.432663406
0
LWPOLYLINE
5
158
100
AcDbEntity
8
0
6
ByLayer
62
256
370
-1
100
AcDbPolyline
90
2
70
0
43
0
10
43.4555016112
20
-25.432663406
10
40.4568906112
20
-25.432663406
0
LWPOLYLINE
5
159
100
AcDbEntity
8
0
6
ByLayer
62
256
370
-1
100
AcDbPolyline
90
4
70
0
43
0
10
43.4555016112
20
-25.432663406
10
43.4555016112
20
-18.013746406
10
40.4568906112
20
-18.013746406
10
40.4568906112
20
-10.690080406
0
LWPOLYLINE
5
15A
100
AcDbEntity
8
0
6
ByLayer
62
256
370
-1
100
AcDbPolyline
90
2
70
0
43
0
10
43.4555016112
20
-10.690080406
10
40.4568906112
20
-10.690080406
0
LWPOLYLINE
5
15B
100
AcDbEntity
8
0
6
ByLayer
62
256
370
-1
100
AcDbPolyline
90
4
70
0
43
0
10
43.4555016112
20
-10.690080406
10
43.4555016112
20
-3.27116340603
10
40.4568906112
20
-3.27116340603
10
40.4568906112
20
4.05250359397
0
LWPOLYLINE
5
15C
100
AcDbEntity
8
0
6
ByLayer
62
256
370
-1
100
AcDbPolyline
90
2
70
0
43
0
10
43.4555016112
20
4.05250359397
10
40.4568906112
20
4.05250359397
0
LWPOLYLINE
5
15D
100
AcDbEntity
8
0
6
ByLayer
62
256
370
-1
100
AcDbPolyline
90
4
70
0
43
0
10
43.4555016112
20
4.05250359397
10
43.4555016112
20
11.471419594
10
40.4568906112
20
11.471419594
10
40.4568906112
20
18.791558594
0
LWPOLYLINE
5
15E
100
AcDbEntity
8
0
6
ByLayer
62
256
370
-1
100
AcDbPolyline
90
2
70
0
43
0
10
43.4555016112
20
18.791558594
10
40.4568906112
20
18.791558594
0
LWPOLYLINE
5
15F
100
AcDbEntity
8
0
6
ByLayer
62
256
370
-1
100
AcDbPolyline
90
4
70
0
43
0
10
43.4555016112
20
18.791558594
10
43.4555016112
20
26.214003594
10
40.4568906112
20
26.214003594
10
40.4568906112
20
33.534142594
0
LWPOLYLINE
5
160
100
AcDbEntity
8
0
6
ByLayer
62
256
370
-1
100
AcDbPolyline
90
2
70
0
43
0
10
43.4555016112
20
33.534142594
10
40.4568906112
20
33.534142594
0
LWPOLYLINE
5
161
100
AcDbEntity
8
0
6
ByLayer
62
256
370
-1
100
AcDbPolyline
90
4
70
0
43
0
10
43.4555016112
20
33.534142594
10
43.4555016112
20
40.956586594
10
40.4568906112
20
40.956586594
10
40.4568906112
20
48.276725594
0
LWPOLYLINE
5
162
100
AcDbEntity
8
0
6
ByLayer
62
256
370
-1
100
AcDbPolyline
90
2
70
0
43
0
10
43.4555016112
20
48.276725594
10
40.4568906112
20
48.276725594
0
LWPOLYLINE
5
163
100
AcDbEntity
8
0
6
ByLayer
62
256
370
-1
100
AcDbPolyline
90
4
70
0
43
0
10
43.4555016112
20
48.276725594
10
43.4555016112
20
55.699169594
10
40.4568906112
20
55.699169594
10
40.4568906112
20
63.044003594
0
ENDBLK
5
51
330
4F
100
AcDbEntity
8
0
100
AcDbBlockEnd
0
BLOCK
5
53
330
52
100
AcDbEntity
8
0
100
AcDbBlockBegin
2
seite4
70
0
10
0
20
0
3
seite4
1

0
LWPOLYLINE
5
164
100
AcDbEntity
8
0
6
ByLayer
62
256
370
-1
100
AcDbPolyline
90
4
70
0
43
0
10
-139.18030816
20
-34.6215145356
10
-134.80586316
20
-34.6215145356
10
-134.80586316
20
-37.6201255356
10
-127.35166916
20
-37.6201255356
0
LWPOLYLINE
5
165
100
AcDbEntity
8
0
6
ByLayer
62
256
370
-1
100
AcDbPolyline
90
2
70
0
43
0
10
-127.35166916
20
-34.6215145356
10
-127.35166916
20
-37.6201255356
0
LWPOLYLINE
5
166
100
AcDbEntity
8
0
6
ByLayer
62
256
370
-1
100
AcDbPolyline
90
4
70
0
43
0
10
-127.35166916
20
-34.6215145356
10
-119.99978016
20
-34.6215145356
10
-119.99978016
20
-37.6201255356
10
-112.54911316
20
-37.6201255356
0
LWPOLYLINE
5
167
100
AcDbEntity
8
0
6
ByLayer
62
256
370
-1
100
AcDbPolyline
90
2
70
0
43
0
10
-112.54911316
20
-34.6215145356
10
-112.54911316
20
-37.6201255356
0
LWPOLYLINE
5
168
100
AcDbEntity
8
0
6
ByLayer
62
256
370
-1
100
AcDbPolyline
90
4
70
0
43
0
10
-112.54911316
20
-34.6215145356
10
-105.19722416
20
-34.6215145356
10
-105.19722416
20
-37.6201255356
10
-97.7430301599
20
-37.6201255356
0
LWPOLYLINE
5
169
100
AcDbEntity
8
0
6
ByLayer
62
256
370
-1
100
AcDbPolyline
90
2
70
0
43
0
10
-97.7430301599
20
-34.6215145356
10
-97.7430301599
20
-37.6201255356
0
LWPOLYLINE
5
16A
100
AcDbEntity
8
0
6
ByLayer
62
256
370
-1
100
AcDbPolyline
90
4
70
0
43
0
10
-97.7430301599
20
-34.6215145356
10
-90.3911411599
20
-34.6215145356
10
-90.3911411599
20
-37.6201255356
10
-82.9404741599
20
-37.6201255356
0
LWPOLYLINE
5
16B
100
AcDbEntity
8
0
6
ByLayer
62
256
370
-1
100
AcDbPolyline
90
2
70
0
43
0
10
-82.9404741599
20
-34.6215145356
10
-82.9404741599
20
-37.6201255356
0
LWPOLYLINE
5
16C
100
AcDbEntity
8
0
6
ByLayer
62
256
370
-1
100
AcDbPolyline
90
4
70
0
43
0
10
-82.9404741599
20
-34.6215145356
10
-75.5885861599
20
-34.6215145356
10
-75.5885861599
20
-37.6201255356
10
-68.1379191599
20
-37.6201255356
0
LWPOLYLINE
5
16D
100
AcDbEntity
8
0
6
ByLayer
62
256
370
-1
100
AcDbPolyline
90
2
70
0
43
0
10
-68.1379191599
20
-34.6215145356
10
-68.1379191599
20
-37.6201255356
0
LWPOLYLINE
5
16E
100
AcDbEntity
8
0
6
ByLayer
62
256
370
-1
100
AcDbPolyline
90
4
70
0
43
0
10
-68.1379191599
20
-34.6215145356
10
-60.7860301599
20
-34.6215145356
10
-60.7860301599
20
-37.6201255356
10
-53.3318361599
20
-37.6201255356
0
LWPOLYLINE
5
16F
100
AcDbEntity
8
0
6
ByLayer
62
256
370
-1
100
AcDbPolyline
90
2
70
0
43
0
10
-53.3318361599
20
-34.6215145356
10
-53.3318361599
20
-37.6201255356
0
LWPOLYLINE
5
170
100
AcDbEntity
8
0
6
ByLayer
62
256
370
-1
100
AcDbPolyline
90
4
70
0
43
0
10
-53.3318361599
20
-34.6215145356
10
-45.9799471599
20
-34.6215145356
10
-45.9799471599
20
-37.6201255356
10
-38.5292801599
20
-37.6201255356
0
LWPOLYLINE
5
171
100
AcDbEntity
8
0
6
ByLayer
62
256
370
-1
100
AcDbPolyline
90
2
70
0
43
0
10
-38.5292801599
20
-34.6215145356
10
-38.5292801599
20
-37.6201255356
0
LWPOLYLINE
5
172
100
AcDbEntity
8
0
6
ByLayer
62
256
370
-1
100
AcDbPolyline
90
4
70
0
43
0
10
-38.5292801599
20
-34.6215145356
10
-31.1773911599
20
-34.6215145356
10
-31.1773911599
20
-37.6201255356
10
-23.7231971599
20
-37.6201255356
0
LWPOLYLINE
5
173
100
AcDbEntity
8
0
6
ByLayer
62
256
370
-1
100
AcDbPolyline
90
2
70
0
43
0
10
-23.7231971599
20
-34.6215145356
10
-23.7231971599
20
-37.6201255356
0
LWPOLYLINE
5
174
100
AcDbEntity
8
0
6
ByLayer
62
256
370
-1
100
AcDbPolyline
90
4
70
0
43
0
10
-23.7231971599
20
-34.6215145356
10
-16.3713081599
20
-34.6215145356
10
-16.3713081599
20
-37.6201255356
10
-8.92064115991
20
-37.6201255356
0
LWPOLYLINE
5
175
100
AcDbEntity
8
0
6
ByLayer
62
256
370
-1
100
AcDbPolyline
90
2
70
0
43
0
10
-8.92064115991
20
-34.6215145356
10
-8.92064115991
20
-37.6201255356
0
LWPOLYLINE
5
176
100
AcDbEntity
8
0
6
ByLayer
62
256
370
-1
100
AcDbPolyline
90
4
70
0
43
0
10
-8.92064115991
20
-34.6215145356
10
-1.56875215991
20
-34.6215145356
10
-1.56875215991
20
-37.6201255356
10
5.88191384009
20
-37.6201255356
0
LWPOLYLINE
5
177
100
AcDbEntity
8
0
6
ByLayer
62
256
370
-1
100
AcDbPolyline
90
2
70
0
43
0
10
5.88191384009
20
-34.6215145356
10
5.88191384009
20
-37.6201255356
0
LWPOLYLINE
5
178
100
AcDbEntity
8
0
6
ByLayer
62
256
370
-1
100
AcDbPolyline
90
4
70
0
43
0
10
5.88191384009
20
-34.6215145356
10
13.2373308401
20
-34.6215145356
10
13.2373308401
20
-37.6201255356
10
20.6879978401
20
-37.6201255356
0
LWPOLYLINE
5
179
100
AcDbEntity
8
0
6
ByLayer
62
256
370
-1
100
AcDbPolyline
90
2
70
0
43
0
10
20.6879978401
20
-34.6215145356
10
20.6879978401
20
-37.6201255356
0
LWPOLYLINE
5
17A
100
AcDbEntity
8
0
6
ByLayer
62
256
370
-1
100
AcDbPolyline
90
4
70
0
43
0
10
20.6879978401
20
-34.6215145356
10
28.0398868401
20
-34.6215145356
10
28.0398868401
20
-37.6201255356
10
35.4905528401
20
-37.6201255356
0
LWPOLYLINE
5
17B
100
AcDbEntity
8
0
6
ByLayer
62
256
370
-1
100
AcDbPolyline
90
2
70
0
43
0
10
35.4905528401
20
-34.6215145356
10
35.4905528401
20
-37.6201255356
0
LWPOLYLINE
5
17C
100
AcDbEntity
8
0
6
ByLayer
62
256
370
-1
100
AcDbPolyline
90
2
70
0
43
0
10
35.4905528401
20
-34.6215145356
10
39.8685258401
20
-34.6215145356
0
LWPOLYLINE
5
17D
100
AcDbEntity
8
0
6
ByLayer
62
256
370
-1
100
AcDbPolyline
90
2
70
0
43
0
10
-139.18030816
20
29.4288184644
10
-134.80586316
20
29.4288184644
0
LWPOLYLINE
5
17E
100
AcDbEntity
8
0
6
ByLayer
62
256
370
-1
100
AcDbPolyline
90
2
70
0
43
0
10
-134.80586316
20
32.4309574644
10
-134.80586316
20
29.4288184644
0
LWPOLYLINE
5
17F
100
AcDbEntity
8
0
6
ByLayer
62
256
370
-1
100
AcDbPolyline
90
4
70
0
43
0
10
-134.80586316
20
32.4309574644
10
-127.35166916
20
32.4309574644
10
-127.35166916
20
29.4288184644
10
-119.99978016
20
29.4288184644
0
LWPOLYLINE
5
180
100
AcDbEntity
8
0
6
ByLayer
62
256
370
-1
100
AcDbPolyline
90
2
70
0
43
0
10
-119.99978016
20
32.4309574644
10
-119.99978016
20
29.4288184644
0
LWPOLYLINE
5
181
100
AcDbEntity
8
0
6
ByLayer
62
256
370
-1
100
AcDbPolyline
90
4
70
0
43
0
10
-119.99978016
20
32.4309574644
10
-112.54911316
20
32.4309574644
10
-112.54911316
20
29.4288184644
10
-105.19722416
20
29.4288184644
0
LWPOLYLINE
5
182
100
AcDbEntity
8
0
6
ByLayer
62
256
370
-1
100
AcDbPolyline
90
2
70
0
43
0
10
-105.19722416
20
32.4309574644
10
-105.19722416
20
29.4288184644
0
LWPOLYLINE
5
183
100
AcDbEntity
8
0
6
ByLayer
62
256
370
-1
100
AcDbPolyline
90
4
70
0
43
0
10
-105.19722416
20
32.4309574644
10
-97.7430301599
20
32.4309574644
10
-97.7430301599
20
29.4288184644
10
-90.3911411599
20
29.4288184644
0
LWPOLYLINE
5
184
100
AcDbEntity
8
0
6
ByLayer
62
256
370
-1
100
AcDbPolyline
90
2
70
0
43
0
10
-90.3911411599
20
32.4309574644
10
-90.3911411599
20
29.4288184644
0
LWPOLYLINE
5
185
100
AcDbEntity
8
0
6
ByLayer
62
256
370
-1
100
AcDbPolyline
90
4
70
0
43
0
10
-90.3911411599
20
32.4309574644
10
-82.9404741599
20
32.4309574644
10
-82.9404741599
20
29.4288184644
10
-75.5885861599
20
29.4288184644
0
LWPOLYLINE
5
186
100
AcDbEntity
8
0
6
ByLayer
62
256
370
-1
100
AcDbPolyline
90
2
70
0
43
0
10
-75.5885861599
20
32.4309574644
10
-75.5885861599
20
29.4288184644
0
LWPOLYLINE
5
187
100
AcDbEntity
8
0
6
ByLayer
62
256
370
-1
100
AcDbPolyline
90
4
70
0
43
0
10
-75.5885861599
20
32.4309574644
10
-68.1379191599
20
32.4309574644
10
-68.1379191599
20
29.4288184644
10
-60.7860301599
20
29.4288184644
0
LWPOLYLINE
5
188
100
AcDbEntity
8
0
6
ByLayer
62
256
370
-1
100
AcDbPolyline
90
2
70
0
43
0
10
-60.7860301599
20
32.4309574644
10
-60.7860301599
20
29.4288184644
0
LWPOLYLINE
5
189
100
AcDbEntity
8
0
6
ByLayer
62
256
370
-1
100
AcDbPolyline
90
4
70
0
43
0
10
-60.7860301599
20
32.4309574644
10
-53.3318361599
20
32.4309574644
10
-53.3318361599
20
29.4288184644
10
-45.9799471599
20
29.4288184644
0
LWPOLYLINE
5
18A
100
AcDbEntity
8
0
6
ByLayer
62
256
370
-1
100
AcDbPolyline
90
2
70
0
43
0
10
-45.9799471599
20
32.4309574644
10
-45.9799471599
20
29.4288184644
0
LWPOLYLINE
5
18B
100
AcDbEntity
8
0
6
ByLayer
62
256
370
-1
100
AcDbPolyline
90
4
70
0
43
0
10
-45.9799471599
20
32.4309574644
10
-38.5292801599
20
32.4309574644
10
-38.5292801599
20
29.4288184644
10
-31.1773911599
20
29.4288184644
0
LWPOLYLINE
5
18C
100
AcDbEntity
8
0
6
ByLayer
62
256
370
-1
100
AcDbPolyline
90
2
70
0
43
0
10
-31.1773911599
20
32.4309574644
10
-31.1773911599
20
29.4288184644
0
LWPOLYLINE
5
18D
100
AcDbEntity
8
0
6
ByLayer
62
256
370
-1
100
AcDbPolyline
90
4
70
0
43
0
10
-31.1773911599
20
32.4309574644
10
-23.7231971599
20
32.4309574644
10
-23.7231971599
20
29.4288184644
10
-16.3713081599
20
29.4288184644
0
LWPOLYLINE
5
18E
100
AcDbEntity
8
0
6
ByLayer
62
256
370
-1
100
AcDbPolyline
90
2
70
0
43
0
10
-16.3713081599
20
32.4309574644
10
-16.3713081599
20
29.4288184644
0
LWPOLYLINE
5
18F
100
AcDbEntity
8
0
6
ByLayer
62
256
370
-1
100
AcDbPolyline
90
4
70
0
43
0
10
-16.3713081599
20
32.4309574644
10
-8.92064115991
20
32.4309574644
10
-8.92064115991
20
29.4288184644
10
-1.56875215991
20
29.4288184644
0
LWPOLYLINE
5
190
100
AcDbEntity
8
0
6
ByLayer
62
256
370
-1
100
AcDbPolyline
90
2
70
0
43
0
10
-1.56875215991
20
32.4309574644
10
-1.56875215991
20
29.4288184644
0
LWPOLYLINE
5
191
100
AcDbEntity
8
0
6
ByLayer
62
256
370
-1
100
AcDbPolyline
90
4
70
0
43
0
10
-1.56875215991
20
32.4309574644
10
5.88191384009
20
32.4309574644
10
5.88191384009
20
29.4288184644
10
13.2373308401
20
29.4288184644
0
LWPOLYLINE
5
192
100
AcDbEntity
8
0
6
ByLayer
62
256
370
-1
100
AcDbPolyline
90
2
70
0
43
0
10
13.2373308401
20
32.4309574644
10
13.2373308401
20
29.4288184644
0
LWPOLYLINE
5
193
100
AcDbEntity
8
0
6
ByLayer
62
256
370
-1
100
AcDbPolyline
90
4
70
0
43
0
10
13.2373308401
20
32.4309574644
10
20.6879978401
20
32.4309574644
10
20.6879978401
20
29.4288184644
10
28.0398868401
20
29.4288184644
0
LWPOLYLINE
5
194
100
AcDbEntity
8
0
6
ByLayer
62
256
370
-1
100
AcDbPolyline
90
2
70
0
43
0
10
28.0398868401
20
32.4309574644
10
28.0398868401
20
29.4288184644
0
LWPOLYLINE
5
195
100
AcDbEntity
8
0
6
ByLayer
62
256
370
-1
100
AcDbPolyline
90
4
70
0
43
0
10
28.0398868401
20
32.4309574644
10
35.4905528401
20
32.4309574644
10
35.4905528401
20
29.4288184644
10
39.8685258401
20
29.4288184644
0
LWPOLYLINE
5
196
100
AcDbEntity
8
0
6
ByLayer
62
256
370
-1
100
AcDbPolyline
90
4
70
0
43
0
10
-139.18030816
20
-34.6215145356
10
-139.18030816
20
-29.8625425356
10
-142.18244716
20
-29.8625425356
10
-142.18244716
20
-22.0273475356
0
LWPOLYLINE
5
197
100
AcDbEntity
8
0
6
ByLayer
62
256
370
-1
100
AcDbPolyline
90
2
70
0
43
0
10
-139.18030816
20
-22.0273475356
10
-142.18244716
20
-22.0273475356
0
LWPOLYLINE
5
198
100
AcDbEntity
8
0
6
ByLayer
62
256
370
-1
100
AcDbPolyline
90
4
70
0
43
0
10
-139.18030816
20
-22.0273475356
10
-139.18030816
20
-14.2944595356
10
-142.18244716
20
-14.2944595356
10
-142.18244716
20
-6.46279253564
0
LWPOLYLINE
5
199
100
AcDbEntity
8
0
6
ByLayer
62
256
370
-1
100
AcDbPolyline
90
2
70
0
43
0
10
-139.18030816
20
-6.46279253564
10
-142.18244716
20
-6.46279253564
0
LWPOLYLINE
5
19A
100
AcDbEntity
8
0
6
ByLayer
62
256
370
-1
100
AcDbPolyline
90
4
70
0
43
0
10
-139.18030816
20
-6.46279253564
10
-139.18030816
20
1.27009646436
10
-142.18244716
20
1.27009646436
10
-142.18244716
20
9.10529046436
0
LWPOLYLINE
5
19B
100
AcDbEntity
8
0
6
ByLayer
62
256
370
-1
100
AcDbPolyline
90
2
70
0
43
0
10
-139.18030816
20
9.10529046436
10
-142.18244716
20
9.10529046436
0
LWPOLYLINE
5
19C
100
AcDbEntity
8
0
6
ByLayer
62
256
370
-1
100
AcDbPolyline
90
4
70
0
43
0
10
-139.18030816
20
9.10529046436
10
-139.18030816
20
16.8381794644
10
-142.18244716
20
16.8381794644
10
-142.18244716
20
24.6698464644
0
LWPOLYLINE
5
19D
100
AcDbEntity
8
0
6
ByLayer
62
256
370
-1
100
AcDbPolyline
90
2
70
0
43
0
10
-139.18030816
20
24.6698464644
10
-142.18244716
20
24.6698464644
0
LWPOLYLINE
5
19E
100
AcDbEntity
8
0
6
ByLayer
62
256
370
-1
100
AcDbPolyline
90
2
70
0
43
0
10
-139.18030816
20
24.6698464644
10
-139.18030816
20
29.4288184644
0
LWPOLYLINE
5
19F
100
AcDbEntity
8
0
6
ByLayer
62
256
370
-1
100
AcDbPolyline
90
2
70
0
43
0
10
39.8685258401
20
-34.6215145356
10
39.8685258401
20
-29.8625425356
0
LWPOLYLINE
5
1A0
100
AcDbEntity
8
0
6
ByLayer
62
256
370
-1
100
AcDbPolyline
90
2
70
0
43
0
10
42.8671368401
20
-29.8625425356
10
39.8685258401
20
-29.8625425356
0
LWPOLYLINE
5
1A1
100
AcDbEntity
8
0
6
ByLayer
62
256
370
-1
100
AcDbPolyline
90
4
70
0
43
0
10
42.8671368401
20
-29.8625425356
10
42.8671368401
20
-22.0273475356
10
39.8685258401
20
-22.0273475356
10
39.8685258401
20
-14.2944595356
0
LWPOLYLINE
5
1A2
100
AcDbEntity
8
0
6
ByLayer
62
256
370
-1
100
AcDbPolyline
90
2
70
0
43
0
10
42.8671368401
20
-14.2944595356
10
39.8685258401
20
-14.2944595356
0
LWPOLYLINE
5
1A3
100
AcDbEntity
8
0
6
ByLayer
62
256
370
-1
100
AcDbPolyline
90
4
70
0
43
0
10
42.8671368401
20
-14.2944595356
10
42.8671368401
20
-6.46279253564
10
39.8685258401
20
-6.46279253564
10
39.8685258401
20
1.27009646436
0
LWPOLYLINE
5
1A4
100
AcDbEntity
8
0
6
ByLayer
62
256
370
-1
100
AcDbPolyline
90
2
70
0
43
0
10
42.8671368401
20
1.27009646436
10
39.8685258401
20
1.27009646436
0
LWPOLYLINE
5
1A5
100
AcDbEntity
8
0
6
ByLayer
62
256
370
-1
100
AcDbPolyline
90
4
70
0
43
0
10
42.8671368401
20
1.27009646436
10
42.8671368401
20
9.10529046436
10
39.8685258401
20
9.10529046436
10
39.8685258401
20
16.8381794644
0
LWPOLYLINE
5
1A6
100
AcDbEntity
8
0
6
ByLayer
62
256
370
-1
100
AcDbPolyline
90
2
70
0
43
0
10
42.8671368401
20
16.8381794644
10
39.8685258401
20
16.8381794644
0
LWPOLYLINE
5
1A7
100
AcDbEntity
8
0
6
ByLayer
62
256
370
-1
100
AcDbPolyline
90
4
70
0
43
0
10
42.8671368401
20
16.8381794644
10
42.8671368401
20
24.6698464644
10
39.8685258401
20
24.6698464644
10
39.8685258401
20
29.4288184644
0
ENDBLK
5
54
330
52
100
AcDbEntity
8
0
100
AcDbBlockEnd
0
BLOCK
5
56
330
55
100
AcDbEntity
8
0
100
AcDbBlockBegin
2
boden
70
0
10
0
20
0
3
boden
1

0
LWPOLYLINE
5
1A8
100
AcDbEntity
8
0
6
ByLayer
62
256
370
-1
100
AcDbPolyline
90
2
70
0
43
0
10
0
20
-140.04925
10
7.4295
20
-140.04925
0
LWPOLYLINE
5
1A9
100
AcDbEntity
8
0
6
ByLayer
62
256
370
-1
100
AcDbPolyline
90
2
70
0
43
0
10
7.4295
20
-137.050639
10
7.4295
20
-140.04925
0
LWPOLYLINE
5
1AA
100
AcDbEntity
8
0
6
ByLayer
62
256
370
-1
100
AcDbPolyline
90
4
70
0
43
0
10
7.4295
20
-137.050639
10
14.781389
20
-137.050639
10
14.781389
20
-140.04925
10
22.232056
20
-140.04925
0
LWPOLYLINE
5
1AB
100
AcDbEntity
8
0
6
ByLayer
62
256
370
-1
100
AcDbPolyline
90
2
70
0
43
0
10
22.232056
20
-137.050639
10
22.232056
20
-140.04925
0
LWPOLYLINE
5
1AC
100
AcDbEntity
8
0
6
ByLayer
62
256
370
-1
100
AcDbPolyline
90
4
70
0
43
0
10
22.232056
20
-137.050639
10
29.583945
20
-137.050639
10
29.583945
20
-140.04925
10
37.034611
20
-140.04925
0
LWPOLYLINE
5
1AD
100
AcDbEntity
8
0
6
ByLayer
62
256
370
-1
100
AcDbPolyline
90
2
70
0
43
0
10
37.034611
20
-137.050639
10
37.034611
20
-140.04925
0
LWPOLYLINE
5
1AE
100
AcDbEntity
8
0
6
ByLayer
62
256
370
-1
100
AcDbPolyline
90
4
70
0
43
0
10
37.034611
20
-137.050639
10
44.3865
20
-137.050639
10
44.3865
20
-140.04925
10
51.840695
20
-140.04925
0
LWPOLYLINE
5
1AF
100
AcDbEntity
8
0
6
ByLayer
62
256
370
-1
100
AcDbPolyline
90
2
70
0
43
0
10
51.840695
20
-137.050639
10
51.840695
20
-140.04925
0
LWPOLYLINE
5
1B0
100
AcDbEntity
8
0
6
ByLayer
62
256
370
-1
100
AcDbPolyline
90
4
70
0
43
0
10
51.840695
20
-137.050639
10
59.192584
20
-137.050639
10
59.192584
20
-140.04925
10
66.64325
20
-140.04925
0
LWPOLYLINE
5
1B1
100
AcDbEntity
8
0
6
ByLayer
62
256
370
-1
100
AcDbPolyline
90
2
70
0
43
0
10
66.64325
20
-137.050639
10
66.64325
20
-140.04925
0
LWPOLYLINE
5
1B2
100
AcDbEntity
8
0
6
ByLayer
62
256
370
-1
100
AcDbPolyline
90
4
70
0
43
0
10
66.64325
20
-137.050639
10
73.995139
20
-137.050639
10
73.995139
20
-140.04925
10
81.449334
20
-140.04925
0
LWPOLYLINE
5
1B3
100
AcDbEntity
8
0
6
ByLayer
62
256
370
-1
100
AcDbPolyline
90
2
70
0
43
0
10
81.449334
20
-137.050639
10
81.449334
20
-140.04925
0
LWPOLYLINE
5
1B4
100
AcDbEntity
8
0
6
ByLayer
62
256
370
-1
100
AcDbPolyline
90
4
70
0
43
0
10
81.449334
20
-137.050639
10
88.801223
20
-137.050639
10
88.801223
20
-140.04925
10
96.251889
20
-140.04925
0
LWPOLYLINE
5
1B5
100
AcDbEntity
8
0
6
ByLayer
62
256
370
-1
100
AcDbPolyline
90
2
70
0
43
0
10
96.251889
20
-137.050639
10
96.251889
20
-140.04925
0
LWPOLYLINE
5
1B6
100
AcDbEntity
8
0
6
ByLayer
62
256
370
-1
100
AcDbPolyline
90
4
70
0
43
0
10
96.251889
20
-137.050639
10
103.603778
20
-137.050639
10
103.603778
20
-140.04925
10
111.054445
20
-140.04925
0
LWPOLYLINE
5
1B7
100
AcDbEntity
8
0
6
ByLayer
62
256
370
-1
100
AcDbPolyline
90
2
70
0
43
0
10
111.054445
20
-137.050639
10
111.054445
20
-140.04925
0
LWPOLYLINE
5
1B8
100
AcDbEntity
8
0
6
ByLayer
62
256
370
-1
100
AcDbPolyline
90
4
70
0
43
0
10
111.054445
20
-137.050639
10
118.406334
20
-137.050639
10
118.406334
20
-140.04925
10
125.860528
20
-140.04925
0
LWPOLYLINE
5
1B9
100
AcDbEntity
8
0
6
ByLayer
62
256
370
-1
100
AcDbPolyline
90
2
70
0
43
0
10
125.860528
20
-137.050639
10
125.860528
20
-140.04925
0
LWPOLYLINE
5
1BA
100
AcDbEntity
8
0
6
ByLayer
62
256
370
-1
100
AcDbPolyline
90
4
70
0
43
0
10
125.860528
20
-137.050639
10
133.212417
20
-137.050639
10
133.212417
20
-140.04925
10
140.663084
20
-140.04925
0
LWPOLYLINE
5
1BB
100
AcDbEntity
8
0
6
ByLayer
62
256
370
-1
100
AcDbPolyline
90
2
70
0
43
0
10
140.663084
20
-137.050639
10
140.663084
20
-140.04925
0
LWPOLYLINE
5
1BC
100
AcDbEntity
8
0
6
ByLayer
62
256
370
-1
100
AcDbPolyline
90
4
70
0
43
0
10
140.663084
20
-137.050639
10
148.014973
20
-137.050639
10
148.014973
20
-140.04925
10
155.469167
20
-140.04925
0
LWPOLYLINE
5
1BD
100
AcDbEntity
8
0
6
ByLayer
62
256
370
-1
100
AcDbPolyline
90
2
70
0
43
0
10
155.469167
20
-137.050639
10
155.469167
20
-140.04925
0
LWPOLYLINE
5
1BE
100
AcDbEntity
8
0
6
ByLayer
62
256
370
-1
100
AcDbPolyline
90
4
70
0
43
0
10
155.469167
20
-137.050639
10
162.821056
20
-137.050639
10
162.821056
20
-140.04925
10
170.271723
20
-140.04925
0
LWPOLYLINE
5
1BF
100
AcDbEntity
8
0
6
ByLayer
62
256
370
-1
100
AcDbPolyline
90
2
70
0
43
0
10
170.271723
20
-137.050639
10
170.271723
20
-140.04925
0
LWPOLYLINE
5
1C0
100
AcDbEntity
8
0
6
ByLayer
62
256
370
-1
100
AcDbPolyline
90
4
70
0
43
0
10
170.271723
20
-137.050639
10
177.623611
20
-137.050639
10
177.623611
20
-140.04925
10
182.050973
20
-140.04925
0
LWPOLYLINE
5
1C1
100
AcDbEntity
8
0
6
ByLayer
62
256
370
-1
100
AcDbPolyline
90
4
70
0
43
0
10
0
20
0
10
7.4295
20
0
10
7.4295
20
-2.998611
10
14.781389
20
-2.998611
0
LWPOLYLINE
5
1C2
100
AcDbEntity
8
0
6
ByLayer
62
256
370
-1
100
AcDbPolyline
90
2
70
0
43
0
10
14.781389
20
0
10
14.781389
20
-2.998611
0
LWPOLYLINE
5
1C3
100
AcDbEntity
8
0
6
ByLayer
62
256
370
-1
100
AcDbPolyline
90
4
70
0
43
0
10
14.781389
20
0
10
22.232056
20
0
10
22.232056
20
-2.998611
10
29.583945
20
-2.998611
0
LWPOLYLINE
5
1C4
100
AcDbEntity
8
0
6
ByLayer
62
256
370
-1
100
AcDbPolyline
90
2
70
0
43
0
10
29.583945
20
0
10
29.583945
20
-2.998611
0
LWPOLYLINE
5
1C5
100
AcDbEntity
8
0
6
ByLayer
62
256
370
-1
100
AcDbPolyline
90
4
70
0
43
0
10
29.583945
20
0
10
37.034611
20
0
10
37.034611
20
-2.998611
10
44.3865
20
-2.998611
0
LWPOLYLINE
5
1C6
100
AcDbEntity
8
0
6
ByLayer
62
256
370
-1
100
AcDbPolyline
90
2
70
0
43
0
10
44.3865
20
0
10
44.3865
20
-2.998611
0
LWPOLYLINE
5
1C7
100
AcDbEntity
8
0
6
ByLayer
62
256
370
-1
100
AcDbPolyline
90
4
70
0
43
0
10
44.3865
20
0
10
51.840695
20
0
10
51.840695
20
-2.998611
10
59.192584
20
-2.998611
0
LWPOLYLINE
5
1C8
100
AcDbEntity
8
0
6
ByLayer
62
256
370
-1
100
AcDbPolyline
90
2
70
0
43
0
10
59.192584
20
0
10
59.192584
20
-2.998611
0
LWPOLYLINE
5
1C9
100
AcDbEntity
8
0
6
ByLayer
62
256
370
-1
100
AcDbPolyline
90
4
70
0
43
0
10
59.192584
20
0
10
66.64325
20
0
10
66.64325
20
-2.998611
10
73.995139
20
-2.998611
0
LWPOLYLINE
5
1CA
100
AcDbEntity
8
0
6
ByLayer
62
256
370
-1
100
AcDbPolyline
90
2
70
0
43
0
10
73.995139
20
0
10
73.995139
20
-2.998611
0
LWPOLYLINE
5
1CB
100
AcDbEntity
8
0
6
ByLayer
62
256
370
-1
100
AcDbPolyline
90
4
70
0
43
0
10
73.995139
20
0
10
81.449334
20
0
10
81.449334
20
-2.998611
10
88.801223
20
-2.998611
0
LWPOLYLINE
5
1CC
100
AcDbEntity
8
0
6
ByLayer
62
256
370
-1
100
AcDbPolyline
90
2
70
0
43
0
10
88.801223
20
0
10
88.801223
20
-2.998611
0
LWPOLYLINE
5
1CD
100
AcDbEntity
8
0
6
ByLayer
62
256
370
-1
100
AcDbPolyline
90
4
70
0
43
0
10
88.801223
20
0
10
96.251889
20
0
10
96.251889
20
-2.998611
10
103.603778
20
-2.998611
0
LWPOLYLINE
5
1CE
100
AcDbEntity
8
0
6
ByLayer
62
256
370
-1
100
AcDbPolyline
90
2
70
0
43
0
10
103.603778
20
0
10
103.603778
20
-2.998611
0
LWPOLYLINE
5
1CF
100
AcDbEntity
8
0
6
ByLayer
62
256
370
-1
100
AcDbPolyline
90
4
70
0
43
0
10
103.603778
20
0
10
111.054445
20
0
10
111.054445
20
-2.998611
10
118.406334
20
-2.998611
0
LWPOLYLINE
5
1D0
100
AcDbEntity
8
0
6
ByLayer
62
256
370
-1
100
AcDbPolyline
90
2
70
0
43
0
10
118.406334
20
0
10
118.406334
20
-2.998611
0
LWPOLYLINE
5
1D1
100
AcDbEntity
8
0
6
ByLayer
62
256
370
-1
100
AcDbPolyline
90
4
70
0
43
0
10
118.406334
20
0
10
125.860528
20
0
10
125.860528
20
-2.998611
10
133.212417
20
-2.998611
0
LWPOLYLINE
5
1D2
100
AcDbEntity
8
0
6
ByLayer
62
256
370
-1
100
AcDbPolyline
90
2
70
0
43
0
10
133.212417
20
0
10
133.212417
20
-2.998611
0
LWPOLYLINE
5
1D3
100
AcDbEntity
8
0
6
ByLayer
62
256
370
-1
100
AcDbPolyline
90
4
70
0
43
0
10
133.212417
20
0
10
140.663084
20
0
10
140.663084
20
-2.998611
10
148.014973
20
-2.998611
0
LWPOLYLINE
5
1D4
100
AcDbEntity
8
0
6
ByLayer
62
256
370
-1
100
AcDbPolyline
90
2
70
0
43
0
10
148.014973
20
0
10
148.014973
20
-2.998611
0
LWPOLYLINE
5
1D5
100
AcDbEntity
8
0
6
ByLayer
62
256
370
-1
100
AcDbPolyline
90
4
70
0
43
0
10
148.014973
20
0
10
155.469167
20
0
10
155.469167
20
-2.998611
10
162.821056
20
-2.998611
0
LWPOLYLINE
5
1D6
100
AcDbEntity
8
0
6
ByLayer
62
256
370
-1
100
AcDbPolyline
90
2
70
0
43
0
10
162.821056
20
0
10
162.821056
20
-2.998611
0
LWPOLYLINE
5
1D7
100
AcDbEntity
8
0
6
ByLayer
62
256
370
-1
100
AcDbPolyline
90
4
70
0
43
0
10
162.821056
20
0
10
170.271723
20
0
10
170.271723
20
-2.998611
10
177.623611
20
-2.998611
0
LWPOLYLINE
5
1D8
100
AcDbEntity
8
0
6
ByLayer
62
256
370
-1
100
AcDbPolyline
90
2
70
0
43
0
10
177.623611
20
0
10
177.623611
20
-2.998611
0
LWPOLYLINE
5
1D9
100
AcDbEntity
8
0
6
ByLayer
62
256
370
-1
100
AcDbPolyline
90
2
70
0
43
0
10
177.623611
20
0
10
182.050973
20
0
0
LWPOLYLINE
5
1DA
100
AcDbEntity
8
0
6
ByLayer
62
256
370
-1
100
AcDbPolyline
90
2
70
0
43
0
10
0
20
-140.04925
10
0
20
-132.655028
0
LWPOLYLINE
5
1DB
100
AcDbEntity
8
0
6
ByLayer
62
256
370
-1
100
AcDbPolyline
90
2
70
0
43
0
10
3.002139
20
-132.655028
10
0
20
-132.655028
0
LWPOLYLINE
5
1DC
100
AcDbEntity
8
0
6
ByLayer
62
256
370
-1
100
AcDbPolyline
90
4
70
0
43
0
10
3.002139
20
-132.655028
10
3.002139
20
-125.331361
10
0
20
-125.331361
10
0
20
-117.912445
0
LWPOLYLINE
5
1DD
100
AcDbEntity
8
0
6
ByLayer
62
256
370
-1
100
AcDbPolyline
90
2
70
0
43
0
10
3.002139
20
-117.912445
10
0
20
-117.912445
0
LWPOLYLINE
5
1DE
100
AcDbEntity
8
0
6
ByLayer
62
256
370
-1
100
AcDbPolyline
90
4
70
0
43
0
10
3.002139
20
-117.912445
10
3.002139
20
-110.592306
10
0
20
-110.592306
10
0
20
-103.169861
0
LWPOLYLINE
5
1DF
100
AcDbEntity
8
0
6
ByLayer
62
256
370
-1
100
AcDbPolyline
90
2
70
0
43
0
10
3.002139
20
-103.169861
10
0
20
-103.169861
0
LWPOLYLINE
5
1E0
100
AcDbEntity
8
0
6
ByLayer
62
256
370
-1
100
AcDbPolyline
90
4
70
0
43
0
10
3.002139
20
-103.169861
10
3.002139
20
-95.849722
10
0
20
-95.849722
10
0
20
-88.427278
0
LWPOLYLINE
5
1E1
100
AcDbEntity
8
0
6
ByLayer
62
256
370
-1
100
AcDbPolyline
90
2
70
0
43
0
10
3.002139
20
-88.427278
10
0
20
-88.427278
0
LWPOLYLINE
5
1E2
100
AcDbEntity
8
0
6
ByLayer
62
256
370
-1
100
AcDbPolyline
90
4
70
0
43
0
10
3.002139
20
-88.427278
10
3.002139
20
-81.107139
10
0
20
-81.107139
10
0
20
-73.684695
0
LWPOLYLINE
5
1E3
100
AcDbEntity
8
0
6
ByLayer
62
256
370
-1
100
AcDbPolyline
90
2
70
0
43
0
10
3.002139
20
-73.684695
10
0
20
-73.684695
0
LWPOLYLINE
5
1E4
100
AcDbEntity
8
0
6
ByLayer
62
256
370
-1
100
AcDbPolyline
90
4
70
0
43
0
10
3.002139
20
-73.684695
10
3.002139
20
-66.364556
10
0
20
-66.364556
10
0
20
-58.942111
0
LWPOLYLINE
5
1E5
100
AcDbEntity
8
0
6
ByLayer
62
256
370
-1
100
AcDbPolyline
90
2
70
0
43
0
10
3.002139
20
-58.942111
10
0
20
-58.942111
0
LWPOLYLINE
5
1E6
100
AcDbEntity
8
0
6
ByLayer
62
256
370
-1
100
AcDbPolyline
90
4
70
0
43
0
10
3.002139
20
-58.942111
10
3.002139
20
-51.621972
10
0
20
-51.621972
10
0
20
-44.199528
0
LWPOLYLINE
5
1E7
100
AcDbEntity
8
0
6
ByLayer
62
256
370
-1
100
AcDbPolyline
90
2
70
0
43
0
10
3.002139
20
-44.199528
10
0
20
-44.199528
0
LWPOLYLINE
5
1E8
100
AcDbEntity
8
0
6
ByLayer
62
256
370
-1
100
AcDbPolyline
90
4
70
0
43
0
10
3.002139
20
-44.199528
10
3.002139
20
-36.879389
10
0
20
-36.879389
10
0
20
-29.460472
0
LWPOLYLINE
5
1E9
100
AcDbEntity
8
0
6
ByLayer
62
256
370
-1
100
AcDbPolyline
90
2
70
0
43
0
10
3.002139
20
-29.460472
10
0
20
-29.460472
0
LWPOLYLINE
5
1EA
100
AcDbEntity
8
0
6
ByLayer
62
256
370
-1
100
AcDbPolyline
90
4
70
0
43
0
10
3.002139
20
-29.460472
10
3.002139
20
-22.136806
10
0
20
-22.136806
10
0
20
-14.717889
0
LWPOLYLINE
5
1EB
100
AcDbEntity
8
0
6
ByLayer
62
256
370
-1
100
AcDbPolyline
90
2
70
0
43
0
10
3.002139
20
-14.717889
10
0
20
-14.717889
0
LWPOLYLINE
5
1EC
100
AcDbEntity
8
0
6
ByLayer
62
256
370
-1
100
AcDbPolyline
90
4
70
0
43
0
10
3.002139
20
-14.717889
10
3.002139
20
-7.394222
10
0
20
-7.394222
10
0
20
0
0
LWPOLYLINE
5
1ED
100
AcDbEntity
8
0
6
ByLayer
62
256
370
-1
100
AcDbPolyline
90
2
70
0
43
0
10
182.050973
20
-140.04925
10
182.050973
20
-132.704417
0
LWPOLYLINE
5
1EE
100
AcDbEntity
8
0
6
ByLayer
62
256
370
-1
100
AcDbPolyline
90
2
70
0
43
0
10
185.049584
20
-132.704417
10
182.050973
20
-132.704417
0
LWPOLYLINE
5
1EF
100
AcDbEntity
8
0
6
ByLayer
62
256
370
-1
100
AcDbPolyline
90
4
70
0
43
0
10
185.049584
20
-132.704417
10
185.049584
20
-125.281972
10
182.050973
20
-125.281972
10
182.050973
20
-117.961833
0
LWPOLYLINE
5
1F0
100
AcDbEntity
8
0
6
ByLayer
62
256
370
-1
100
AcDbPolyline
90
2
70
0
43
0
10
185.049584
20
-117.961833
10
182.050973
20
-117.961833
0
LWPOLYLINE
5
1F1
100
AcDbEntity
8
0
6
ByLayer
62
256
370
-1
100
AcDbPolyline
90
4
70
0
43
0
10
185.049584
20
-117.961833
10
185.049584
20
-110.539389
10
182.050973
20
-110.539389
10
182.050973
20
-103.21925
0
LWPOLYLINE
5
1F2
100
AcDbEntity
8
0
6
ByLayer
62
256
370
-1
100
AcDbPolyline
90
2
70
0
43
0
10
185.049584
20
-103.21925
10
182.050973
20
-103.21925
0
LWPOLYLINE
5
1F3
100
AcDbEntity
8
0
6
ByLayer
62
256
370
-1
100
AcDbPolyline
90
4
70
0
43
0
10
185.049584
20
-103.21925
10
185.049584
20
-95.800333
10
182.050973
20
-95.800333
10
182.050973
20
-88.476667
0
LWPOLYLINE
5
1F4
100
AcDbEntity
8
0
6
ByLayer
62
256
370
-1
100
AcDbPolyline
90
2
70
0
43
0
10
185.049584
20
-88.476667
10
182.050973
20
-88.476667
0
LWPOLYLINE
5
1F5
100
AcDbEntity
8
0
6
ByLayer
62
256
370
-1
100
AcDbPolyline
90
4
70
0
43
0
10
185.049584
20
-88.476667
10
185.049584
20
-81.05775
10
182.050973
20
-81.05775
10
182.050973
20
-73.734083
0
LWPOLYLINE
5
1F6
100
AcDbEntity
8
0
6
ByLayer
62
256
370
-1
100
AcDbPolyline
90
2
70
0
43
0
10
185.049584
20
-73.734083
10
182.050973
20
-73.734083
0
LWPOLYLINE
5
1F7
100
AcDbEntity
8
0
6
ByLayer
62
256
370
-1
100
AcDbPolyline
90
4
70
0
43
0
10
185.049584
20
-73.734083
10
185.049584
20
-66.315167
10
182.050973
20
-66.315167
10
182.050973
20
-58.995028
0
LWPOLYLINE
5
1F8
100
AcDbEntity
8
0
6
ByLayer
62
256
370
-1
100
AcDbPolyline
90
2
70
0
43
0
10
185.049584
20
-58.995028
10
182.050973
20
-58.995028
0
LWPOLYLINE
5
1F9
100
AcDbEntity
8
0
6
ByLayer
62
256
370
-1
100
AcDbPolyline
90
4
70
0
43
0
10
185.049584
20
-58.995028
10
185.049584
20
-51.572583
10
182.050973
20
-51.572583
10
182.050973
20
-44.252445
0
LWPOLYLINE
5
1FA
100
AcDbEntity
8
0
6
ByLayer
62
256
370
-1
100
AcDbPolyline
90
2
70
0
43
0
10
185.049584
20
-44.252445
10
182.050973
20
-44.252445
0
LWPOLYLINE
5
1FB
100
AcDbEntity
8
0
6
ByLayer
62
256
370
-1
100
AcDbPolyline
90
4
70
0
43
0
10
185.049584
20
-44.252445
10
185.049584
20
-36.83
10
182.050973
20
-36.83
10
182.050973
20
-29.509861
0
LWPOLYLINE
5
1FC
100
AcDbEntity
8
0
6
ByLayer
62
256
370
-1
100
AcDbPolyline
90
2
70
0
43
0
10
185.049584
20
-29.509861
10
182.050973
20
-29.509861
0
LWPOLYLINE
5
1FD
100
AcDbEntity
8
0
6
ByLayer
62
256
370
-1
100
AcDbPolyline
90
4
70
0
43
0
10
185.049584
20
-29.509861
10
185.049584
20
-22.087417
10
182.050973
20
-22.087417
10
182.050973
20
-14.767278
0
LWPOLYLINE
5
1FE
100
AcDbEntity
8
0
6
ByLayer
62
256
370
-1
100
AcDbPolyline
90
2
70
0
43
0
10
185.049584
20
-14.767278
10
182.050973
20
-14.767278
0
LWPOLYLINE
5
1FF
100
AcDbEntity
8
0
6
ByLayer
62
256
370
-1
100
AcDbPolyline
90
4
70
0
43
0
10
185.049584
20
-14.767278
10
185.049584
20
-7.344833
10
182.050973
20
-7.344833
10
182.050973
20
0
0
ENDBLK
5
57
330
55
100
AcDbEntity
8
0
100
AcDbBlockEnd
0
ENDSEC
0
SECTION
2
ENTITIES
0
CIRCLE
5
200
100
AcDbEntity
8
0
6
ByLayer
62
256
370
-1
100
AcDbCircle
10
10
20
10
40
4
0
CIRCLE
5
201
100
AcDbEntity
8
0
6
ByLayer
62
256
370
-1
100
AcDbCircle
10
25
20
10
40
4
0
CIRCLE
5
202
100
AcDbEntity
8
0
6
ByLayer
62
256
370
-1
100
AcDbCircle
10
40
20
10
40
4
0
CIRCLE
5
203
100
AcDbEntity
8
0
6
ByLayer
62
256
370
-1
100
AcDbCircle
10
55
20
10
40
4
0
CIRCLE
5
204
100
AcDbEntity
8
0
6
ByLayer
62
256
370
-1
100
AcDbCircle
10
70
20
10
40
4
0
CIRCLE
5
205
100
AcDbEntity
8
0
6
ByLayer
62
256
370
-1
100
AcDbCircle
10
85
20
10
40
4
0
CIRCLE
5
206
100
AcDbEntity
8
0
6
ByLayer
62
256
370
-1
100
AcDbCircle
10
100
20
10
40
4
0
CIRCLE
5
207
100
AcDbEntity
8
0
6
ByLayer
62
256
370
-1
100
AcDbCircle
10
115
20
10
40
4
0
CIRCLE
5
208
100
AcDbEntity
8
0
6
ByLayer
62
256
370
-1
100
AcDbCircle
10
10
20
25
40
4
0
CIRCLE
5
209
100
AcDbEntity
8
0
6
ByLayer
62
256
370
-1
100
AcDbCircle
10
25
20
25
40
4
0
CIRCLE
5
20A
100
AcDbEntity
8
0
6
ByLayer
62
256
370
-1
100
AcDbCircle
10
40
20
25
40
4
0
CIRCLE
5
20B
100
AcDbEntity
8
0
6
ByLayer
62
256
370
-1
100
AcDbCircle
10
55
20
25
40
4
0
CIRCLE
5
20C
100
AcDbEntity
8
0
6
ByLayer
62
256
370
-1
100
AcDbCircle
10
70
20
25
40
4
0
CIRCLE
5
20D
100
AcDbEntity
8
0
6
ByLayer
62
256
370
-1
100
AcDbCircle
10
85
20
25
40
4
0
CIRCLE
5
20E
100
AcDbEntity
8
0
6
ByLayer
62
256
370
-1
100
AcDbCircle
10
100
20
25
40
4
0
CIRCLE
5
20F
100
AcDbEntity
8
0
6
ByLayer
62
256
370
-1
100
AcDbCircle
10
115
20
25
40
4
0
CIRCLE
5
210
100
AcDbEntity
8
0
6
ByLayer
62
256
370
-1
100
AcDbCircle
10
10
20
40
40
4
0
CIRCLE
5
211
100
AcDbEntity
8
0
6
ByLayer
62
256
370
-1
100
AcDbCircle
10
25
20
40
40
4
0
CIRCLE
5
212
100
AcDbEntity
8
0
6
ByLayer
62
256
370
-1
100
AcDbCircle
10
40
20
40
40
4
0
CIRCLE
5
213
100
AcDbEntity
8
0
6
ByLayer
62
256
370
-1
100
AcDbCircle
10
55
20
40
40
4
0
CIRCLE
5
214
100
AcDbEntity
8
0
6
ByLayer
62
256
370
-1
100
AcDbCircle
10
70
20
40
40
4
0
CIRCLE
5
215
100
AcDbEntity
8
0
6
ByLayer
62
256
370
-1
100
AcDbCircle
10
85
20
40
40
4
0
CIRCLE
5
216
100
AcDbEntity
8
0
6
ByLayer
62
256
370
-1
100
AcDbCircle
10
100
20
40
40
4
0
CIRCLE
5
217
100
AcDbEntity
8
0
6
ByLayer
62
256
370
-1
100
AcDbCircle
10
115
20
40
40
4
0
CIRCLE
5
218
100
AcDbEntity
8
0
6
ByLayer
62
256
370
-1
100
AcDbCircle
10
10
20
55
40
4
0
CIRCLE
5
219
100
AcDbEntity
8
0
6
ByLayer
62
256
370
-1
100
AcDbCircle
10
25
20
55
40
4
0
CIRCLE
5
21A
100
AcDbEntity
8
0
6
ByLayer
62
256
370
-1
100
AcDbCircle
10
40
20
55
40
4
0
CIRCLE
5
21B
100
AcDbEntity
8
0
6
ByLayer
62
256
370
-1
100
AcDbCircle
10
55
20
55
40
4
0
CIRCLE
5
21C
100
AcDbEntity
8
0
6
ByLayer
62
256
370
-1
100
AcDbCircle
10
70
20
55
40
4
0
CIRCLE
5
21D
100
AcDbEntity
8
0
6
ByLayer
62
256
370
-1
100
AcDbCircle
10
85
20
55
40
4
0
CIRCLE
5
21E
100
AcDbEntity
8
0
6
ByLayer
62
256
370
-1
100
AcDbCircle
10
100
20
55
40
4
0
CIRCLE
5
21F
100
AcDbEntity
8
0
6
ByLayer
62
256
370
-1
100
AcDbCircle
10
115
20
55
40
4
0
CIRCLE
5
220
100
AcDbEntity
8
0
6
ByLayer
62
256
370
-1
100
AcDbCircle
10
10
20
70
40
4
0
CIRCLE
5
221
100
AcDbEntity
8
0
6
ByLayer
62
256
370
-1
100
AcDbCircle
10
25
20
70
40
4
0
CIRCLE
5
222
100
AcDbEntity
8
0
6
ByLayer
62
256
370
-1
100
AcDbCircle
10
40
20
70
40
4
0
CIRCLE
5
223
100
AcDbEntity
8
0
6
ByLayer
62
256
370
-1
100
AcDbCircle
10
55
20
70
40
4
0
CIRCLE
5
224
100
AcDbEntity
8
0
6
ByLayer
62
256
370
-1
100
AcDbCircle
10
70
20
70
40
4
0
CIRCLE
5
225
100
AcDbEntity
8
0
6
ByLayer
62
256
370
-1
100
AcDbCircle
10
85
20
70
40
4
0
CIRCLE
5
226
100
AcDbEntity
8
0
6
ByLayer
62
256
370
-1
100
AcDbCircle
10
100
20
70
40
4
0
CIRCLE
5
227
100
AcDbEntity
8
0
6
ByLayer
62
256
370
-1
100
AcDbCircle
10
115
20
70
40
4
0
INSERT
5
228
100
AcDbEntity
8
0
6
ByLayer
62
256
370
-1
100
AcDbBlockReference
2
deckel
10
-30
20
110
30
0
41
1
42
1
43
0
50
0
70
1
71
1
44
0
45
0
0
INSERT
5
229
100
AcDbEntity
8
0
6
ByLayer
62
256
370
-1
100
AcDbBlockReference
2
boden
10
-30
20
-35
30
0
41
1
42
1
43
0
50
0
70
1
71
1
44
0
45
0
0
INSERT
5
22A
100
AcDbEntity
8
0
6
ByLayer
62
256
370
-1
100
AcDbBlockReference
2
seite4
10
308.660449146
20
-68.4855233853
30
0
41
1
42
1
43
0
50
0
70
1
71
1
44
0
45
0
0
INSERT
5
22B
100
AcDbEntity
8
0
6
ByLayer
62
256
370
-1
100
AcDbBlockReference
2
seite1
10
261.101057906
20
-147.909706756
30
0
41
1
42
1
43
0
50
0
70
1
71
1
44
0
45
0
0
INSERT
5
22C
100
AcDbEntity
8
0
6
ByLayer
62
256
370
-1
100
AcDbBlockReference
2
seite2
10
403.303637713
20
-111.764569413
30
0
41
1
42
1
43
0
50
0
70
1
71
1
44
0
45
0
0
CIRCLE
5
22D
100
AcDbEntity
8
0
6
ByLayer
62
256
370
-1
100
AcDbCircle
10
-10
20
-60
40
4
0
CIRCLE
5
22E
100
AcDbEntity
8
0
6
ByLayer
62
256
370
-1
100
AcDbCircle
10
-10
20
-105
40
4
0
CIRCLE
5
22F
100
AcDbEntity
8
0
6
ByLayer
62
256
370
-1
100
AcDbCircle
10
-10
20
-150
40
4
0
CIRCLE
5
230
100
AcDbEntity
8
0
6
ByLayer
62
256
370
-1
100
AcDbCircle
10
62.5
20
-60
40
4
0
CIRCLE
5
231
100
AcDbEntity
8
0
6
ByLayer
62
256
370
-1
100
AcDbCircle
10
62.5
20
-105
40
4
0
CIRCLE
5
232
100
AcDbEntity
8
0
6
ByLayer
62
256
370
-1
100
AcDbCircle
10
62.5
20
-150
40
4
0
CIRCLE
5
233
100
AcDbEntity
8
0
6
ByLayer
62
256
370
-1
100
AcDbCircle
10
135
20
-60
40
4
0
CIRCLE
5
234
100
AcDbEntity
8
0
6
ByLayer
62
256
370
-1
100
AcDbCircle
10
135
20
-105
40
4
0
CIRCLE
5
235
100
AcDbEntity
8
0
6
ByLayer
62
256
370
-1
100
AcDbCircle
10
135
20
-150
40
4
0
CIRCLE
5
236
100
AcDbEntity
8
0
6
ByLayer
62
256
370
-1
100
AcDbCircle
10
214
20
10
40
6
0
CIRCLE
5
237
100
AcDbEntity
8
0
6
ByLayer
62
256
370
-1
100
AcDbCircle
10
229
20
10
40
6
0
CIRCLE
5
238
100
AcDbEntity
8
0
6
ByLayer
62
256
370
-1
100
AcDbCircle
10
244
20
10
40
6
0
CIRCLE
5
239
100
AcDbEntity
8
0
6
ByLayer
62
256
370
-1
100
AcDbCircle
10
259
20
10
40
6
0
CIRCLE
5
23A
100
AcDbEntity
8
0
6
ByLayer
62
256
370
-1
100
AcDbCircle
10
274
20
10
40
6
0
CIRCLE
5
23B
100
AcDbEntity
8
0
6
ByLayer
62
256
370
-1
100
AcDbCircle
10
289
20
10
40
6
0
CIRCLE
5
23C
100
AcDbEntity
8
0
6
ByLayer
62
256
370
-1
100
AcDbCircle
10
304
20
10
40
6
0
CIRCLE
5
23D
100
AcDbEntity
8
0
6
ByLayer
62
256
370
-1
100
AcDbCircle
10
319
20
10
40
6
0
CIRCLE
5
23E
100
AcDbEntity
8
0
6
ByLayer
62
256
370
-1
100
AcDbCircle
10
214
20
25
40
6
0
CIRCLE
5
23F
100
AcDbEntity
8
0
6
ByLayer
62
256
370
-1
100
AcDbCircle
10
229
20
25
40
6
0
CIRCLE
5
240
100
AcDbEntity
8
0
6
ByLayer
62
256
370
-1
100
AcDbCircle
10
244
20
25
40
6
0
CIRCLE
5
241
100
AcDbEntity
8
0
6
ByLayer
62
256
370
-1
100
AcDbCircle
10
259
20
25
40
6
0
CIRCLE
5
242
100
AcDbEntity
8
0
6
ByLayer
62
256
370
-1
100
AcDbCircle
10
274
20
25
40
6
0
CIRCLE
5
243
100
AcDbEntity
8
0
6
ByLayer
62
256
370
-1
100
AcDbCircle
10
289
20
25
40
6
0
CIRCLE
5
244
100
AcDbEntity
8
0
6
ByLayer
62
256
370
-1
100
AcDbCircle
10
304
20
25
40
6
0
CIRCLE
5
245
100
AcDbEntity
8
0
6
ByLayer
62
256
370
-1
100
AcDbCircle
10
319
20
25
40
6
0
CIRCLE
5
246
100
AcDbEntity
8
0
6
ByLayer
62
256
370
-1
100
AcDbCircle
10
214
20
40
40
6
0
CIRCLE
5
247
100
AcDbEntity
8
0
6
ByLayer
62
256
370
-1
100
AcDbCircle
10
229
20
40
40
6
0
CIRCLE
5
248
100
AcDbEntity
8
0
6
ByLayer
62
256
370
-1
100
AcDbCircle
10
244
20
40
40
6
0
CIRCLE
5
249
100
AcDbEntity
8
0
6
ByLayer
62
256
370
-1
100
AcDbCircle
10
259
20
40
40
6
0
CIRCLE
5
24A
100
AcDbEntity
8
0
6
ByLayer
62
256
370
-1
100
AcDbCircle
10
274
20
40
40
6
0
CIRCLE
5
24B
100
AcDbEntity
8
0
6
ByLayer
62
256
370
-1
100
AcDbCircle
10
289
20
40
40
6
0
CIRCLE
5
24C
100
AcDbEntity
8
0
6
ByLayer
62
256
370
-1
100
AcDbCircle
10
304
20
40
40
6
0
CIRCLE
5
24D
100
AcDbEntity
8
0
6
ByLayer
62
256
370
-1
100
AcDbCircle
10
319
20
40
40
6
0
CIRCLE
5
24E
100
AcDbEntity
8
0
6
ByLayer
62
256
370
-1
100
AcDbCircle
10
214
20
55
40
6
0
CIRCLE
5
24F
100
AcDbEntity
8
0
6
ByLayer
62
256
370
-1
100
AcDbCircle
10
229
20
55
40
6
0
CIRCLE
5
250
100
AcDbEntity
8
0
6
ByLayer
62
256
370
-1
100
AcDbCircle
10
244
20
55
40
6
0
CIRCLE
5
251
100
AcDbEntity
8
0
6
ByLayer
62
256
370
-1
100
AcDbCircle
10
259
20
55
40
6
0
CIRCLE
5
252
100
AcDbEntity
8
0
6
ByLayer
62
256
370
-1
100
AcDbCircle
10
274
20
55
40
6
0
CIRCLE
5
253
100
AcDbEntity
8
0
6
ByLayer
62
256
370
-1
100
AcDbCircle
10
289
20
55
40
6
0
CIRCLE
5
254
100
AcDbEntity
8
0
6
ByLayer
62
256
370
-1
100
AcDbCircle
10
304
20
55
40
6
0
CIRCLE
5
255
100
AcDbEntity
8
0
6
ByLayer
62
256
370
-1
100
AcDbCircle
10
319
20
55
40
6
0
CIRCLE
5
256
100
AcDbEntity
8
0
6
ByLayer
62
256
370
-1
100
AcDbCircle
10
214
20
70
40
6
0
CIRCLE
5
257
100
AcDbEntity
8
0
6
ByLayer
62
256
370
-1
100
AcDbCircle
10
229
20
70
40
6
0
CIRCLE
5
258
100
AcDbEntity
8
0
6
ByLayer
62
256
370
-1
100
AcDbCircle
10
244
20
70
40
6
0
CIRCLE
5
259
100
AcDbEntity
8
0
6
ByLayer
62
256
370
-1
100
AcDbCircle
10
259
20
70
40
6
0
CIRCLE
5
25A
100
AcDbEntity
8
0
6
ByLayer
62
256
370
-1
100
AcDbCircle
10
274
20
70
40
6
0
CIRCLE
5
25B
100
AcDbEntity
8
0
6
ByLayer
62
256
370
-1
100
AcDbCircle
10
289
20
70
40
6
0
CIRCLE
5
25C
100
AcDbEntity
8
0
6
ByLayer
62
256
370
-1
100
AcDbCircle
10
304
20
70
40
6
0
CIRCLE
5
25D
100
AcDbEntity
8
0
6
ByLayer
62
256
370
-1
100
AcDbCircle
10
319
20
70
40
6
0
LINE
5
25E
100
AcDbEntity
8
0
6
ByLayer
62
256
370
-1
100
AcDbLine
10
177.002139
20
106.997861
11
356.050973
21
106.997861
0
LINE
5
25F
100
AcDbEntity
8
0
6
ByLayer
62
256
370
-1
100
AcDbLine
10
356.050973
20
106.997861
11
356.050973
21
-27.050639
0
LINE
5
260
100
AcDbEntity
8
0
6
ByLayer
62
256
370
-1
100
AcDbLine
10
356.050973
20
-27.050639
11
177.002139
21
-27.050639
0
LINE
5
261
100
AcDbEntity
8
0
6
ByLayer
62
256
370
-1
100
AcDbLine
10
177.002139
20
-27.050639
11
177.002139
21
106.997861
0
INSERT
5
262
100
AcDbEntity
8
0
6
ByLayer
62
256
370
-1
100
AcDbBlockReference
2
seite3
10
394.870081663
20
45.3526354862
30
0
41
1
42
1
43
0
50
0
70
1
71
1
44
0
45
0
0
ENDSEC
0
SECTION
2
OBJECTS
0
DICTIONARY
5
C
330
0
100
AcDbDictionary
281
1
3
ACAD_GROUP
350
D
0
DICTIONARY
5
D
330
C
100
AcDbDictionary
281
1
0
ENDSEC
0
EOF
