  0
SECTION
  2
HEADER
  9
$ACADVER
  1
AC1014
  9
$HANDSEED
  5
FFFF
  9
$MEASUREMENT
 70
     1
  0
ENDSEC
  0
SECTION
  2
TABLES
  0
TABLE
  2
VPORT
  5
8
330
0
100
AcDbSymbolTable
 70
     4
  0
VPORT
  5
2E
330
8
100
AcDbSymbolTableRecord
100
AcDbViewportTableRecord
  2
*ACTIVE
 70
     0
 10
0.0
 20
0.0
 11
1.0
 21
1.0
 12
210.0
 22
148.5
 13
0.0
 23
0.0
 14
10.0
 24
10.0
 15
10.0
 25
10.0
 16
0.0
 26
0.0
 36
1.0
 17
0.0
 27
0.0
 37
0.0
 40
341.0
 41
1.24
 42
50.0
 43
0.0
 44
0.0
 50
0.0
 51
0.0
 71
     0
 72
   100
 73
     1
 74
     3
 75
     0
 76
     0
 77
     0
 78
     0
  0
ENDTAB
  0
TABLE
  2
LTYPE
  5
5
330
0
100
AcDbSymbolTable
 70
     1
  0
LTYPE
  5
14
330
5
100
AcDbSymbolTableRecord
100
AcDbLinetypeTableRecord
  2
BYBLOCK
 70
     0
  3

 72
    65
 73
     0
 40
0.0
  0
LTYPE
  5
15
330
5
100
AcDbSymbolTableRecord
100
AcDbLinetypeTableRecord
  2
BYLAYER
 70
     0
  3

 72
    65
 73
     0
 40
0.0
  0
LTYPE
  5
16
330
5
100
AcDbSymbolTableRecord
100
AcDbLinetypeTableRecord
  2
CONTINUOUS
 70
     0
  3
Solid line
 72
    65
 73
     0
 40
0.0
  0
ENDTAB
  0
TABLE
  2
LAYER
  5
2
100
AcDbSymbolTable
 70
2
  0
LAYER
  5
50
100
AcDbSymbolTableRecord
100
AcDbLayerTableRecord
  2
0
 70
0
  6
CONTINUOUS
  0
LAYER
  5
51
100
AcDbSymbolTableRecord
100
AcDbLayerTableRecord
  2
box_20140320_155023_543584
 70
0
  6
CONTINUOUS
  0
ENDTAB
  0
TABLE
  2
STYLE
  5
3
330
0
100
AcDbSymbolTable
 70
     1
  0
STYLE
  5
11
330
3
100
AcDbSymbolTableRecord
100
AcDbTextStyleTableRecord
  2
STANDARD
 70
     0
 40
0.0
 41
1.0
 50
0.0
 71
     0
 42
2.5
  3
txt
  4

  0
ENDTAB
  0
TABLE
  2
VIEW
  5
6
330
0
100
AcDbSymbolTable
 70
     0
  0
ENDTAB
  0
TABLE
  2
UCS
  5
7
330
0
100
AcDbSymbolTable
 70
     0
  0
ENDTAB
  0
TABLE
  2
APPID
  5
9
330
0
100
AcDbSymbolTable
 70
     2
  0
APPID
  5
12
330
9
100
AcDbSymbolTableRecord
100
AcDbRegAppTableRecord
  2
ACAD
 70
     0
  0
ENDTAB
  0
TABLE
  2
DIMSTYLE
  5
A
330
0
100
AcDbSymbolTable
 70
     1
  0
DIMSTYLE
105
27
330
A
100
AcDbSymbolTableRecord
100
AcDbDimStyleTableRecord
  2
ISO-25
 70
     0
  3

  4

  5

  6

  7

 40
1.0
 41
2.5
 42
0.625
 43
3.75
 44
1.25
 45
0.0
 46
0.0
 47
0.0
 48
0.0
140
2.5
141
2.5
142
0.0
143
0.03937007874016
144
1.0
145
0.0
146
1.0
147
0.625
 71
     0
 72
     0
 73
     0
 74
     0
 75
     0
 76
     0
 77
     1
 78
     8
170
     0
171
     3
172
     1
173
     0
174
     0
175
     0
176
     0
177
     0
178
     0
270
     2
271
     2
272
     2
273
     2
274
     3
340
11
275
     0
280
     0
281
     0
282
     0
283
     0
284
     8
285
     0
286
     0
287
     3
288
     0
  0
ENDTAB
  0
TABLE
  2
BLOCK_RECORD
  5
1
330
0
100
AcDbSymbolTable
 70
     1
  0
BLOCK_RECORD
  5
1F
330
1
100
AcDbSymbolTableRecord
100
AcDbBlockTableRecord
  2
*MODEL_SPACE
  0
BLOCK_RECORD
  5
1B
330
1
100
AcDbSymbolTableRecord
100
AcDbBlockTableRecord
  2
*PAPER_SPACE
  0
ENDTAB
  0
ENDSEC
  0
SECTION
  2
BLOCKS
  0
BLOCK
  5
20
330
1F
100
AcDbEntity
  8
0
100
AcDbBlockBegin
  2
*MODEL_SPACE
 70
     0
 10
0.0
 20
0.0
 30
0.0
  3
*MODEL_SPACE
  1

  0
ENDBLK
  5
21
330
1F
100
AcDbEntity
  8
0
100
AcDbBlockEnd
  0
BLOCK
  5
1C
330
1B
100
AcDbEntity
 67
     1
  8
0
100
AcDbBlockBegin
  2
*PAPER_SPACE
  1

  0
ENDBLK
  5
1D
330
1B
100
AcDbEntity
 67
     1
  8
0
100
AcDbBlockEnd
  0
ENDSEC
  0
SECTION
  2
ENTITIES
  0
LWPOLYLINE
  5
100
100
AcDbEntity
  8
box_20140320_155023_543584
 62
7
100
AcDbPolyline
 90
6
 70
0
 10
10.050639
 20
10.050639
 30
0.0
 10
355.300139
 20
10.050639
 30
0.0
 10
355.300139
 20
460.399694
 30
0.0
 10
10.050639
 20
460.399694
 30
0.0
 10
10.050639
 20
10.050639
 30
0.0
 10
10.050639
 20
10.050639
 30
0.0
  0
LWPOLYLINE
  5
101
100
AcDbEntity
  8
box_20140320_155023_543584
 62
7
100
AcDbPolyline
 90
2
 70
0
 10
90.148833
 20
10.050639
 30
0.0
 10
97.578333
 20
10.050639
 30
0.0
  0
LWPOLYLINE
  5
102
100
AcDbEntity
  8
box_20140320_155023_543584
 62
7
100
AcDbPolyline
 90
2
 70
0
 10
97.578333
 20
13.049250
 30
0.0
 10
97.578333
 20
10.050639
 30
0.0
  0
LWPOLYLINE
  5
103
100
AcDbEntity
  8
box_20140320_155023_543584
 62
7
100
AcDbPolyline
 90
4
 70
0
 10
97.578333
 20
13.049250
 30
0.0
 10
104.930222
 20
13.049250
 30
0.0
 10
104.930222
 20
10.050639
 30
0.0
 10
112.380889
 20
10.050639
 30
0.0
  0
LWPOLYLINE
  5
104
100
AcDbEntity
  8
box_20140320_155023_543584
 62
7
100
AcDbPolyline
 90
2
 70
0
 10
112.380889
 20
13.049250
 30
0.0
 10
112.380889
 20
10.050639
 30
0.0
  0
LWPOLYLINE
  5
105
100
AcDbEntity
  8
box_20140320_155023_543584
 62
7
100
AcDbPolyline
 90
4
 70
0
 10
112.380889
 20
13.049250
 30
0.0
 10
119.732778
 20
13.049250
 30
0.0
 10
119.732778
 20
10.050639
 30
0.0
 10
127.183444
 20
10.050639
 30
0.0
  0
LWPOLYLINE
  5
106
100
AcDbEntity
  8
box_20140320_155023_543584
 62
7
100
AcDbPolyline
 90
2
 70
0
 10
127.183444
 20
13.049250
 30
0.0
 10
127.183444
 20
10.050639
 30
0.0
  0
LWPOLYLINE
  5
107
100
AcDbEntity
  8
box_20140320_155023_543584
 62
7
100
AcDbPolyline
 90
4
 70
0
 10
127.183444
 20
13.049250
 30
0.0
 10
134.535333
 20
13.049250
 30
0.0
 10
134.535333
 20
10.050639
 30
0.0
 10
141.989528
 20
10.050639
 30
0.0
  0
LWPOLYLINE
  5
108
100
AcDbEntity
  8
box_20140320_155023_543584
 62
7
100
AcDbPolyline
 90
2
 70
0
 10
141.989528
 20
13.049250
 30
0.0
 10
141.989528
 20
10.050639
 30
0.0
  0
LWPOLYLINE
  5
109
100
AcDbEntity
  8
box_20140320_155023_543584
 62
7
100
AcDbPolyline
 90
4
 70
0
 10
141.989528
 20
13.049250
 30
0.0
 10
149.341417
 20
13.049250
 30
0.0
 10
149.341417
 20
10.050639
 30
0.0
 10
156.792083
 20
10.050639
 30
0.0
  0
LWPOLYLINE
  5
10a
100
AcDbEntity
  8
box_20140320_155023_543584
 62
7
100
AcDbPolyline
 90
2
 70
0
 10
156.792083
 20
13.049250
 30
0.0
 10
156.792083
 20
10.050639
 30
0.0
  0
LWPOLYLINE
  5
10b
100
AcDbEntity
  8
box_20140320_155023_543584
 62
7
100
AcDbPolyline
 90
4
 70
0
 10
156.792083
 20
13.049250
 30
0.0
 10
164.143972
 20
13.049250
 30
0.0
 10
164.143972
 20
10.050639
 30
0.0
 10
171.598167
 20
10.050639
 30
0.0
  0
LWPOLYLINE
  5
10c
100
AcDbEntity
  8
box_20140320_155023_543584
 62
7
100
AcDbPolyline
 90
2
 70
0
 10
171.598167
 20
13.049250
 30
0.0
 10
171.598167
 20
10.050639
 30
0.0
  0
LWPOLYLINE
  5
10d
100
AcDbEntity
  8
box_20140320_155023_543584
 62
7
100
AcDbPolyline
 90
4
 70
0
 10
171.598167
 20
13.049250
 30
0.0
 10
178.950056
 20
13.049250
 30
0.0
 10
178.950056
 20
10.050639
 30
0.0
 10
186.400722
 20
10.050639
 30
0.0
  0
LWPOLYLINE
  5
10e
100
AcDbEntity
  8
box_20140320_155023_543584
 62
7
100
AcDbPolyline
 90
2
 70
0
 10
186.400722
 20
13.049250
 30
0.0
 10
186.400722
 20
10.050639
 30
0.0
  0
LWPOLYLINE
  5
10f
100
AcDbEntity
  8
box_20140320_155023_543584
 62
7
100
AcDbPolyline
 90
4
 70
0
 10
186.400722
 20
13.049250
 30
0.0
 10
193.752611
 20
13.049250
 30
0.0
 10
193.752611
 20
10.050639
 30
0.0
 10
201.203278
 20
10.050639
 30
0.0
  0
LWPOLYLINE
  5
110
100
AcDbEntity
  8
box_20140320_155023_543584
 62
7
100
AcDbPolyline
 90
2
 70
0
 10
201.203278
 20
13.049250
 30
0.0
 10
201.203278
 20
10.050639
 30
0.0
  0
LWPOLYLINE
  5
111
100
AcDbEntity
  8
box_20140320_155023_543584
 62
7
100
AcDbPolyline
 90
4
 70
0
 10
201.203278
 20
13.049250
 30
0.0
 10
208.555167
 20
13.049250
 30
0.0
 10
208.555167
 20
10.050639
 30
0.0
 10
216.009361
 20
10.050639
 30
0.0
  0
LWPOLYLINE
  5
112
100
AcDbEntity
  8
box_20140320_155023_543584
 62
7
100
AcDbPolyline
 90
2
 70
0
 10
216.009361
 20
13.049250
 30
0.0
 10
216.009361
 20
10.050639
 30
0.0
  0
LWPOLYLINE
  5
113
100
AcDbEntity
  8
box_20140320_155023_543584
 62
7
100
AcDbPolyline
 90
4
 70
0
 10
216.009361
 20
13.049250
 30
0.0
 10
223.361250
 20
13.049250
 30
0.0
 10
223.361250
 20
10.050639
 30
0.0
 10
230.811917
 20
10.050639
 30
0.0
  0
LWPOLYLINE
  5
114
100
AcDbEntity
  8
box_20140320_155023_543584
 62
7
100
AcDbPolyline
 90
2
 70
0
 10
230.811917
 20
13.049250
 30
0.0
 10
230.811917
 20
10.050639
 30
0.0
  0
LWPOLYLINE
  5
115
100
AcDbEntity
  8
box_20140320_155023_543584
 62
7
100
AcDbPolyline
 90
4
 70
0
 10
230.811917
 20
13.049250
 30
0.0
 10
238.163806
 20
13.049250
 30
0.0
 10
238.163806
 20
10.050639
 30
0.0
 10
245.618000
 20
10.050639
 30
0.0
  0
LWPOLYLINE
  5
116
100
AcDbEntity
  8
box_20140320_155023_543584
 62
7
100
AcDbPolyline
 90
2
 70
0
 10
245.618000
 20
13.049250
 30
0.0
 10
245.618000
 20
10.050639
 30
0.0
  0
LWPOLYLINE
  5
117
100
AcDbEntity
  8
box_20140320_155023_543584
 62
7
100
AcDbPolyline
 90
4
 70
0
 10
245.618000
 20
13.049250
 30
0.0
 10
252.969889
 20
13.049250
 30
0.0
 10
252.969889
 20
10.050639
 30
0.0
 10
260.420556
 20
10.050639
 30
0.0
  0
LWPOLYLINE
  5
118
100
AcDbEntity
  8
box_20140320_155023_543584
 62
7
100
AcDbPolyline
 90
2
 70
0
 10
260.420556
 20
13.049250
 30
0.0
 10
260.420556
 20
10.050639
 30
0.0
  0
LWPOLYLINE
  5
119
100
AcDbEntity
  8
box_20140320_155023_543584
 62
7
100
AcDbPolyline
 90
4
 70
0
 10
260.420556
 20
13.049250
 30
0.0
 10
267.772444
 20
13.049250
 30
0.0
 10
267.772444
 20
10.050639
 30
0.0
 10
272.199806
 20
10.050639
 30
0.0
  0
LWPOLYLINE
  5
11a
100
AcDbEntity
  8
box_20140320_155023_543584
 62
7
100
AcDbPolyline
 90
4
 70
0
 10
90.148833
 20
150.099889
 30
0.0
 10
97.578333
 20
150.099889
 30
0.0
 10
97.578333
 20
147.101278
 30
0.0
 10
104.930222
 20
147.101278
 30
0.0
  0
LWPOLYLINE
  5
11b
100
AcDbEntity
  8
box_20140320_155023_543584
 62
7
100
AcDbPolyline
 90
2
 70
0
 10
104.930222
 20
150.099889
 30
0.0
 10
104.930222
 20
147.101278
 30
0.0
  0
LWPOLYLINE
  5
11c
100
AcDbEntity
  8
box_20140320_155023_543584
 62
7
100
AcDbPolyline
 90
4
 70
0
 10
104.930222
 20
150.099889
 30
0.0
 10
112.380889
 20
150.099889
 30
0.0
 10
112.380889
 20
147.101278
 30
0.0
 10
119.732778
 20
147.101278
 30
0.0
  0
LWPOLYLINE
  5
11d
100
AcDbEntity
  8
box_20140320_155023_543584
 62
7
100
AcDbPolyline
 90
2
 70
0
 10
119.732778
 20
150.099889
 30
0.0
 10
119.732778
 20
147.101278
 30
0.0
  0
LWPOLYLINE
  5
11e
100
AcDbEntity
  8
box_20140320_155023_543584
 62
7
100
AcDbPolyline
 90
4
 70
0
 10
119.732778
 20
150.099889
 30
0.0
 10
127.183444
 20
150.099889
 30
0.0
 10
127.183444
 20
147.101278
 30
0.0
 10
134.535333
 20
147.101278
 30
0.0
  0
LWPOLYLINE
  5
11f
100
AcDbEntity
  8
box_20140320_155023_543584
 62
7
100
AcDbPolyline
 90
2
 70
0
 10
134.535333
 20
150.099889
 30
0.0
 10
134.535333
 20
147.101278
 30
0.0
  0
LWPOLYLINE
  5
120
100
AcDbEntity
  8
box_20140320_155023_543584
 62
7
100
AcDbPolyline
 90
4
 70
0
 10
134.535333
 20
150.099889
 30
0.0
 10
141.989528
 20
150.099889
 30
0.0
 10
141.989528
 20
147.101278
 30
0.0
 10
149.341417
 20
147.101278
 30
0.0
  0
LWPOLYLINE
  5
121
100
AcDbEntity
  8
box_20140320_155023_543584
 62
7
100
AcDbPolyline
 90
2
 70
0
 10
149.341417
 20
150.099889
 30
0.0
 10
149.341417
 20
147.101278
 30
0.0
  0
LWPOLYLINE
  5
122
100
AcDbEntity
  8
box_20140320_155023_543584
 62
7
100
AcDbPolyline
 90
4
 70
0
 10
149.341417
 20
150.099889
 30
0.0
 10
156.792083
 20
150.099889
 30
0.0
 10
156.792083
 20
147.101278
 30
0.0
 10
164.143972
 20
147.101278
 30
0.0
  0
LWPOLYLINE
  5
123
100
AcDbEntity
  8
box_20140320_155023_543584
 62
7
100
AcDbPolyline
 90
2
 70
0
 10
164.143972
 20
150.099889
 30
0.0
 10
164.143972
 20
147.101278
 30
0.0
  0
LWPOLYLINE
  5
124
100
AcDbEntity
  8
box_20140320_155023_543584
 62
7
100
AcDbPolyline
 90
4
 70
0
 10
164.143972
 20
150.099889
 30
0.0
 10
171.598167
 20
150.099889
 30
0.0
 10
171.598167
 20
147.101278
 30
0.0
 10
178.950056
 20
147.101278
 30
0.0
  0
LWPOLYLINE
  5
125
100
AcDbEntity
  8
box_20140320_155023_543584
 62
7
100
AcDbPolyline
 90
2
 70
0
 10
178.950056
 20
150.099889
 30
0.0
 10
178.950056
 20
147.101278
 30
0.0
  0
LWPOLYLINE
  5
126
100
AcDbEntity
  8
box_20140320_155023_543584
 62
7
100
AcDbPolyline
 90
4
 70
0
 10
178.950056
 20
150.099889
 30
0.0
 10
186.400722
 20
150.099889
 30
0.0
 10
186.400722
 20
147.101278
 30
0.0
 10
193.752611
 20
147.101278
 30
0.0
  0
LWPOLYLINE
  5
127
100
AcDbEntity
  8
box_20140320_155023_543584
 62
7
100
AcDbPolyline
 90
2
 70
0
 10
193.752611
 20
150.099889
 30
0.0
 10
193.752611
 20
147.101278
 30
0.0
  0
LWPOLYLINE
  5
128
100
AcDbEntity
  8
box_20140320_155023_543584
 62
7
100
AcDbPolyline
 90
4
 70
0
 10
193.752611
 20
150.099889
 30
0.0
 10
201.203278
 20
150.099889
 30
0.0
 10
201.203278
 20
147.101278
 30
0.0
 10
208.555167
 20
147.101278
 30
0.0
  0
LWPOLYLINE
  5
129
100
AcDbEntity
  8
box_20140320_155023_543584
 62
7
100
AcDbPolyline
 90
2
 70
0
 10
208.555167
 20
150.099889
 30
0.0
 10
208.555167
 20
147.101278
 30
0.0
  0
LWPOLYLINE
  5
12a
100
AcDbEntity
  8
box_20140320_155023_543584
 62
7
100
AcDbPolyline
 90
4
 70
0
 10
208.555167
 20
150.099889
 30
0.0
 10
216.009361
 20
150.099889
 30
0.0
 10
216.009361
 20
147.101278
 30
0.0
 10
223.361250
 20
147.101278
 30
0.0
  0
LWPOLYLINE
  5
12b
100
AcDbEntity
  8
box_20140320_155023_543584
 62
7
100
AcDbPolyline
 90
2
 70
0
 10
223.361250
 20
150.099889
 30
0.0
 10
223.361250
 20
147.101278
 30
0.0
  0
LWPOLYLINE
  5
12c
100
AcDbEntity
  8
box_20140320_155023_543584
 62
7
100
AcDbPolyline
 90
4
 70
0
 10
223.361250
 20
150.099889
 30
0.0
 10
230.811917
 20
150.099889
 30
0.0
 10
230.811917
 20
147.101278
 30
0.0
 10
238.163806
 20
147.101278
 30
0.0
  0
LWPOLYLINE
  5
12d
100
AcDbEntity
  8
box_20140320_155023_543584
 62
7
100
AcDbPolyline
 90
2
 70
0
 10
238.163806
 20
150.099889
 30
0.0
 10
238.163806
 20
147.101278
 30
0.0
  0
LWPOLYLINE
  5
12e
100
AcDbEntity
  8
box_20140320_155023_543584
 62
7
100
AcDbPolyline
 90
4
 70
0
 10
238.163806
 20
150.099889
 30
0.0
 10
245.618000
 20
150.099889
 30
0.0
 10
245.618000
 20
147.101278
 30
0.0
 10
252.969889
 20
147.101278
 30
0.0
  0
LWPOLYLINE
  5
12f
100
AcDbEntity
  8
box_20140320_155023_543584
 62
7
100
AcDbPolyline
 90
2
 70
0
 10
252.969889
 20
150.099889
 30
0.0
 10
252.969889
 20
147.101278
 30
0.0
  0
LWPOLYLINE
  5
130
100
AcDbEntity
  8
box_20140320_155023_543584
 62
7
100
AcDbPolyline
 90
4
 70
0
 10
252.969889
 20
150.099889
 30
0.0
 10
260.420556
 20
150.099889
 30
0.0
 10
260.420556
 20
147.101278
 30
0.0
 10
267.772444
 20
147.101278
 30
0.0
  0
LWPOLYLINE
  5
131
100
AcDbEntity
  8
box_20140320_155023_543584
 62
7
100
AcDbPolyline
 90
2
 70
0
 10
267.772444
 20
150.099889
 30
0.0
 10
267.772444
 20
147.101278
 30
0.0
  0
LWPOLYLINE
  5
132
100
AcDbEntity
  8
box_20140320_155023_543584
 62
7
100
AcDbPolyline
 90
2
 70
0
 10
267.772444
 20
150.099889
 30
0.0
 10
272.199806
 20
150.099889
 30
0.0
  0
LWPOLYLINE
  5
133
100
AcDbEntity
  8
box_20140320_155023_543584
 62
7
100
AcDbPolyline
 90
2
 70
0
 10
90.148833
 20
10.050639
 30
0.0
 10
90.148833
 20
17.444861
 30
0.0
  0
LWPOLYLINE
  5
134
100
AcDbEntity
  8
box_20140320_155023_543584
 62
7
100
AcDbPolyline
 90
2
 70
0
 10
93.150972
 20
17.444861
 30
0.0
 10
90.148833
 20
17.444861
 30
0.0
  0
LWPOLYLINE
  5
135
100
AcDbEntity
  8
box_20140320_155023_543584
 62
7
100
AcDbPolyline
 90
4
 70
0
 10
93.150972
 20
17.444861
 30
0.0
 10
93.150972
 20
24.768528
 30
0.0
 10
90.148833
 20
24.768528
 30
0.0
 10
90.148833
 20
32.187444
 30
0.0
  0
LWPOLYLINE
  5
136
100
AcDbEntity
  8
box_20140320_155023_543584
 62
7
100
AcDbPolyline
 90
2
 70
0
 10
93.150972
 20
32.187444
 30
0.0
 10
90.148833
 20
32.187444
 30
0.0
  0
LWPOLYLINE
  5
137
100
AcDbEntity
  8
box_20140320_155023_543584
 62
7
100
AcDbPolyline
 90
4
 70
0
 10
93.150972
 20
32.187444
 30
0.0
 10
93.150972
 20
39.507583
 30
0.0
 10
90.148833
 20
39.507583
 30
0.0
 10
90.148833
 20
46.930028
 30
0.0
  0
LWPOLYLINE
  5
138
100
AcDbEntity
  8
box_20140320_155023_543584
 62
7
100
AcDbPolyline
 90
2
 70
0
 10
93.150972
 20
46.930028
 30
0.0
 10
90.148833
 20
46.930028
 30
0.0
  0
LWPOLYLINE
  5
139
100
AcDbEntity
  8
box_20140320_155023_543584
 62
7
100
AcDbPolyline
 90
4
 70
0
 10
93.150972
 20
46.930028
 30
0.0
 10
93.150972
 20
54.250167
 30
0.0
 10
90.148833
 20
54.250167
 30
0.0
 10
90.148833
 20
61.672611
 30
0.0
  0
LWPOLYLINE
  5
13a
100
AcDbEntity
  8
box_20140320_155023_543584
 62
7
100
AcDbPolyline
 90
2
 70
0
 10
93.150972
 20
61.672611
 30
0.0
 10
90.148833
 20
61.672611
 30
0.0
  0
LWPOLYLINE
  5
13b
100
AcDbEntity
  8
box_20140320_155023_543584
 62
7
100
AcDbPolyline
 90
4
 70
0
 10
93.150972
 20
61.672611
 30
0.0
 10
93.150972
 20
68.992750
 30
0.0
 10
90.148833
 20
68.992750
 30
0.0
 10
90.148833
 20
76.415194
 30
0.0
  0
LWPOLYLINE
  5
13c
100
AcDbEntity
  8
box_20140320_155023_543584
 62
7
100
AcDbPolyline
 90
2
 70
0
 10
93.150972
 20
76.415194
 30
0.0
 10
90.148833
 20
76.415194
 30
0.0
  0
LWPOLYLINE
  5
13d
100
AcDbEntity
  8
box_20140320_155023_543584
 62
7
100
AcDbPolyline
 90
4
 70
0
 10
93.150972
 20
76.415194
 30
0.0
 10
93.150972
 20
83.735333
 30
0.0
 10
90.148833
 20
83.735333
 30
0.0
 10
90.148833
 20
91.157778
 30
0.0
  0
LWPOLYLINE
  5
13e
100
AcDbEntity
  8
box_20140320_155023_543584
 62
7
100
AcDbPolyline
 90
2
 70
0
 10
93.150972
 20
91.157778
 30
0.0
 10
90.148833
 20
91.157778
 30
0.0
  0
LWPOLYLINE
  5
13f
100
AcDbEntity
  8
box_20140320_155023_543584
 62
7
100
AcDbPolyline
 90
4
 70
0
 10
93.150972
 20
91.157778
 30
0.0
 10
93.150972
 20
98.477917
 30
0.0
 10
90.148833
 20
98.477917
 30
0.0
 10
90.148833
 20
105.900361
 30
0.0
  0
LWPOLYLINE
  5
140
100
AcDbEntity
  8
box_20140320_155023_543584
 62
7
100
AcDbPolyline
 90
2
 70
0
 10
93.150972
 20
105.900361
 30
0.0
 10
90.148833
 20
105.900361
 30
0.0
  0
LWPOLYLINE
  5
141
100
AcDbEntity
  8
box_20140320_155023_543584
 62
7
100
AcDbPolyline
 90
4
 70
0
 10
93.150972
 20
105.900361
 30
0.0
 10
93.150972
 20
113.220500
 30
0.0
 10
90.148833
 20
113.220500
 30
0.0
 10
90.148833
 20
120.639417
 30
0.0
  0
LWPOLYLINE
  5
142
100
AcDbEntity
  8
box_20140320_155023_543584
 62
7
100
AcDbPolyline
 90
2
 70
0
 10
93.150972
 20
120.639417
 30
0.0
 10
90.148833
 20
120.639417
 30
0.0
  0
LWPOLYLINE
  5
143
100
AcDbEntity
  8
box_20140320_155023_543584
 62
7
100
AcDbPolyline
 90
4
 70
0
 10
93.150972
 20
120.639417
 30
0.0
 10
93.150972
 20
127.963083
 30
0.0
 10
90.148833
 20
127.963083
 30
0.0
 10
90.148833
 20
135.382000
 30
0.0
  0
LWPOLYLINE
  5
144
100
AcDbEntity
  8
box_20140320_155023_543584
 62
7
100
AcDbPolyline
 90
2
 70
0
 10
93.150972
 20
135.382000
 30
0.0
 10
90.148833
 20
135.382000
 30
0.0
  0
LWPOLYLINE
  5
145
100
AcDbEntity
  8
box_20140320_155023_543584
 62
7
100
AcDbPolyline
 90
4
 70
0
 10
93.150972
 20
135.382000
 30
0.0
 10
93.150972
 20
142.705667
 30
0.0
 10
90.148833
 20
142.705667
 30
0.0
 10
90.148833
 20
150.099889
 30
0.0
  0
LWPOLYLINE
  5
146
100
AcDbEntity
  8
box_20140320_155023_543584
 62
7
100
AcDbPolyline
 90
2
 70
0
 10
272.199806
 20
10.050639
 30
0.0
 10
272.199806
 20
17.395472
 30
0.0
  0
LWPOLYLINE
  5
147
100
AcDbEntity
  8
box_20140320_155023_543584
 62
7
100
AcDbPolyline
 90
2
 70
0
 10
275.198417
 20
17.395472
 30
0.0
 10
272.199806
 20
17.395472
 30
0.0
  0
LWPOLYLINE
  5
148
100
AcDbEntity
  8
box_20140320_155023_543584
 62
7
100
AcDbPolyline
 90
4
 70
0
 10
275.198417
 20
17.395472
 30
0.0
 10
275.198417
 20
24.817917
 30
0.0
 10
272.199806
 20
24.817917
 30
0.0
 10
272.199806
 20
32.138056
 30
0.0
  0
LWPOLYLINE
  5
149
100
AcDbEntity
  8
box_20140320_155023_543584
 62
7
100
AcDbPolyline
 90
2
 70
0
 10
275.198417
 20
32.138056
 30
0.0
 10
272.199806
 20
32.138056
 30
0.0
  0
LWPOLYLINE
  5
14a
100
AcDbEntity
  8
box_20140320_155023_543584
 62
7
100
AcDbPolyline
 90
4
 70
0
 10
275.198417
 20
32.138056
 30
0.0
 10
275.198417
 20
39.560500
 30
0.0
 10
272.199806
 20
39.560500
 30
0.0
 10
272.199806
 20
46.880639
 30
0.0
  0
LWPOLYLINE
  5
14b
100
AcDbEntity
  8
box_20140320_155023_543584
 62
7
100
AcDbPolyline
 90
2
 70
0
 10
275.198417
 20
46.880639
 30
0.0
 10
272.199806
 20
46.880639
 30
0.0
  0
LWPOLYLINE
  5
14c
100
AcDbEntity
  8
box_20140320_155023_543584
 62
7
100
AcDbPolyline
 90
4
 70
0
 10
275.198417
 20
46.880639
 30
0.0
 10
275.198417
 20
54.299556
 30
0.0
 10
272.199806
 20
54.299556
 30
0.0
 10
272.199806
 20
61.623222
 30
0.0
  0
LWPOLYLINE
  5
14d
100
AcDbEntity
  8
box_20140320_155023_543584
 62
7
100
AcDbPolyline
 90
2
 70
0
 10
275.198417
 20
61.623222
 30
0.0
 10
272.199806
 20
61.623222
 30
0.0
  0
LWPOLYLINE
  5
14e
100
AcDbEntity
  8
box_20140320_155023_543584
 62
7
100
AcDbPolyline
 90
4
 70
0
 10
275.198417
 20
61.623222
 30
0.0
 10
275.198417
 20
69.042139
 30
0.0
 10
272.199806
 20
69.042139
 30
0.0
 10
272.199806
 20
76.365806
 30
0.0
  0
LWPOLYLINE
  5
14f
100
AcDbEntity
  8
box_20140320_155023_543584
 62
7
100
AcDbPolyline
 90
2
 70
0
 10
275.198417
 20
76.365806
 30
0.0
 10
272.199806
 20
76.365806
 30
0.0
  0
LWPOLYLINE
  5
150
100
AcDbEntity
  8
box_20140320_155023_543584
 62
7
100
AcDbPolyline
 90
4
 70
0
 10
275.198417
 20
76.365806
 30
0.0
 10
275.198417
 20
83.784722
 30
0.0
 10
272.199806
 20
83.784722
 30
0.0
 10
272.199806
 20
91.104861
 30
0.0
  0
LWPOLYLINE
  5
151
100
AcDbEntity
  8
box_20140320_155023_543584
 62
7
100
AcDbPolyline
 90
2
 70
0
 10
275.198417
 20
91.104861
 30
0.0
 10
272.199806
 20
91.104861
 30
0.0
  0
LWPOLYLINE
  5
152
100
AcDbEntity
  8
box_20140320_155023_543584
 62
7
100
AcDbPolyline
 90
4
 70
0
 10
275.198417
 20
91.104861
 30
0.0
 10
275.198417
 20
98.527306
 30
0.0
 10
272.199806
 20
98.527306
 30
0.0
 10
272.199806
 20
105.847444
 30
0.0
  0
LWPOLYLINE
  5
153
100
AcDbEntity
  8
box_20140320_155023_543584
 62
7
100
AcDbPolyline
 90
2
 70
0
 10
275.198417
 20
105.847444
 30
0.0
 10
272.199806
 20
105.847444
 30
0.0
  0
LWPOLYLINE
  5
154
100
AcDbEntity
  8
box_20140320_155023_543584
 62
7
100
AcDbPolyline
 90
4
 70
0
 10
275.198417
 20
105.847444
 30
0.0
 10
275.198417
 20
113.269889
 30
0.0
 10
272.199806
 20
113.269889
 30
0.0
 10
272.199806
 20
120.590028
 30
0.0
  0
LWPOLYLINE
  5
155
100
AcDbEntity
  8
box_20140320_155023_543584
 62
7
100
AcDbPolyline
 90
2
 70
0
 10
275.198417
 20
120.590028
 30
0.0
 10
272.199806
 20
120.590028
 30
0.0
  0
LWPOLYLINE
  5
156
100
AcDbEntity
  8
box_20140320_155023_543584
 62
7
100
AcDbPolyline
 90
4
 70
0
 10
275.198417
 20
120.590028
 30
0.0
 10
275.198417
 20
128.012472
 30
0.0
 10
272.199806
 20
128.012472
 30
0.0
 10
272.199806
 20
135.332611
 30
0.0
  0
LWPOLYLINE
  5
157
100
AcDbEntity
  8
box_20140320_155023_543584
 62
7
100
AcDbPolyline
 90
2
 70
0
 10
275.198417
 20
135.332611
 30
0.0
 10
272.199806
 20
135.332611
 30
0.0
  0
LWPOLYLINE
  5
158
100
AcDbEntity
  8
box_20140320_155023_543584
 62
7
100
AcDbPolyline
 90
4
 70
0
 10
275.198417
 20
135.332611
 30
0.0
 10
275.198417
 20
142.755056
 30
0.0
 10
272.199806
 20
142.755056
 30
0.0
 10
272.199806
 20
150.099889
 30
0.0
  0
LWPOLYLINE
  5
159
100
AcDbEntity
  8
box_20140320_155023_543584
 62
7
100
AcDbPolyline
 90
2
 70
0
 10
10.050639
 20
160.150528
 30
0.0
 10
17.857611
 20
160.150528
 30
0.0
  0
LWPOLYLINE
  5
15a
100
AcDbEntity
  8
box_20140320_155023_543584
 62
7
100
AcDbPolyline
 90
2
 70
0
 10
17.857611
 20
163.149139
 30
0.0
 10
17.857611
 20
160.150528
 30
0.0
  0
LWPOLYLINE
  5
15b
100
AcDbEntity
  8
box_20140320_155023_543584
 62
7
100
AcDbPolyline
 90
4
 70
0
 10
17.857611
 20
163.149139
 30
0.0
 10
25.590500
 20
163.149139
 30
0.0
 10
25.590500
 20
160.150528
 30
0.0
 10
33.425694
 20
160.150528
 30
0.0
  0
LWPOLYLINE
  5
15c
100
AcDbEntity
  8
box_20140320_155023_543584
 62
7
100
AcDbPolyline
 90
2
 70
0
 10
33.425694
 20
163.149139
 30
0.0
 10
33.425694
 20
160.150528
 30
0.0
  0
LWPOLYLINE
  5
15d
100
AcDbEntity
  8
box_20140320_155023_543584
 62
7
100
AcDbPolyline
 90
4
 70
0
 10
33.425694
 20
163.149139
 30
0.0
 10
41.158583
 20
163.149139
 30
0.0
 10
41.158583
 20
160.150528
 30
0.0
 10
48.990250
 20
160.150528
 30
0.0
  0
LWPOLYLINE
  5
15e
100
AcDbEntity
  8
box_20140320_155023_543584
 62
7
100
AcDbPolyline
 90
2
 70
0
 10
48.990250
 20
163.149139
 30
0.0
 10
48.990250
 20
160.150528
 30
0.0
  0
LWPOLYLINE
  5
15f
100
AcDbEntity
  8
box_20140320_155023_543584
 62
7
100
AcDbPolyline
 90
4
 70
0
 10
48.990250
 20
163.149139
 30
0.0
 10
56.726667
 20
163.149139
 30
0.0
 10
56.726667
 20
160.150528
 30
0.0
 10
64.558333
 20
160.150528
 30
0.0
  0
LWPOLYLINE
  5
160
100
AcDbEntity
  8
box_20140320_155023_543584
 62
7
100
AcDbPolyline
 90
2
 70
0
 10
64.558333
 20
163.149139
 30
0.0
 10
64.558333
 20
160.150528
 30
0.0
  0
LWPOLYLINE
  5
161
100
AcDbEntity
  8
box_20140320_155023_543584
 62
7
100
AcDbPolyline
 90
4
 70
0
 10
64.558333
 20
163.149139
 30
0.0
 10
72.291222
 20
163.149139
 30
0.0
 10
72.291222
 20
160.150528
 30
0.0
 10
77.099583
 20
160.150528
 30
0.0
  0
LWPOLYLINE
  5
162
100
AcDbEntity
  8
box_20140320_155023_543584
 62
7
100
AcDbPolyline
 90
4
 70
0
 10
10.050639
 20
300.199778
 30
0.0
 10
17.857611
 20
300.199778
 30
0.0
 10
17.857611
 20
297.201167
 30
0.0
 10
25.590500
 20
297.201167
 30
0.0
  0
LWPOLYLINE
  5
163
100
AcDbEntity
  8
box_20140320_155023_543584
 62
7
100
AcDbPolyline
 90
2
 70
0
 10
25.590500
 20
300.199778
 30
0.0
 10
25.590500
 20
297.201167
 30
0.0
  0
LWPOLYLINE
  5
164
100
AcDbEntity
  8
box_20140320_155023_543584
 62
7
100
AcDbPolyline
 90
4
 70
0
 10
25.590500
 20
300.199778
 30
0.0
 10
33.425694
 20
300.199778
 30
0.0
 10
33.425694
 20
297.201167
 30
0.0
 10
41.158583
 20
297.201167
 30
0.0
  0
LWPOLYLINE
  5
165
100
AcDbEntity
  8
box_20140320_155023_543584
 62
7
100
AcDbPolyline
 90
2
 70
0
 10
41.158583
 20
300.199778
 30
0.0
 10
41.158583
 20
297.201167
 30
0.0
  0
LWPOLYLINE
  5
166
100
AcDbEntity
  8
box_20140320_155023_543584
 62
7
100
AcDbPolyline
 90
4
 70
0
 10
41.158583
 20
300.199778
 30
0.0
 10
48.990250
 20
300.199778
 30
0.0
 10
48.990250
 20
297.201167
 30
0.0
 10
56.726667
 20
297.201167
 30
0.0
  0
LWPOLYLINE
  5
167
100
AcDbEntity
  8
box_20140320_155023_543584
 62
7
100
AcDbPolyline
 90
2
 70
0
 10
56.726667
 20
300.199778
 30
0.0
 10
56.726667
 20
297.201167
 30
0.0
  0
LWPOLYLINE
  5
168
100
AcDbEntity
  8
box_20140320_155023_543584
 62
7
100
AcDbPolyline
 90
4
 70
0
 10
56.726667
 20
300.199778
 30
0.0
 10
64.558333
 20
300.199778
 30
0.0
 10
64.558333
 20
297.201167
 30
0.0
 10
72.291222
 20
297.201167
 30
0.0
  0
LWPOLYLINE
  5
169
100
AcDbEntity
  8
box_20140320_155023_543584
 62
7
100
AcDbPolyline
 90
2
 70
0
 10
72.291222
 20
300.199778
 30
0.0
 10
72.291222
 20
297.201167
 30
0.0
  0
LWPOLYLINE
  5
16a
100
AcDbEntity
  8
box_20140320_155023_543584
 62
7
100
AcDbPolyline
 90
2
 70
0
 10
72.291222
 20
300.199778
 30
0.0
 10
77.099583
 20
300.199778
 30
0.0
  0
LWPOLYLINE
  5
16b
100
AcDbEntity
  8
box_20140320_155023_543584
 62
7
100
AcDbPolyline
 90
2
 70
0
 10
10.050639
 20
160.150528
 30
0.0
 10
10.050639
 20
167.544750
 30
0.0
  0
LWPOLYLINE
  5
16c
100
AcDbEntity
  8
box_20140320_155023_543584
 62
7
100
AcDbPolyline
 90
2
 70
0
 10
13.049250
 20
167.544750
 30
0.0
 10
10.050639
 20
167.544750
 30
0.0
  0
LWPOLYLINE
  5
16d
100
AcDbEntity
  8
box_20140320_155023_543584
 62
7
100
AcDbPolyline
 90
4
 70
0
 10
13.049250
 20
167.544750
 30
0.0
 10
13.049250
 20
174.868417
 30
0.0
 10
10.050639
 20
174.868417
 30
0.0
 10
10.050639
 20
182.287333
 30
0.0
  0
LWPOLYLINE
  5
16e
100
AcDbEntity
  8
box_20140320_155023_543584
 62
7
100
AcDbPolyline
 90
2
 70
0
 10
13.049250
 20
182.287333
 30
0.0
 10
10.050639
 20
182.287333
 30
0.0
  0
LWPOLYLINE
  5
16f
100
AcDbEntity
  8
box_20140320_155023_543584
 62
7
100
AcDbPolyline
 90
4
 70
0
 10
13.049250
 20
182.287333
 30
0.0
 10
13.049250
 20
189.607472
 30
0.0
 10
10.050639
 20
189.607472
 30
0.0
 10
10.050639
 20
197.029917
 30
0.0
  0
LWPOLYLINE
  5
170
100
AcDbEntity
  8
box_20140320_155023_543584
 62
7
100
AcDbPolyline
 90
2
 70
0
 10
13.049250
 20
197.029917
 30
0.0
 10
10.050639
 20
197.029917
 30
0.0
  0
LWPOLYLINE
  5
171
100
AcDbEntity
  8
box_20140320_155023_543584
 62
7
100
AcDbPolyline
 90
4
 70
0
 10
13.049250
 20
197.029917
 30
0.0
 10
13.049250
 20
204.350056
 30
0.0
 10
10.050639
 20
204.350056
 30
0.0
 10
10.050639
 20
211.772500
 30
0.0
  0
LWPOLYLINE
  5
172
100
AcDbEntity
  8
box_20140320_155023_543584
 62
7
100
AcDbPolyline
 90
2
 70
0
 10
13.049250
 20
211.772500
 30
0.0
 10
10.050639
 20
211.772500
 30
0.0
  0
LWPOLYLINE
  5
173
100
AcDbEntity
  8
box_20140320_155023_543584
 62
7
100
AcDbPolyline
 90
4
 70
0
 10
13.049250
 20
211.772500
 30
0.0
 10
13.049250
 20
219.092639
 30
0.0
 10
10.050639
 20
219.092639
 30
0.0
 10
10.050639
 20
226.515083
 30
0.0
  0
LWPOLYLINE
  5
174
100
AcDbEntity
  8
box_20140320_155023_543584
 62
7
100
AcDbPolyline
 90
2
 70
0
 10
13.049250
 20
226.515083
 30
0.0
 10
10.050639
 20
226.515083
 30
0.0
  0
LWPOLYLINE
  5
175
100
AcDbEntity
  8
box_20140320_155023_543584
 62
7
100
AcDbPolyline
 90
4
 70
0
 10
13.049250
 20
226.515083
 30
0.0
 10
13.049250
 20
233.835222
 30
0.0
 10
10.050639
 20
233.835222
 30
0.0
 10
10.050639
 20
241.257667
 30
0.0
  0
LWPOLYLINE
  5
176
100
AcDbEntity
  8
box_20140320_155023_543584
 62
7
100
AcDbPolyline
 90
2
 70
0
 10
13.049250
 20
241.257667
 30
0.0
 10
10.050639
 20
241.257667
 30
0.0
  0
LWPOLYLINE
  5
177
100
AcDbEntity
  8
box_20140320_155023_543584
 62
7
100
AcDbPolyline
 90
4
 70
0
 10
13.049250
 20
241.257667
 30
0.0
 10
13.049250
 20
248.577806
 30
0.0
 10
10.050639
 20
248.577806
 30
0.0
 10
10.050639
 20
256.000250
 30
0.0
  0
LWPOLYLINE
  5
178
100
AcDbEntity
  8
box_20140320_155023_543584
 62
7
100
AcDbPolyline
 90
2
 70
0
 10
13.049250
 20
256.000250
 30
0.0
 10
10.050639
 20
256.000250
 30
0.0
  0
LWPOLYLINE
  5
179
100
AcDbEntity
  8
box_20140320_155023_543584
 62
7
100
AcDbPolyline
 90
4
 70
0
 10
13.049250
 20
256.000250
 30
0.0
 10
13.049250
 20
263.320389
 30
0.0
 10
10.050639
 20
263.320389
 30
0.0
 10
10.050639
 20
270.739306
 30
0.0
  0
LWPOLYLINE
  5
17a
100
AcDbEntity
  8
box_20140320_155023_543584
 62
7
100
AcDbPolyline
 90
2
 70
0
 10
13.049250
 20
270.739306
 30
0.0
 10
10.050639
 20
270.739306
 30
0.0
  0
LWPOLYLINE
  5
17b
100
AcDbEntity
  8
box_20140320_155023_543584
 62
7
100
AcDbPolyline
 90
4
 70
0
 10
13.049250
 20
270.739306
 30
0.0
 10
13.049250
 20
278.062972
 30
0.0
 10
10.050639
 20
278.062972
 30
0.0
 10
10.050639
 20
285.481889
 30
0.0
  0
LWPOLYLINE
  5
17c
100
AcDbEntity
  8
box_20140320_155023_543584
 62
7
100
AcDbPolyline
 90
2
 70
0
 10
13.049250
 20
285.481889
 30
0.0
 10
10.050639
 20
285.481889
 30
0.0
  0
LWPOLYLINE
  5
17d
100
AcDbEntity
  8
box_20140320_155023_543584
 62
7
100
AcDbPolyline
 90
4
 70
0
 10
13.049250
 20
285.481889
 30
0.0
 10
13.049250
 20
292.805556
 30
0.0
 10
10.050639
 20
292.805556
 30
0.0
 10
10.050639
 20
300.199778
 30
0.0
  0
LWPOLYLINE
  5
17e
100
AcDbEntity
  8
box_20140320_155023_543584
 62
7
100
AcDbPolyline
 90
2
 70
0
 10
77.099583
 20
160.150528
 30
0.0
 10
77.099583
 20
167.495361
 30
0.0
  0
LWPOLYLINE
  5
17f
100
AcDbEntity
  8
box_20140320_155023_543584
 62
7
100
AcDbPolyline
 90
2
 70
0
 10
80.101722
 20
167.495361
 30
0.0
 10
77.099583
 20
167.495361
 30
0.0
  0
LWPOLYLINE
  5
180
100
AcDbEntity
  8
box_20140320_155023_543584
 62
7
100
AcDbPolyline
 90
4
 70
0
 10
80.101722
 20
167.495361
 30
0.0
 10
80.101722
 20
174.917806
 30
0.0
 10
77.099583
 20
174.917806
 30
0.0
 10
77.099583
 20
182.237944
 30
0.0
  0
LWPOLYLINE
  5
181
100
AcDbEntity
  8
box_20140320_155023_543584
 62
7
100
AcDbPolyline
 90
2
 70
0
 10
80.101722
 20
182.237944
 30
0.0
 10
77.099583
 20
182.237944
 30
0.0
  0
LWPOLYLINE
  5
182
100
AcDbEntity
  8
box_20140320_155023_543584
 62
7
100
AcDbPolyline
 90
4
 70
0
 10
80.101722
 20
182.237944
 30
0.0
 10
80.101722
 20
189.660389
 30
0.0
 10
77.099583
 20
189.660389
 30
0.0
 10
77.099583
 20
196.980528
 30
0.0
  0
LWPOLYLINE
  5
183
100
AcDbEntity
  8
box_20140320_155023_543584
 62
7
100
AcDbPolyline
 90
2
 70
0
 10
80.101722
 20
196.980528
 30
0.0
 10
77.099583
 20
196.980528
 30
0.0
  0
LWPOLYLINE
  5
184
100
AcDbEntity
  8
box_20140320_155023_543584
 62
7
100
AcDbPolyline
 90
4
 70
0
 10
80.101722
 20
196.980528
 30
0.0
 10
80.101722
 20
204.402972
 30
0.0
 10
77.099583
 20
204.402972
 30
0.0
 10
77.099583
 20
211.723111
 30
0.0
  0
LWPOLYLINE
  5
185
100
AcDbEntity
  8
box_20140320_155023_543584
 62
7
100
AcDbPolyline
 90
2
 70
0
 10
80.101722
 20
211.723111
 30
0.0
 10
77.099583
 20
211.723111
 30
0.0
  0
LWPOLYLINE
  5
186
100
AcDbEntity
  8
box_20140320_155023_543584
 62
7
100
AcDbPolyline
 90
4
 70
0
 10
80.101722
 20
211.723111
 30
0.0
 10
80.101722
 20
219.142028
 30
0.0
 10
77.099583
 20
219.142028
 30
0.0
 10
77.099583
 20
226.465694
 30
0.0
  0
LWPOLYLINE
  5
187
100
AcDbEntity
  8
box_20140320_155023_543584
 62
7
100
AcDbPolyline
 90
2
 70
0
 10
80.101722
 20
226.465694
 30
0.0
 10
77.099583
 20
226.465694
 30
0.0
  0
LWPOLYLINE
  5
188
100
AcDbEntity
  8
box_20140320_155023_543584
 62
7
100
AcDbPolyline
 90
4
 70
0
 10
80.101722
 20
226.465694
 30
0.0
 10
80.101722
 20
233.884611
 30
0.0
 10
77.099583
 20
233.884611
 30
0.0
 10
77.099583
 20
241.208278
 30
0.0
  0
LWPOLYLINE
  5
189
100
AcDbEntity
  8
box_20140320_155023_543584
 62
7
100
AcDbPolyline
 90
2
 70
0
 10
80.101722
 20
241.208278
 30
0.0
 10
77.099583
 20
241.208278
 30
0.0
  0
LWPOLYLINE
  5
18a
100
AcDbEntity
  8
box_20140320_155023_543584
 62
7
100
AcDbPolyline
 90
4
 70
0
 10
80.101722
 20
241.208278
 30
0.0
 10
80.101722
 20
248.627194
 30
0.0
 10
77.099583
 20
248.627194
 30
0.0
 10
77.099583
 20
255.947333
 30
0.0
  0
LWPOLYLINE
  5
18b
100
AcDbEntity
  8
box_20140320_155023_543584
 62
7
100
AcDbPolyline
 90
2
 70
0
 10
80.101722
 20
255.947333
 30
0.0
 10
77.099583
 20
255.947333
 30
0.0
  0
LWPOLYLINE
  5
18c
100
AcDbEntity
  8
box_20140320_155023_543584
 62
7
100
AcDbPolyline
 90
4
 70
0
 10
80.101722
 20
255.947333
 30
0.0
 10
80.101722
 20
263.369778
 30
0.0
 10
77.099583
 20
263.369778
 30
0.0
 10
77.099583
 20
270.689917
 30
0.0
  0
LWPOLYLINE
  5
18d
100
AcDbEntity
  8
box_20140320_155023_543584
 62
7
100
AcDbPolyline
 90
2
 70
0
 10
80.101722
 20
270.689917
 30
0.0
 10
77.099583
 20
270.689917
 30
0.0
  0
LWPOLYLINE
  5
18e
100
AcDbEntity
  8
box_20140320_155023_543584
 62
7
100
AcDbPolyline
 90
4
 70
0
 10
80.101722
 20
270.689917
 30
0.0
 10
80.101722
 20
278.112361
 30
0.0
 10
77.099583
 20
278.112361
 30
0.0
 10
77.099583
 20
285.432500
 30
0.0
  0
LWPOLYLINE
  5
18f
100
AcDbEntity
  8
box_20140320_155023_543584
 62
7
100
AcDbPolyline
 90
2
 70
0
 10
80.101722
 20
285.432500
 30
0.0
 10
77.099583
 20
285.432500
 30
0.0
  0
LWPOLYLINE
  5
190
100
AcDbEntity
  8
box_20140320_155023_543584
 62
7
100
AcDbPolyline
 90
4
 70
0
 10
80.101722
 20
285.432500
 30
0.0
 10
80.101722
 20
292.854944
 30
0.0
 10
77.099583
 20
292.854944
 30
0.0
 10
77.099583
 20
300.199778
 30
0.0
  0
LWPOLYLINE
  5
191
100
AcDbEntity
  8
box_20140320_155023_543584
 62
7
100
AcDbPolyline
 90
4
 70
0
 10
93.150972
 20
163.149139
 30
0.0
 10
97.525417
 20
163.149139
 30
0.0
 10
97.525417
 20
160.150528
 30
0.0
 10
104.979611
 20
160.150528
 30
0.0
  0
LWPOLYLINE
  5
192
100
AcDbEntity
  8
box_20140320_155023_543584
 62
7
100
AcDbPolyline
 90
2
 70
0
 10
104.979611
 20
163.149139
 30
0.0
 10
104.979611
 20
160.150528
 30
0.0
  0
LWPOLYLINE
  5
193
100
AcDbEntity
  8
box_20140320_155023_543584
 62
7
100
AcDbPolyline
 90
4
 70
0
 10
104.979611
 20
163.149139
 30
0.0
 10
112.331500
 20
163.149139
 30
0.0
 10
112.331500
 20
160.150528
 30
0.0
 10
119.782167
 20
160.150528
 30
0.0
  0
LWPOLYLINE
  5
194
100
AcDbEntity
  8
box_20140320_155023_543584
 62
7
100
AcDbPolyline
 90
2
 70
0
 10
119.782167
 20
163.149139
 30
0.0
 10
119.782167
 20
160.150528
 30
0.0
  0
LWPOLYLINE
  5
195
100
AcDbEntity
  8
box_20140320_155023_543584
 62
7
100
AcDbPolyline
 90
4
 70
0
 10
119.782167
 20
163.149139
 30
0.0
 10
127.134056
 20
163.149139
 30
0.0
 10
127.134056
 20
160.150528
 30
0.0
 10
134.588250
 20
160.150528
 30
0.0
  0
LWPOLYLINE
  5
196
100
AcDbEntity
  8
box_20140320_155023_543584
 62
7
100
AcDbPolyline
 90
2
 70
0
 10
134.588250
 20
163.149139
 30
0.0
 10
134.588250
 20
160.150528
 30
0.0
  0
LWPOLYLINE
  5
197
100
AcDbEntity
  8
box_20140320_155023_543584
 62
7
100
AcDbPolyline
 90
4
 70
0
 10
134.588250
 20
163.149139
 30
0.0
 10
141.940139
 20
163.149139
 30
0.0
 10
141.940139
 20
160.150528
 30
0.0
 10
149.390806
 20
160.150528
 30
0.0
  0
LWPOLYLINE
  5
198
100
AcDbEntity
  8
box_20140320_155023_543584
 62
7
100
AcDbPolyline
 90
2
 70
0
 10
149.390806
 20
163.149139
 30
0.0
 10
149.390806
 20
160.150528
 30
0.0
  0
LWPOLYLINE
  5
199
100
AcDbEntity
  8
box_20140320_155023_543584
 62
7
100
AcDbPolyline
 90
4
 70
0
 10
149.390806
 20
163.149139
 30
0.0
 10
156.742694
 20
163.149139
 30
0.0
 10
156.742694
 20
160.150528
 30
0.0
 10
164.193361
 20
160.150528
 30
0.0
  0
LWPOLYLINE
  5
19a
100
AcDbEntity
  8
box_20140320_155023_543584
 62
7
100
AcDbPolyline
 90
2
 70
0
 10
164.193361
 20
163.149139
 30
0.0
 10
164.193361
 20
160.150528
 30
0.0
  0
LWPOLYLINE
  5
19b
100
AcDbEntity
  8
box_20140320_155023_543584
 62
7
100
AcDbPolyline
 90
4
 70
0
 10
164.193361
 20
163.149139
 30
0.0
 10
171.545250
 20
163.149139
 30
0.0
 10
171.545250
 20
160.150528
 30
0.0
 10
178.999444
 20
160.150528
 30
0.0
  0
LWPOLYLINE
  5
19c
100
AcDbEntity
  8
box_20140320_155023_543584
 62
7
100
AcDbPolyline
 90
2
 70
0
 10
178.999444
 20
163.149139
 30
0.0
 10
178.999444
 20
160.150528
 30
0.0
  0
LWPOLYLINE
  5
19d
100
AcDbEntity
  8
box_20140320_155023_543584
 62
7
100
AcDbPolyline
 90
4
 70
0
 10
178.999444
 20
163.149139
 30
0.0
 10
186.351333
 20
163.149139
 30
0.0
 10
186.351333
 20
160.150528
 30
0.0
 10
193.802000
 20
160.150528
 30
0.0
  0
LWPOLYLINE
  5
19e
100
AcDbEntity
  8
box_20140320_155023_543584
 62
7
100
AcDbPolyline
 90
2
 70
0
 10
193.802000
 20
163.149139
 30
0.0
 10
193.802000
 20
160.150528
 30
0.0
  0
LWPOLYLINE
  5
19f
100
AcDbEntity
  8
box_20140320_155023_543584
 62
7
100
AcDbPolyline
 90
4
 70
0
 10
193.802000
 20
163.149139
 30
0.0
 10
201.153889
 20
163.149139
 30
0.0
 10
201.153889
 20
160.150528
 30
0.0
 10
208.608083
 20
160.150528
 30
0.0
  0
LWPOLYLINE
  5
1a0
100
AcDbEntity
  8
box_20140320_155023_543584
 62
7
100
AcDbPolyline
 90
2
 70
0
 10
208.608083
 20
163.149139
 30
0.0
 10
208.608083
 20
160.150528
 30
0.0
  0
LWPOLYLINE
  5
1a1
100
AcDbEntity
  8
box_20140320_155023_543584
 62
7
100
AcDbPolyline
 90
4
 70
0
 10
208.608083
 20
163.149139
 30
0.0
 10
215.959972
 20
163.149139
 30
0.0
 10
215.959972
 20
160.150528
 30
0.0
 10
223.410639
 20
160.150528
 30
0.0
  0
LWPOLYLINE
  5
1a2
100
AcDbEntity
  8
box_20140320_155023_543584
 62
7
100
AcDbPolyline
 90
2
 70
0
 10
223.410639
 20
163.149139
 30
0.0
 10
223.410639
 20
160.150528
 30
0.0
  0
LWPOLYLINE
  5
1a3
100
AcDbEntity
  8
box_20140320_155023_543584
 62
7
100
AcDbPolyline
 90
4
 70
0
 10
223.410639
 20
163.149139
 30
0.0
 10
230.762528
 20
163.149139
 30
0.0
 10
230.762528
 20
160.150528
 30
0.0
 10
238.213194
 20
160.150528
 30
0.0
  0
LWPOLYLINE
  5
1a4
100
AcDbEntity
  8
box_20140320_155023_543584
 62
7
100
AcDbPolyline
 90
2
 70
0
 10
238.213194
 20
163.149139
 30
0.0
 10
238.213194
 20
160.150528
 30
0.0
  0
LWPOLYLINE
  5
1a5
100
AcDbEntity
  8
box_20140320_155023_543584
 62
7
100
AcDbPolyline
 90
4
 70
0
 10
238.213194
 20
163.149139
 30
0.0
 10
245.568611
 20
163.149139
 30
0.0
 10
245.568611
 20
160.150528
 30
0.0
 10
253.019278
 20
160.150528
 30
0.0
  0
LWPOLYLINE
  5
1a6
100
AcDbEntity
  8
box_20140320_155023_543584
 62
7
100
AcDbPolyline
 90
2
 70
0
 10
253.019278
 20
163.149139
 30
0.0
 10
253.019278
 20
160.150528
 30
0.0
  0
LWPOLYLINE
  5
1a7
100
AcDbEntity
  8
box_20140320_155023_543584
 62
7
100
AcDbPolyline
 90
4
 70
0
 10
253.019278
 20
163.149139
 30
0.0
 10
260.371167
 20
163.149139
 30
0.0
 10
260.371167
 20
160.150528
 30
0.0
 10
267.821833
 20
160.150528
 30
0.0
  0
LWPOLYLINE
  5
1a8
100
AcDbEntity
  8
box_20140320_155023_543584
 62
7
100
AcDbPolyline
 90
2
 70
0
 10
267.821833
 20
163.149139
 30
0.0
 10
267.821833
 20
160.150528
 30
0.0
  0
LWPOLYLINE
  5
1a9
100
AcDbEntity
  8
box_20140320_155023_543584
 62
7
100
AcDbPolyline
 90
2
 70
0
 10
267.821833
 20
163.149139
 30
0.0
 10
272.199806
 20
163.149139
 30
0.0
  0
LWPOLYLINE
  5
1aa
100
AcDbEntity
  8
box_20140320_155023_543584
 62
7
100
AcDbPolyline
 90
2
 70
0
 10
93.150972
 20
227.199472
 30
0.0
 10
97.525417
 20
227.199472
 30
0.0
  0
LWPOLYLINE
  5
1ab
100
AcDbEntity
  8
box_20140320_155023_543584
 62
7
100
AcDbPolyline
 90
2
 70
0
 10
97.525417
 20
230.201611
 30
0.0
 10
97.525417
 20
227.199472
 30
0.0
  0
LWPOLYLINE
  5
1ac
100
AcDbEntity
  8
box_20140320_155023_543584
 62
7
100
AcDbPolyline
 90
4
 70
0
 10
97.525417
 20
230.201611
 30
0.0
 10
104.979611
 20
230.201611
 30
0.0
 10
104.979611
 20
227.199472
 30
0.0
 10
112.331500
 20
227.199472
 30
0.0
  0
LWPOLYLINE
  5
1ad
100
AcDbEntity
  8
box_20140320_155023_543584
 62
7
100
AcDbPolyline
 90
2
 70
0
 10
112.331500
 20
230.201611
 30
0.0
 10
112.331500
 20
227.199472
 30
0.0
  0
LWPOLYLINE
  5
1ae
100
AcDbEntity
  8
box_20140320_155023_543584
 62
7
100
AcDbPolyline
 90
4
 70
0
 10
112.331500
 20
230.201611
 30
0.0
 10
119.782167
 20
230.201611
 30
0.0
 10
119.782167
 20
227.199472
 30
0.0
 10
127.134056
 20
227.199472
 30
0.0
  0
LWPOLYLINE
  5
1af
100
AcDbEntity
  8
box_20140320_155023_543584
 62
7
100
AcDbPolyline
 90
2
 70
0
 10
127.134056
 20
230.201611
 30
0.0
 10
127.134056
 20
227.199472
 30
0.0
  0
LWPOLYLINE
  5
1b0
100
AcDbEntity
  8
box_20140320_155023_543584
 62
7
100
AcDbPolyline
 90
4
 70
0
 10
127.134056
 20
230.201611
 30
0.0
 10
134.588250
 20
230.201611
 30
0.0
 10
134.588250
 20
227.199472
 30
0.0
 10
141.940139
 20
227.199472
 30
0.0
  0
LWPOLYLINE
  5
1b1
100
AcDbEntity
  8
box_20140320_155023_543584
 62
7
100
AcDbPolyline
 90
2
 70
0
 10
141.940139
 20
230.201611
 30
0.0
 10
141.940139
 20
227.199472
 30
0.0
  0
LWPOLYLINE
  5
1b2
100
AcDbEntity
  8
box_20140320_155023_543584
 62
7
100
AcDbPolyline
 90
4
 70
0
 10
141.940139
 20
230.201611
 30
0.0
 10
149.390806
 20
230.201611
 30
0.0
 10
149.390806
 20
227.199472
 30
0.0
 10
156.742694
 20
227.199472
 30
0.0
  0
LWPOLYLINE
  5
1b3
100
AcDbEntity
  8
box_20140320_155023_543584
 62
7
100
AcDbPolyline
 90
2
 70
0
 10
156.742694
 20
230.201611
 30
0.0
 10
156.742694
 20
227.199472
 30
0.0
  0
LWPOLYLINE
  5
1b4
100
AcDbEntity
  8
box_20140320_155023_543584
 62
7
100
AcDbPolyline
 90
4
 70
0
 10
156.742694
 20
230.201611
 30
0.0
 10
164.193361
 20
230.201611
 30
0.0
 10
164.193361
 20
227.199472
 30
0.0
 10
171.545250
 20
227.199472
 30
0.0
  0
LWPOLYLINE
  5
1b5
100
AcDbEntity
  8
box_20140320_155023_543584
 62
7
100
AcDbPolyline
 90
2
 70
0
 10
171.545250
 20
230.201611
 30
0.0
 10
171.545250
 20
227.199472
 30
0.0
  0
LWPOLYLINE
  5
1b6
100
AcDbEntity
  8
box_20140320_155023_543584
 62
7
100
AcDbPolyline
 90
4
 70
0
 10
171.545250
 20
230.201611
 30
0.0
 10
178.999444
 20
230.201611
 30
0.0
 10
178.999444
 20
227.199472
 30
0.0
 10
186.351333
 20
227.199472
 30
0.0
  0
LWPOLYLINE
  5
1b7
100
AcDbEntity
  8
box_20140320_155023_543584
 62
7
100
AcDbPolyline
 90
2
 70
0
 10
186.351333
 20
230.201611
 30
0.0
 10
186.351333
 20
227.199472
 30
0.0
  0
LWPOLYLINE
  5
1b8
100
AcDbEntity
  8
box_20140320_155023_543584
 62
7
100
AcDbPolyline
 90
4
 70
0
 10
186.351333
 20
230.201611
 30
0.0
 10
193.802000
 20
230.201611
 30
0.0
 10
193.802000
 20
227.199472
 30
0.0
 10
201.153889
 20
227.199472
 30
0.0
  0
LWPOLYLINE
  5
1b9
100
AcDbEntity
  8
box_20140320_155023_543584
 62
7
100
AcDbPolyline
 90
2
 70
0
 10
201.153889
 20
230.201611
 30
0.0
 10
201.153889
 20
227.199472
 30
0.0
  0
LWPOLYLINE
  5
1ba
100
AcDbEntity
  8
box_20140320_155023_543584
 62
7
100
AcDbPolyline
 90
4
 70
0
 10
201.153889
 20
230.201611
 30
0.0
 10
208.608083
 20
230.201611
 30
0.0
 10
208.608083
 20
227.199472
 30
0.0
 10
215.959972
 20
227.199472
 30
0.0
  0
LWPOLYLINE
  5
1bb
100
AcDbEntity
  8
box_20140320_155023_543584
 62
7
100
AcDbPolyline
 90
2
 70
0
 10
215.959972
 20
230.201611
 30
0.0
 10
215.959972
 20
227.199472
 30
0.0
  0
LWPOLYLINE
  5
1bc
100
AcDbEntity
  8
box_20140320_155023_543584
 62
7
100
AcDbPolyline
 90
4
 70
0
 10
215.959972
 20
230.201611
 30
0.0
 10
223.410639
 20
230.201611
 30
0.0
 10
223.410639
 20
227.199472
 30
0.0
 10
230.762528
 20
227.199472
 30
0.0
  0
LWPOLYLINE
  5
1bd
100
AcDbEntity
  8
box_20140320_155023_543584
 62
7
100
AcDbPolyline
 90
2
 70
0
 10
230.762528
 20
230.201611
 30
0.0
 10
230.762528
 20
227.199472
 30
0.0
  0
LWPOLYLINE
  5
1be
100
AcDbEntity
  8
box_20140320_155023_543584
 62
7
100
AcDbPolyline
 90
4
 70
0
 10
230.762528
 20
230.201611
 30
0.0
 10
238.213194
 20
230.201611
 30
0.0
 10
238.213194
 20
227.199472
 30
0.0
 10
245.568611
 20
227.199472
 30
0.0
  0
LWPOLYLINE
  5
1bf
100
AcDbEntity
  8
box_20140320_155023_543584
 62
7
100
AcDbPolyline
 90
2
 70
0
 10
245.568611
 20
230.201611
 30
0.0
 10
245.568611
 20
227.199472
 30
0.0
  0
LWPOLYLINE
  5
1c0
100
AcDbEntity
  8
box_20140320_155023_543584
 62
7
100
AcDbPolyline
 90
4
 70
0
 10
245.568611
 20
230.201611
 30
0.0
 10
253.019278
 20
230.201611
 30
0.0
 10
253.019278
 20
227.199472
 30
0.0
 10
260.371167
 20
227.199472
 30
0.0
  0
LWPOLYLINE
  5
1c1
100
AcDbEntity
  8
box_20140320_155023_543584
 62
7
100
AcDbPolyline
 90
2
 70
0
 10
260.371167
 20
230.201611
 30
0.0
 10
260.371167
 20
227.199472
 30
0.0
  0
LWPOLYLINE
  5
1c2
100
AcDbEntity
  8
box_20140320_155023_543584
 62
7
100
AcDbPolyline
 90
4
 70
0
 10
260.371167
 20
230.201611
 30
0.0
 10
267.821833
 20
230.201611
 30
0.0
 10
267.821833
 20
227.199472
 30
0.0
 10
272.199806
 20
227.199472
 30
0.0
  0
LWPOLYLINE
  5
1c3
100
AcDbEntity
  8
box_20140320_155023_543584
 62
7
100
AcDbPolyline
 90
4
 70
0
 10
93.150972
 20
163.149139
 30
0.0
 10
93.150972
 20
167.908111
 30
0.0
 10
90.148833
 20
167.908111
 30
0.0
 10
90.148833
 20
175.743306
 30
0.0
  0
LWPOLYLINE
  5
1c4
100
AcDbEntity
  8
box_20140320_155023_543584
 62
7
100
AcDbPolyline
 90
2
 70
0
 10
93.150972
 20
175.743306
 30
0.0
 10
90.148833
 20
175.743306
 30
0.0
  0
LWPOLYLINE
  5
1c5
100
AcDbEntity
  8
box_20140320_155023_543584
 62
7
100
AcDbPolyline
 90
4
 70
0
 10
93.150972
 20
175.743306
 30
0.0
 10
93.150972
 20
183.476194
 30
0.0
 10
90.148833
 20
183.476194
 30
0.0
 10
90.148833
 20
191.307861
 30
0.0
  0
LWPOLYLINE
  5
1c6
100
AcDbEntity
  8
box_20140320_155023_543584
 62
7
100
AcDbPolyline
 90
2
 70
0
 10
93.150972
 20
191.307861
 30
0.0
 10
90.148833
 20
191.307861
 30
0.0
  0
LWPOLYLINE
  5
1c7
100
AcDbEntity
  8
box_20140320_155023_543584
 62
7
100
AcDbPolyline
 90
4
 70
0
 10
93.150972
 20
191.307861
 30
0.0
 10
93.150972
 20
199.040750
 30
0.0
 10
90.148833
 20
199.040750
 30
0.0
 10
90.148833
 20
206.875944
 30
0.0
  0
LWPOLYLINE
  5
1c8
100
AcDbEntity
  8
box_20140320_155023_543584
 62
7
100
AcDbPolyline
 90
2
 70
0
 10
93.150972
 20
206.875944
 30
0.0
 10
90.148833
 20
206.875944
 30
0.0
  0
LWPOLYLINE
  5
1c9
100
AcDbEntity
  8
box_20140320_155023_543584
 62
7
100
AcDbPolyline
 90
4
 70
0
 10
93.150972
 20
206.875944
 30
0.0
 10
93.150972
 20
214.608833
 30
0.0
 10
90.148833
 20
214.608833
 30
0.0
 10
90.148833
 20
222.440500
 30
0.0
  0
LWPOLYLINE
  5
1ca
100
AcDbEntity
  8
box_20140320_155023_543584
 62
7
100
AcDbPolyline
 90
2
 70
0
 10
93.150972
 20
222.440500
 30
0.0
 10
90.148833
 20
222.440500
 30
0.0
  0
LWPOLYLINE
  5
1cb
100
AcDbEntity
  8
box_20140320_155023_543584
 62
7
100
AcDbPolyline
 90
2
 70
0
 10
93.150972
 20
222.440500
 30
0.0
 10
93.150972
 20
227.199472
 30
0.0
  0
LWPOLYLINE
  5
1cc
100
AcDbEntity
  8
box_20140320_155023_543584
 62
7
100
AcDbPolyline
 90
2
 70
0
 10
272.199806
 20
163.149139
 30
0.0
 10
272.199806
 20
167.908111
 30
0.0
  0
LWPOLYLINE
  5
1cd
100
AcDbEntity
  8
box_20140320_155023_543584
 62
7
100
AcDbPolyline
 90
2
 70
0
 10
275.198417
 20
167.908111
 30
0.0
 10
272.199806
 20
167.908111
 30
0.0
  0
LWPOLYLINE
  5
1ce
100
AcDbEntity
  8
box_20140320_155023_543584
 62
7
100
AcDbPolyline
 90
4
 70
0
 10
275.198417
 20
167.908111
 30
0.0
 10
275.198417
 20
175.743306
 30
0.0
 10
272.199806
 20
175.743306
 30
0.0
 10
272.199806
 20
183.476194
 30
0.0
  0
LWPOLYLINE
  5
1cf
100
AcDbEntity
  8
box_20140320_155023_543584
 62
7
100
AcDbPolyline
 90
2
 70
0
 10
275.198417
 20
183.476194
 30
0.0
 10
272.199806
 20
183.476194
 30
0.0
  0
LWPOLYLINE
  5
1d0
100
AcDbEntity
  8
box_20140320_155023_543584
 62
7
100
AcDbPolyline
 90
4
 70
0
 10
275.198417
 20
183.476194
 30
0.0
 10
275.198417
 20
191.307861
 30
0.0
 10
272.199806
 20
191.307861
 30
0.0
 10
272.199806
 20
199.040750
 30
0.0
  0
LWPOLYLINE
  5
1d1
100
AcDbEntity
  8
box_20140320_155023_543584
 62
7
100
AcDbPolyline
 90
2
 70
0
 10
275.198417
 20
199.040750
 30
0.0
 10
272.199806
 20
199.040750
 30
0.0
  0
LWPOLYLINE
  5
1d2
100
AcDbEntity
  8
box_20140320_155023_543584
 62
7
100
AcDbPolyline
 90
4
 70
0
 10
275.198417
 20
199.040750
 30
0.0
 10
275.198417
 20
206.875944
 30
0.0
 10
272.199806
 20
206.875944
 30
0.0
 10
272.199806
 20
214.608833
 30
0.0
  0
LWPOLYLINE
  5
1d3
100
AcDbEntity
  8
box_20140320_155023_543584
 62
7
100
AcDbPolyline
 90
2
 70
0
 10
275.198417
 20
214.608833
 30
0.0
 10
272.199806
 20
214.608833
 30
0.0
  0
LWPOLYLINE
  5
1d4
100
AcDbEntity
  8
box_20140320_155023_543584
 62
7
100
AcDbPolyline
 90
4
 70
0
 10
275.198417
 20
214.608833
 30
0.0
 10
275.198417
 20
222.440500
 30
0.0
 10
272.199806
 20
222.440500
 30
0.0
 10
272.199806
 20
227.199472
 30
0.0
  0
LWPOLYLINE
  5
1d5
100
AcDbEntity
  8
box_20140320_155023_543584
 62
7
100
AcDbPolyline
 90
2
 70
0
 10
285.249056
 20
160.150528
 30
0.0
 10
293.059556
 20
160.150528
 30
0.0
  0
LWPOLYLINE
  5
1d6
100
AcDbEntity
  8
box_20140320_155023_543584
 62
7
100
AcDbPolyline
 90
2
 70
0
 10
293.059556
 20
163.149139
 30
0.0
 10
293.059556
 20
160.150528
 30
0.0
  0
LWPOLYLINE
  5
1d7
100
AcDbEntity
  8
box_20140320_155023_543584
 62
7
100
AcDbPolyline
 90
4
 70
0
 10
293.059556
 20
163.149139
 30
0.0
 10
300.792444
 20
163.149139
 30
0.0
 10
300.792444
 20
160.150528
 30
0.0
 10
308.624111
 20
160.150528
 30
0.0
  0
LWPOLYLINE
  5
1d8
100
AcDbEntity
  8
box_20140320_155023_543584
 62
7
100
AcDbPolyline
 90
2
 70
0
 10
308.624111
 20
163.149139
 30
0.0
 10
308.624111
 20
160.150528
 30
0.0
  0
LWPOLYLINE
  5
1d9
100
AcDbEntity
  8
box_20140320_155023_543584
 62
7
100
AcDbPolyline
 90
4
 70
0
 10
308.624111
 20
163.149139
 30
0.0
 10
316.357000
 20
163.149139
 30
0.0
 10
316.357000
 20
160.150528
 30
0.0
 10
324.192194
 20
160.150528
 30
0.0
  0
LWPOLYLINE
  5
1da
100
AcDbEntity
  8
box_20140320_155023_543584
 62
7
100
AcDbPolyline
 90
2
 70
0
 10
324.192194
 20
163.149139
 30
0.0
 10
324.192194
 20
160.150528
 30
0.0
  0
LWPOLYLINE
  5
1db
100
AcDbEntity
  8
box_20140320_155023_543584
 62
7
100
AcDbPolyline
 90
4
 70
0
 10
324.192194
 20
163.149139
 30
0.0
 10
331.925083
 20
163.149139
 30
0.0
 10
331.925083
 20
160.150528
 30
0.0
 10
339.756750
 20
160.150528
 30
0.0
  0
LWPOLYLINE
  5
1dc
100
AcDbEntity
  8
box_20140320_155023_543584
 62
7
100
AcDbPolyline
 90
2
 70
0
 10
339.756750
 20
163.149139
 30
0.0
 10
339.756750
 20
160.150528
 30
0.0
  0
LWPOLYLINE
  5
1dd
100
AcDbEntity
  8
box_20140320_155023_543584
 62
7
100
AcDbPolyline
 90
4
 70
0
 10
339.756750
 20
163.149139
 30
0.0
 10
347.493167
 20
163.149139
 30
0.0
 10
347.493167
 20
160.150528
 30
0.0
 10
352.301528
 20
160.150528
 30
0.0
  0
LWPOLYLINE
  5
1de
100
AcDbEntity
  8
box_20140320_155023_543584
 62
7
100
AcDbPolyline
 90
4
 70
0
 10
285.249056
 20
300.199778
 30
0.0
 10
293.059556
 20
300.199778
 30
0.0
 10
293.059556
 20
297.201167
 30
0.0
 10
300.792444
 20
297.201167
 30
0.0
  0
LWPOLYLINE
  5
1df
100
AcDbEntity
  8
box_20140320_155023_543584
 62
7
100
AcDbPolyline
 90
2
 70
0
 10
300.792444
 20
300.199778
 30
0.0
 10
300.792444
 20
297.201167
 30
0.0
  0
LWPOLYLINE
  5
1e0
100
AcDbEntity
  8
box_20140320_155023_543584
 62
7
100
AcDbPolyline
 90
4
 70
0
 10
300.792444
 20
300.199778
 30
0.0
 10
308.624111
 20
300.199778
 30
0.0
 10
308.624111
 20
297.201167
 30
0.0
 10
316.357000
 20
297.201167
 30
0.0
  0
LWPOLYLINE
  5
1e1
100
AcDbEntity
  8
box_20140320_155023_543584
 62
7
100
AcDbPolyline
 90
2
 70
0
 10
316.357000
 20
300.199778
 30
0.0
 10
316.357000
 20
297.201167
 30
0.0
  0
LWPOLYLINE
  5
1e2
100
AcDbEntity
  8
box_20140320_155023_543584
 62
7
100
AcDbPolyline
 90
4
 70
0
 10
316.357000
 20
300.199778
 30
0.0
 10
324.192194
 20
300.199778
 30
0.0
 10
324.192194
 20
297.201167
 30
0.0
 10
331.925083
 20
297.201167
 30
0.0
  0
LWPOLYLINE
  5
1e3
100
AcDbEntity
  8
box_20140320_155023_543584
 62
7
100
AcDbPolyline
 90
2
 70
0
 10
331.925083
 20
300.199778
 30
0.0
 10
331.925083
 20
297.201167
 30
0.0
  0
LWPOLYLINE
  5
1e4
100
AcDbEntity
  8
box_20140320_155023_543584
 62
7
100
AcDbPolyline
 90
4
 70
0
 10
331.925083
 20
300.199778
 30
0.0
 10
339.756750
 20
300.199778
 30
0.0
 10
339.756750
 20
297.201167
 30
0.0
 10
347.493167
 20
297.201167
 30
0.0
  0
LWPOLYLINE
  5
1e5
100
AcDbEntity
  8
box_20140320_155023_543584
 62
7
100
AcDbPolyline
 90
2
 70
0
 10
347.493167
 20
300.199778
 30
0.0
 10
347.493167
 20
297.201167
 30
0.0
  0
LWPOLYLINE
  5
1e6
100
AcDbEntity
  8
box_20140320_155023_543584
 62
7
100
AcDbPolyline
 90
2
 70
0
 10
347.493167
 20
300.199778
 30
0.0
 10
352.301528
 20
300.199778
 30
0.0
  0
LWPOLYLINE
  5
1e7
100
AcDbEntity
  8
box_20140320_155023_543584
 62
7
100
AcDbPolyline
 90
2
 70
0
 10
285.249056
 20
160.150528
 30
0.0
 10
285.249056
 20
167.544750
 30
0.0
  0
LWPOLYLINE
  5
1e8
100
AcDbEntity
  8
box_20140320_155023_543584
 62
7
100
AcDbPolyline
 90
2
 70
0
 10
288.251194
 20
167.544750
 30
0.0
 10
285.249056
 20
167.544750
 30
0.0
  0
LWPOLYLINE
  5
1e9
100
AcDbEntity
  8
box_20140320_155023_543584
 62
7
100
AcDbPolyline
 90
4
 70
0
 10
288.251194
 20
167.544750
 30
0.0
 10
288.251194
 20
174.868417
 30
0.0
 10
285.249056
 20
174.868417
 30
0.0
 10
285.249056
 20
182.287333
 30
0.0
  0
LWPOLYLINE
  5
1ea
100
AcDbEntity
  8
box_20140320_155023_543584
 62
7
100
AcDbPolyline
 90
2
 70
0
 10
288.251194
 20
182.287333
 30
0.0
 10
285.249056
 20
182.287333
 30
0.0
  0
LWPOLYLINE
  5
1eb
100
AcDbEntity
  8
box_20140320_155023_543584
 62
7
100
AcDbPolyline
 90
4
 70
0
 10
288.251194
 20
182.287333
 30
0.0
 10
288.251194
 20
189.607472
 30
0.0
 10
285.249056
 20
189.607472
 30
0.0
 10
285.249056
 20
197.029917
 30
0.0
  0
LWPOLYLINE
  5
1ec
100
AcDbEntity
  8
box_20140320_155023_543584
 62
7
100
AcDbPolyline
 90
2
 70
0
 10
288.251194
 20
197.029917
 30
0.0
 10
285.249056
 20
197.029917
 30
0.0
  0
LWPOLYLINE
  5
1ed
100
AcDbEntity
  8
box_20140320_155023_543584
 62
7
100
AcDbPolyline
 90
4
 70
0
 10
288.251194
 20
197.029917
 30
0.0
 10
288.251194
 20
204.350056
 30
0.0
 10
285.249056
 20
204.350056
 30
0.0
 10
285.249056
 20
211.772500
 30
0.0
  0
LWPOLYLINE
  5
1ee
100
AcDbEntity
  8
box_20140320_155023_543584
 62
7
100
AcDbPolyline
 90
2
 70
0
 10
288.251194
 20
211.772500
 30
0.0
 10
285.249056
 20
211.772500
 30
0.0
  0
LWPOLYLINE
  5
1ef
100
AcDbEntity
  8
box_20140320_155023_543584
 62
7
100
AcDbPolyline
 90
4
 70
0
 10
288.251194
 20
211.772500
 30
0.0
 10
288.251194
 20
219.092639
 30
0.0
 10
285.249056
 20
219.092639
 30
0.0
 10
285.249056
 20
226.515083
 30
0.0
  0
LWPOLYLINE
  5
1f0
100
AcDbEntity
  8
box_20140320_155023_543584
 62
7
100
AcDbPolyline
 90
2
 70
0
 10
288.251194
 20
226.515083
 30
0.0
 10
285.249056
 20
226.515083
 30
0.0
  0
LWPOLYLINE
  5
1f1
100
AcDbEntity
  8
box_20140320_155023_543584
 62
7
100
AcDbPolyline
 90
4
 70
0
 10
288.251194
 20
226.515083
 30
0.0
 10
288.251194
 20
233.835222
 30
0.0
 10
285.249056
 20
233.835222
 30
0.0
 10
285.249056
 20
241.257667
 30
0.0
  0
LWPOLYLINE
  5
1f2
100
AcDbEntity
  8
box_20140320_155023_543584
 62
7
100
AcDbPolyline
 90
2
 70
0
 10
288.251194
 20
241.257667
 30
0.0
 10
285.249056
 20
241.257667
 30
0.0
  0
LWPOLYLINE
  5
1f3
100
AcDbEntity
  8
box_20140320_155023_543584
 62
7
100
AcDbPolyline
 90
4
 70
0
 10
288.251194
 20
241.257667
 30
0.0
 10
288.251194
 20
248.577806
 30
0.0
 10
285.249056
 20
248.577806
 30
0.0
 10
285.249056
 20
256.000250
 30
0.0
  0
LWPOLYLINE
  5
1f4
100
AcDbEntity
  8
box_20140320_155023_543584
 62
7
100
AcDbPolyline
 90
2
 70
0
 10
288.251194
 20
256.000250
 30
0.0
 10
285.249056
 20
256.000250
 30
0.0
  0
LWPOLYLINE
  5
1f5
100
AcDbEntity
  8
box_20140320_155023_543584
 62
7
100
AcDbPolyline
 90
4
 70
0
 10
288.251194
 20
256.000250
 30
0.0
 10
288.251194
 20
263.320389
 30
0.0
 10
285.249056
 20
263.320389
 30
0.0
 10
285.249056
 20
270.739306
 30
0.0
  0
LWPOLYLINE
  5
1f6
100
AcDbEntity
  8
box_20140320_155023_543584
 62
7
100
AcDbPolyline
 90
2
 70
0
 10
288.251194
 20
270.739306
 30
0.0
 10
285.249056
 20
270.739306
 30
0.0
  0
LWPOLYLINE
  5
1f7
100
AcDbEntity
  8
box_20140320_155023_543584
 62
7
100
AcDbPolyline
 90
4
 70
0
 10
288.251194
 20
270.739306
 30
0.0
 10
288.251194
 20
278.062972
 30
0.0
 10
285.249056
 20
278.062972
 30
0.0
 10
285.249056
 20
285.481889
 30
0.0
  0
LWPOLYLINE
  5
1f8
100
AcDbEntity
  8
box_20140320_155023_543584
 62
7
100
AcDbPolyline
 90
2
 70
0
 10
288.251194
 20
285.481889
 30
0.0
 10
285.249056
 20
285.481889
 30
0.0
  0
LWPOLYLINE
  5
1f9
100
AcDbEntity
  8
box_20140320_155023_543584
 62
7
100
AcDbPolyline
 90
4
 70
0
 10
288.251194
 20
285.481889
 30
0.0
 10
288.251194
 20
292.805556
 30
0.0
 10
285.249056
 20
292.805556
 30
0.0
 10
285.249056
 20
300.199778
 30
0.0
  0
LWPOLYLINE
  5
1fa
100
AcDbEntity
  8
box_20140320_155023_543584
 62
7
100
AcDbPolyline
 90
2
 70
0
 10
352.301528
 20
160.150528
 30
0.0
 10
352.301528
 20
167.495361
 30
0.0
  0
LWPOLYLINE
  5
1fb
100
AcDbEntity
  8
box_20140320_155023_543584
 62
7
100
AcDbPolyline
 90
2
 70
0
 10
355.300139
 20
167.495361
 30
0.0
 10
352.301528
 20
167.495361
 30
0.0
  0
LWPOLYLINE
  5
1fc
100
AcDbEntity
  8
box_20140320_155023_543584
 62
7
100
AcDbPolyline
 90
4
 70
0
 10
355.300139
 20
167.495361
 30
0.0
 10
355.300139
 20
174.917806
 30
0.0
 10
352.301528
 20
174.917806
 30
0.0
 10
352.301528
 20
182.237944
 30
0.0
  0
LWPOLYLINE
  5
1fd
100
AcDbEntity
  8
box_20140320_155023_543584
 62
7
100
AcDbPolyline
 90
2
 70
0
 10
355.300139
 20
182.237944
 30
0.0
 10
352.301528
 20
182.237944
 30
0.0
  0
LWPOLYLINE
  5
1fe
100
AcDbEntity
  8
box_20140320_155023_543584
 62
7
100
AcDbPolyline
 90
4
 70
0
 10
355.300139
 20
182.237944
 30
0.0
 10
355.300139
 20
189.660389
 30
0.0
 10
352.301528
 20
189.660389
 30
0.0
 10
352.301528
 20
196.980528
 30
0.0
  0
LWPOLYLINE
  5
1ff
100
AcDbEntity
  8
box_20140320_155023_543584
 62
7
100
AcDbPolyline
 90
2
 70
0
 10
355.300139
 20
196.980528
 30
0.0
 10
352.301528
 20
196.980528
 30
0.0
  0
LWPOLYLINE
  5
200
100
AcDbEntity
  8
box_20140320_155023_543584
 62
7
100
AcDbPolyline
 90
4
 70
0
 10
355.300139
 20
196.980528
 30
0.0
 10
355.300139
 20
204.402972
 30
0.0
 10
352.301528
 20
204.402972
 30
0.0
 10
352.301528
 20
211.723111
 30
0.0
  0
LWPOLYLINE
  5
201
100
AcDbEntity
  8
box_20140320_155023_543584
 62
7
100
AcDbPolyline
 90
2
 70
0
 10
355.300139
 20
211.723111
 30
0.0
 10
352.301528
 20
211.723111
 30
0.0
  0
LWPOLYLINE
  5
202
100
AcDbEntity
  8
box_20140320_155023_543584
 62
7
100
AcDbPolyline
 90
4
 70
0
 10
355.300139
 20
211.723111
 30
0.0
 10
355.300139
 20
219.142028
 30
0.0
 10
352.301528
 20
219.142028
 30
0.0
 10
352.301528
 20
226.465694
 30
0.0
  0
LWPOLYLINE
  5
203
100
AcDbEntity
  8
box_20140320_155023_543584
 62
7
100
AcDbPolyline
 90
2
 70
0
 10
355.300139
 20
226.465694
 30
0.0
 10
352.301528
 20
226.465694
 30
0.0
  0
LWPOLYLINE
  5
204
100
AcDbEntity
  8
box_20140320_155023_543584
 62
7
100
AcDbPolyline
 90
4
 70
0
 10
355.300139
 20
226.465694
 30
0.0
 10
355.300139
 20
233.884611
 30
0.0
 10
352.301528
 20
233.884611
 30
0.0
 10
352.301528
 20
241.208278
 30
0.0
  0
LWPOLYLINE
  5
205
100
AcDbEntity
  8
box_20140320_155023_543584
 62
7
100
AcDbPolyline
 90
2
 70
0
 10
355.300139
 20
241.208278
 30
0.0
 10
352.301528
 20
241.208278
 30
0.0
  0
LWPOLYLINE
  5
206
100
AcDbEntity
  8
box_20140320_155023_543584
 62
7
100
AcDbPolyline
 90
4
 70
0
 10
355.300139
 20
241.208278
 30
0.0
 10
355.300139
 20
248.627194
 30
0.0
 10
352.301528
 20
248.627194
 30
0.0
 10
352.301528
 20
255.947333
 30
0.0
  0
LWPOLYLINE
  5
207
100
AcDbEntity
  8
box_20140320_155023_543584
 62
7
100
AcDbPolyline
 90
2
 70
0
 10
355.300139
 20
255.947333
 30
0.0
 10
352.301528
 20
255.947333
 30
0.0
  0
LWPOLYLINE
  5
208
100
AcDbEntity
  8
box_20140320_155023_543584
 62
7
100
AcDbPolyline
 90
4
 70
0
 10
355.300139
 20
255.947333
 30
0.0
 10
355.300139
 20
263.369778
 30
0.0
 10
352.301528
 20
263.369778
 30
0.0
 10
352.301528
 20
270.689917
 30
0.0
  0
LWPOLYLINE
  5
209
100
AcDbEntity
  8
box_20140320_155023_543584
 62
7
100
AcDbPolyline
 90
2
 70
0
 10
355.300139
 20
270.689917
 30
0.0
 10
352.301528
 20
270.689917
 30
0.0
  0
LWPOLYLINE
  5
20a
100
AcDbEntity
  8
box_20140320_155023_543584
 62
7
100
AcDbPolyline
 90
4
 70
0
 10
355.300139
 20
270.689917
 30
0.0
 10
355.300139
 20
278.112361
 30
0.0
 10
352.301528
 20
278.112361
 30
0.0
 10
352.301528
 20
285.432500
 30
0.0
  0
LWPOLYLINE
  5
20b
100
AcDbEntity
  8
box_20140320_155023_543584
 62
7
100
AcDbPolyline
 90
2
 70
0
 10
355.300139
 20
285.432500
 30
0.0
 10
352.301528
 20
285.432500
 30
0.0
  0
LWPOLYLINE
  5
20c
100
AcDbEntity
  8
box_20140320_155023_543584
 62
7
100
AcDbPolyline
 90
4
 70
0
 10
355.300139
 20
285.432500
 30
0.0
 10
355.300139
 20
292.854944
 30
0.0
 10
352.301528
 20
292.854944
 30
0.0
 10
352.301528
 20
300.199778
 30
0.0
  0
LWPOLYLINE
  5
20d
100
AcDbEntity
  8
box_20140320_155023_543584
 62
7
100
AcDbPolyline
 90
2
 70
0
 10
90.148833
 20
240.248722
 30
0.0
 10
97.578333
 20
240.248722
 30
0.0
  0
LWPOLYLINE
  5
20e
100
AcDbEntity
  8
box_20140320_155023_543584
 62
7
100
AcDbPolyline
 90
2
 70
0
 10
97.578333
 20
243.250861
 30
0.0
 10
97.578333
 20
240.248722
 30
0.0
  0
LWPOLYLINE
  5
20f
100
AcDbEntity
  8
box_20140320_155023_543584
 62
7
100
AcDbPolyline
 90
4
 70
0
 10
97.578333
 20
243.250861
 30
0.0
 10
104.930222
 20
243.250861
 30
0.0
 10
104.930222
 20
240.248722
 30
0.0
 10
112.380889
 20
240.248722
 30
0.0
  0
LWPOLYLINE
  5
210
100
AcDbEntity
  8
box_20140320_155023_543584
 62
7
100
AcDbPolyline
 90
2
 70
0
 10
112.380889
 20
243.250861
 30
0.0
 10
112.380889
 20
240.248722
 30
0.0
  0
LWPOLYLINE
  5
211
100
AcDbEntity
  8
box_20140320_155023_543584
 62
7
100
AcDbPolyline
 90
4
 70
0
 10
112.380889
 20
243.250861
 30
0.0
 10
119.732778
 20
243.250861
 30
0.0
 10
119.732778
 20
240.248722
 30
0.0
 10
127.183444
 20
240.248722
 30
0.0
  0
LWPOLYLINE
  5
212
100
AcDbEntity
  8
box_20140320_155023_543584
 62
7
100
AcDbPolyline
 90
2
 70
0
 10
127.183444
 20
243.250861
 30
0.0
 10
127.183444
 20
240.248722
 30
0.0
  0
LWPOLYLINE
  5
213
100
AcDbEntity
  8
box_20140320_155023_543584
 62
7
100
AcDbPolyline
 90
4
 70
0
 10
127.183444
 20
243.250861
 30
0.0
 10
134.535333
 20
243.250861
 30
0.0
 10
134.535333
 20
240.248722
 30
0.0
 10
141.989528
 20
240.248722
 30
0.0
  0
LWPOLYLINE
  5
214
100
AcDbEntity
  8
box_20140320_155023_543584
 62
7
100
AcDbPolyline
 90
2
 70
0
 10
141.989528
 20
243.250861
 30
0.0
 10
141.989528
 20
240.248722
 30
0.0
  0
LWPOLYLINE
  5
215
100
AcDbEntity
  8
box_20140320_155023_543584
 62
7
100
AcDbPolyline
 90
4
 70
0
 10
141.989528
 20
243.250861
 30
0.0
 10
149.341417
 20
243.250861
 30
0.0
 10
149.341417
 20
240.248722
 30
0.0
 10
156.792083
 20
240.248722
 30
0.0
  0
LWPOLYLINE
  5
216
100
AcDbEntity
  8
box_20140320_155023_543584
 62
7
100
AcDbPolyline
 90
2
 70
0
 10
156.792083
 20
243.250861
 30
0.0
 10
156.792083
 20
240.248722
 30
0.0
  0
LWPOLYLINE
  5
217
100
AcDbEntity
  8
box_20140320_155023_543584
 62
7
100
AcDbPolyline
 90
4
 70
0
 10
156.792083
 20
243.250861
 30
0.0
 10
164.143972
 20
243.250861
 30
0.0
 10
164.143972
 20
240.248722
 30
0.0
 10
171.598167
 20
240.248722
 30
0.0
  0
LWPOLYLINE
  5
218
100
AcDbEntity
  8
box_20140320_155023_543584
 62
7
100
AcDbPolyline
 90
2
 70
0
 10
171.598167
 20
243.250861
 30
0.0
 10
171.598167
 20
240.248722
 30
0.0
  0
LWPOLYLINE
  5
219
100
AcDbEntity
  8
box_20140320_155023_543584
 62
7
100
AcDbPolyline
 90
4
 70
0
 10
171.598167
 20
243.250861
 30
0.0
 10
178.950056
 20
243.250861
 30
0.0
 10
178.950056
 20
240.248722
 30
0.0
 10
186.400722
 20
240.248722
 30
0.0
  0
LWPOLYLINE
  5
21a
100
AcDbEntity
  8
box_20140320_155023_543584
 62
7
100
AcDbPolyline
 90
2
 70
0
 10
186.400722
 20
243.250861
 30
0.0
 10
186.400722
 20
240.248722
 30
0.0
  0
LWPOLYLINE
  5
21b
100
AcDbEntity
  8
box_20140320_155023_543584
 62
7
100
AcDbPolyline
 90
4
 70
0
 10
186.400722
 20
243.250861
 30
0.0
 10
193.752611
 20
243.250861
 30
0.0
 10
193.752611
 20
240.248722
 30
0.0
 10
201.203278
 20
240.248722
 30
0.0
  0
LWPOLYLINE
  5
21c
100
AcDbEntity
  8
box_20140320_155023_543584
 62
7
100
AcDbPolyline
 90
2
 70
0
 10
201.203278
 20
243.250861
 30
0.0
 10
201.203278
 20
240.248722
 30
0.0
  0
LWPOLYLINE
  5
21d
100
AcDbEntity
  8
box_20140320_155023_543584
 62
7
100
AcDbPolyline
 90
4
 70
0
 10
201.203278
 20
243.250861
 30
0.0
 10
208.555167
 20
243.250861
 30
0.0
 10
208.555167
 20
240.248722
 30
0.0
 10
216.009361
 20
240.248722
 30
0.0
  0
LWPOLYLINE
  5
21e
100
AcDbEntity
  8
box_20140320_155023_543584
 62
7
100
AcDbPolyline
 90
2
 70
0
 10
216.009361
 20
243.250861
 30
0.0
 10
216.009361
 20
240.248722
 30
0.0
  0
LWPOLYLINE
  5
21f
100
AcDbEntity
  8
box_20140320_155023_543584
 62
7
100
AcDbPolyline
 90
4
 70
0
 10
216.009361
 20
243.250861
 30
0.0
 10
223.361250
 20
243.250861
 30
0.0
 10
223.361250
 20
240.248722
 30
0.0
 10
230.811917
 20
240.248722
 30
0.0
  0
LWPOLYLINE
  5
220
100
AcDbEntity
  8
box_20140320_155023_543584
 62
7
100
AcDbPolyline
 90
2
 70
0
 10
230.811917
 20
243.250861
 30
0.0
 10
230.811917
 20
240.248722
 30
0.0
  0
LWPOLYLINE
  5
221
100
AcDbEntity
  8
box_20140320_155023_543584
 62
7
100
AcDbPolyline
 90
4
 70
0
 10
230.811917
 20
243.250861
 30
0.0
 10
238.163806
 20
243.250861
 30
0.0
 10
238.163806
 20
240.248722
 30
0.0
 10
245.618000
 20
240.248722
 30
0.0
  0
LWPOLYLINE
  5
222
100
AcDbEntity
  8
box_20140320_155023_543584
 62
7
100
AcDbPolyline
 90
2
 70
0
 10
245.618000
 20
243.250861
 30
0.0
 10
245.618000
 20
240.248722
 30
0.0
  0
LWPOLYLINE
  5
223
100
AcDbEntity
  8
box_20140320_155023_543584
 62
7
100
AcDbPolyline
 90
4
 70
0
 10
245.618000
 20
243.250861
 30
0.0
 10
252.969889
 20
243.250861
 30
0.0
 10
252.969889
 20
240.248722
 30
0.0
 10
260.420556
 20
240.248722
 30
0.0
  0
LWPOLYLINE
  5
224
100
AcDbEntity
  8
box_20140320_155023_543584
 62
7
100
AcDbPolyline
 90
2
 70
0
 10
260.420556
 20
243.250861
 30
0.0
 10
260.420556
 20
240.248722
 30
0.0
  0
LWPOLYLINE
  5
225
100
AcDbEntity
  8
box_20140320_155023_543584
 62
7
100
AcDbPolyline
 90
4
 70
0
 10
260.420556
 20
243.250861
 30
0.0
 10
267.772444
 20
243.250861
 30
0.0
 10
267.772444
 20
240.248722
 30
0.0
 10
272.199806
 20
240.248722
 30
0.0
  0
LWPOLYLINE
  5
226
100
AcDbEntity
  8
box_20140320_155023_543584
 62
7
100
AcDbPolyline
 90
4
 70
0
 10
90.148833
 20
380.301500
 30
0.0
 10
97.578333
 20
380.301500
 30
0.0
 10
97.578333
 20
377.299361
 30
0.0
 10
104.930222
 20
377.299361
 30
0.0
  0
LWPOLYLINE
  5
227
100
AcDbEntity
  8
box_20140320_155023_543584
 62
7
100
AcDbPolyline
 90
2
 70
0
 10
104.930222
 20
380.301500
 30
0.0
 10
104.930222
 20
377.299361
 30
0.0
  0
LWPOLYLINE
  5
228
100
AcDbEntity
  8
box_20140320_155023_543584
 62
7
100
AcDbPolyline
 90
4
 70
0
 10
104.930222
 20
380.301500
 30
0.0
 10
112.380889
 20
380.301500
 30
0.0
 10
112.380889
 20
377.299361
 30
0.0
 10
119.732778
 20
377.299361
 30
0.0
  0
LWPOLYLINE
  5
229
100
AcDbEntity
  8
box_20140320_155023_543584
 62
7
100
AcDbPolyline
 90
2
 70
0
 10
119.732778
 20
380.301500
 30
0.0
 10
119.732778
 20
377.299361
 30
0.0
  0
LWPOLYLINE
  5
22a
100
AcDbEntity
  8
box_20140320_155023_543584
 62
7
100
AcDbPolyline
 90
4
 70
0
 10
119.732778
 20
380.301500
 30
0.0
 10
127.183444
 20
380.301500
 30
0.0
 10
127.183444
 20
377.299361
 30
0.0
 10
134.535333
 20
377.299361
 30
0.0
  0
LWPOLYLINE
  5
22b
100
AcDbEntity
  8
box_20140320_155023_543584
 62
7
100
AcDbPolyline
 90
2
 70
0
 10
134.535333
 20
380.301500
 30
0.0
 10
134.535333
 20
377.299361
 30
0.0
  0
LWPOLYLINE
  5
22c
100
AcDbEntity
  8
box_20140320_155023_543584
 62
7
100
AcDbPolyline
 90
4
 70
0
 10
134.535333
 20
380.301500
 30
0.0
 10
141.989528
 20
380.301500
 30
0.0
 10
141.989528
 20
377.299361
 30
0.0
 10
149.341417
 20
377.299361
 30
0.0
  0
LWPOLYLINE
  5
22d
100
AcDbEntity
  8
box_20140320_155023_543584
 62
7
100
AcDbPolyline
 90
2
 70
0
 10
149.341417
 20
380.301500
 30
0.0
 10
149.341417
 20
377.299361
 30
0.0
  0
LWPOLYLINE
  5
22e
100
AcDbEntity
  8
box_20140320_155023_543584
 62
7
100
AcDbPolyline
 90
4
 70
0
 10
149.341417
 20
380.301500
 30
0.0
 10
156.792083
 20
380.301500
 30
0.0
 10
156.792083
 20
377.299361
 30
0.0
 10
164.143972
 20
377.299361
 30
0.0
  0
LWPOLYLINE
  5
22f
100
AcDbEntity
  8
box_20140320_155023_543584
 62
7
100
AcDbPolyline
 90
2
 70
0
 10
164.143972
 20
380.301500
 30
0.0
 10
164.143972
 20
377.299361
 30
0.0
  0
LWPOLYLINE
  5
230
100
AcDbEntity
  8
box_20140320_155023_543584
 62
7
100
AcDbPolyline
 90
4
 70
0
 10
164.143972
 20
380.301500
 30
0.0
 10
171.598167
 20
380.301500
 30
0.0
 10
171.598167
 20
377.299361
 30
0.0
 10
178.950056
 20
377.299361
 30
0.0
  0
LWPOLYLINE
  5
231
100
AcDbEntity
  8
box_20140320_155023_543584
 62
7
100
AcDbPolyline
 90
2
 70
0
 10
178.950056
 20
380.301500
 30
0.0
 10
178.950056
 20
377.299361
 30
0.0
  0
LWPOLYLINE
  5
232
100
AcDbEntity
  8
box_20140320_155023_543584
 62
7
100
AcDbPolyline
 90
4
 70
0
 10
178.950056
 20
380.301500
 30
0.0
 10
186.400722
 20
380.301500
 30
0.0
 10
186.400722
 20
377.299361
 30
0.0
 10
193.752611
 20
377.299361
 30
0.0
  0
LWPOLYLINE
  5
233
100
AcDbEntity
  8
box_20140320_155023_543584
 62
7
100
AcDbPolyline
 90
2
 70
0
 10
193.752611
 20
380.301500
 30
0.0
 10
193.752611
 20
377.299361
 30
0.0
  0
LWPOLYLINE
  5
234
100
AcDbEntity
  8
box_20140320_155023_543584
 62
7
100
AcDbPolyline
 90
4
 70
0
 10
193.752611
 20
380.301500
 30
0.0
 10
201.203278
 20
380.301500
 30
0.0
 10
201.203278
 20
377.299361
 30
0.0
 10
208.555167
 20
377.299361
 30
0.0
  0
LWPOLYLINE
  5
235
100
AcDbEntity
  8
box_20140320_155023_543584
 62
7
100
AcDbPolyline
 90
2
 70
0
 10
208.555167
 20
380.301500
 30
0.0
 10
208.555167
 20
377.299361
 30
0.0
  0
LWPOLYLINE
  5
236
100
AcDbEntity
  8
box_20140320_155023_543584
 62
7
100
AcDbPolyline
 90
4
 70
0
 10
208.555167
 20
380.301500
 30
0.0
 10
216.009361
 20
380.301500
 30
0.0
 10
216.009361
 20
377.299361
 30
0.0
 10
223.361250
 20
377.299361
 30
0.0
  0
LWPOLYLINE
  5
237
100
AcDbEntity
  8
box_20140320_155023_543584
 62
7
100
AcDbPolyline
 90
2
 70
0
 10
223.361250
 20
380.301500
 30
0.0
 10
223.361250
 20
377.299361
 30
0.0
  0
LWPOLYLINE
  5
238
100
AcDbEntity
  8
box_20140320_155023_543584
 62
7
100
AcDbPolyline
 90
4
 70
0
 10
223.361250
 20
380.301500
 30
0.0
 10
230.811917
 20
380.301500
 30
0.0
 10
230.811917
 20
377.299361
 30
0.0
 10
238.163806
 20
377.299361
 30
0.0
  0
LWPOLYLINE
  5
239
100
AcDbEntity
  8
box_20140320_155023_543584
 62
7
100
AcDbPolyline
 90
2
 70
0
 10
238.163806
 20
380.301500
 30
0.0
 10
238.163806
 20
377.299361
 30
0.0
  0
LWPOLYLINE
  5
23a
100
AcDbEntity
  8
box_20140320_155023_543584
 62
7
100
AcDbPolyline
 90
4
 70
0
 10
238.163806
 20
380.301500
 30
0.0
 10
245.618000
 20
380.301500
 30
0.0
 10
245.618000
 20
377.299361
 30
0.0
 10
252.969889
 20
377.299361
 30
0.0
  0
LWPOLYLINE
  5
23b
100
AcDbEntity
  8
box_20140320_155023_543584
 62
7
100
AcDbPolyline
 90
2
 70
0
 10
252.969889
 20
380.301500
 30
0.0
 10
252.969889
 20
377.299361
 30
0.0
  0
LWPOLYLINE
  5
23c
100
AcDbEntity
  8
box_20140320_155023_543584
 62
7
100
AcDbPolyline
 90
4
 70
0
 10
252.969889
 20
380.301500
 30
0.0
 10
260.420556
 20
380.301500
 30
0.0
 10
260.420556
 20
377.299361
 30
0.0
 10
267.772444
 20
377.299361
 30
0.0
  0
LWPOLYLINE
  5
23d
100
AcDbEntity
  8
box_20140320_155023_543584
 62
7
100
AcDbPolyline
 90
2
 70
0
 10
267.772444
 20
380.301500
 30
0.0
 10
267.772444
 20
377.299361
 30
0.0
  0
LWPOLYLINE
  5
23e
100
AcDbEntity
  8
box_20140320_155023_543584
 62
7
100
AcDbPolyline
 90
2
 70
0
 10
267.772444
 20
380.301500
 30
0.0
 10
272.199806
 20
380.301500
 30
0.0
  0
LWPOLYLINE
  5
23f
100
AcDbEntity
  8
box_20140320_155023_543584
 62
7
100
AcDbPolyline
 90
2
 70
0
 10
90.148833
 20
240.248722
 30
0.0
 10
90.148833
 20
247.646472
 30
0.0
  0
LWPOLYLINE
  5
240
100
AcDbEntity
  8
box_20140320_155023_543584
 62
7
100
AcDbPolyline
 90
2
 70
0
 10
93.150972
 20
247.646472
 30
0.0
 10
90.148833
 20
247.646472
 30
0.0
  0
LWPOLYLINE
  5
241
100
AcDbEntity
  8
box_20140320_155023_543584
 62
7
100
AcDbPolyline
 90
4
 70
0
 10
93.150972
 20
247.646472
 30
0.0
 10
93.150972
 20
254.966611
 30
0.0
 10
90.148833
 20
254.966611
 30
0.0
 10
90.148833
 20
262.389056
 30
0.0
  0
LWPOLYLINE
  5
242
100
AcDbEntity
  8
box_20140320_155023_543584
 62
7
100
AcDbPolyline
 90
2
 70
0
 10
93.150972
 20
262.389056
 30
0.0
 10
90.148833
 20
262.389056
 30
0.0
  0
LWPOLYLINE
  5
243
100
AcDbEntity
  8
box_20140320_155023_543584
 62
7
100
AcDbPolyline
 90
4
 70
0
 10
93.150972
 20
262.389056
 30
0.0
 10
93.150972
 20
269.709194
 30
0.0
 10
90.148833
 20
269.709194
 30
0.0
 10
90.148833
 20
277.131639
 30
0.0
  0
LWPOLYLINE
  5
244
100
AcDbEntity
  8
box_20140320_155023_543584
 62
7
100
AcDbPolyline
 90
2
 70
0
 10
93.150972
 20
277.131639
 30
0.0
 10
90.148833
 20
277.131639
 30
0.0
  0
LWPOLYLINE
  5
245
100
AcDbEntity
  8
box_20140320_155023_543584
 62
7
100
AcDbPolyline
 90
4
 70
0
 10
93.150972
 20
277.131639
 30
0.0
 10
93.150972
 20
284.451778
 30
0.0
 10
90.148833
 20
284.451778
 30
0.0
 10
90.148833
 20
291.870694
 30
0.0
  0
LWPOLYLINE
  5
246
100
AcDbEntity
  8
box_20140320_155023_543584
 62
7
100
AcDbPolyline
 90
2
 70
0
 10
93.150972
 20
291.870694
 30
0.0
 10
90.148833
 20
291.870694
 30
0.0
  0
LWPOLYLINE
  5
247
100
AcDbEntity
  8
box_20140320_155023_543584
 62
7
100
AcDbPolyline
 90
4
 70
0
 10
93.150972
 20
291.870694
 30
0.0
 10
93.150972
 20
299.194361
 30
0.0
 10
90.148833
 20
299.194361
 30
0.0
 10
90.148833
 20
306.613278
 30
0.0
  0
LWPOLYLINE
  5
248
100
AcDbEntity
  8
box_20140320_155023_543584
 62
7
100
AcDbPolyline
 90
2
 70
0
 10
93.150972
 20
306.613278
 30
0.0
 10
90.148833
 20
306.613278
 30
0.0
  0
LWPOLYLINE
  5
249
100
AcDbEntity
  8
box_20140320_155023_543584
 62
7
100
AcDbPolyline
 90
4
 70
0
 10
93.150972
 20
306.613278
 30
0.0
 10
93.150972
 20
313.936944
 30
0.0
 10
90.148833
 20
313.936944
 30
0.0
 10
90.148833
 20
321.355861
 30
0.0
  0
LWPOLYLINE
  5
24a
100
AcDbEntity
  8
box_20140320_155023_543584
 62
7
100
AcDbPolyline
 90
2
 70
0
 10
93.150972
 20
321.355861
 30
0.0
 10
90.148833
 20
321.355861
 30
0.0
  0
LWPOLYLINE
  5
24b
100
AcDbEntity
  8
box_20140320_155023_543584
 62
7
100
AcDbPolyline
 90
4
 70
0
 10
93.150972
 20
321.355861
 30
0.0
 10
93.150972
 20
328.676000
 30
0.0
 10
90.148833
 20
328.676000
 30
0.0
 10
90.148833
 20
336.098444
 30
0.0
  0
LWPOLYLINE
  5
24c
100
AcDbEntity
  8
box_20140320_155023_543584
 62
7
100
AcDbPolyline
 90
2
 70
0
 10
93.150972
 20
336.098444
 30
0.0
 10
90.148833
 20
336.098444
 30
0.0
  0
LWPOLYLINE
  5
24d
100
AcDbEntity
  8
box_20140320_155023_543584
 62
7
100
AcDbPolyline
 90
4
 70
0
 10
93.150972
 20
336.098444
 30
0.0
 10
93.150972
 20
343.418583
 30
0.0
 10
90.148833
 20
343.418583
 30
0.0
 10
90.148833
 20
350.841028
 30
0.0
  0
LWPOLYLINE
  5
24e
100
AcDbEntity
  8
box_20140320_155023_543584
 62
7
100
AcDbPolyline
 90
2
 70
0
 10
93.150972
 20
350.841028
 30
0.0
 10
90.148833
 20
350.841028
 30
0.0
  0
LWPOLYLINE
  5
24f
100
AcDbEntity
  8
box_20140320_155023_543584
 62
7
100
AcDbPolyline
 90
4
 70
0
 10
93.150972
 20
350.841028
 30
0.0
 10
93.150972
 20
358.161167
 30
0.0
 10
90.148833
 20
358.161167
 30
0.0
 10
90.148833
 20
365.583611
 30
0.0
  0
LWPOLYLINE
  5
250
100
AcDbEntity
  8
box_20140320_155023_543584
 62
7
100
AcDbPolyline
 90
2
 70
0
 10
93.150972
 20
365.583611
 30
0.0
 10
90.148833
 20
365.583611
 30
0.0
  0
LWPOLYLINE
  5
251
100
AcDbEntity
  8
box_20140320_155023_543584
 62
7
100
AcDbPolyline
 90
4
 70
0
 10
93.150972
 20
365.583611
 30
0.0
 10
93.150972
 20
372.903750
 30
0.0
 10
90.148833
 20
372.903750
 30
0.0
 10
90.148833
 20
380.301500
 30
0.0
  0
LWPOLYLINE
  5
252
100
AcDbEntity
  8
box_20140320_155023_543584
 62
7
100
AcDbPolyline
 90
2
 70
0
 10
272.199806
 20
240.248722
 30
0.0
 10
272.199806
 20
247.597083
 30
0.0
  0
LWPOLYLINE
  5
253
100
AcDbEntity
  8
box_20140320_155023_543584
 62
7
100
AcDbPolyline
 90
2
 70
0
 10
275.198417
 20
247.597083
 30
0.0
 10
272.199806
 20
247.597083
 30
0.0
  0
LWPOLYLINE
  5
254
100
AcDbEntity
  8
box_20140320_155023_543584
 62
7
100
AcDbPolyline
 90
4
 70
0
 10
275.198417
 20
247.597083
 30
0.0
 10
275.198417
 20
255.016000
 30
0.0
 10
272.199806
 20
255.016000
 30
0.0
 10
272.199806
 20
262.339667
 30
0.0
  0
LWPOLYLINE
  5
255
100
AcDbEntity
  8
box_20140320_155023_543584
 62
7
100
AcDbPolyline
 90
2
 70
0
 10
275.198417
 20
262.339667
 30
0.0
 10
272.199806
 20
262.339667
 30
0.0
  0
LWPOLYLINE
  5
256
100
AcDbEntity
  8
box_20140320_155023_543584
 62
7
100
AcDbPolyline
 90
4
 70
0
 10
275.198417
 20
262.339667
 30
0.0
 10
275.198417
 20
269.758583
 30
0.0
 10
272.199806
 20
269.758583
 30
0.0
 10
272.199806
 20
277.078722
 30
0.0
  0
LWPOLYLINE
  5
257
100
AcDbEntity
  8
box_20140320_155023_543584
 62
7
100
AcDbPolyline
 90
2
 70
0
 10
275.198417
 20
277.078722
 30
0.0
 10
272.199806
 20
277.078722
 30
0.0
  0
LWPOLYLINE
  5
258
100
AcDbEntity
  8
box_20140320_155023_543584
 62
7
100
AcDbPolyline
 90
4
 70
0
 10
275.198417
 20
277.078722
 30
0.0
 10
275.198417
 20
284.501167
 30
0.0
 10
272.199806
 20
284.501167
 30
0.0
 10
272.199806
 20
291.821306
 30
0.0
  0
LWPOLYLINE
  5
259
100
AcDbEntity
  8
box_20140320_155023_543584
 62
7
100
AcDbPolyline
 90
2
 70
0
 10
275.198417
 20
291.821306
 30
0.0
 10
272.199806
 20
291.821306
 30
0.0
  0
LWPOLYLINE
  5
25a
100
AcDbEntity
  8
box_20140320_155023_543584
 62
7
100
AcDbPolyline
 90
4
 70
0
 10
275.198417
 20
291.821306
 30
0.0
 10
275.198417
 20
299.243750
 30
0.0
 10
272.199806
 20
299.243750
 30
0.0
 10
272.199806
 20
306.563889
 30
0.0
  0
LWPOLYLINE
  5
25b
100
AcDbEntity
  8
box_20140320_155023_543584
 62
7
100
AcDbPolyline
 90
2
 70
0
 10
275.198417
 20
306.563889
 30
0.0
 10
272.199806
 20
306.563889
 30
0.0
  0
LWPOLYLINE
  5
25c
100
AcDbEntity
  8
box_20140320_155023_543584
 62
7
100
AcDbPolyline
 90
4
 70
0
 10
275.198417
 20
306.563889
 30
0.0
 10
275.198417
 20
313.986333
 30
0.0
 10
272.199806
 20
313.986333
 30
0.0
 10
272.199806
 20
321.306472
 30
0.0
  0
LWPOLYLINE
  5
25d
100
AcDbEntity
  8
box_20140320_155023_543584
 62
7
100
AcDbPolyline
 90
2
 70
0
 10
275.198417
 20
321.306472
 30
0.0
 10
272.199806
 20
321.306472
 30
0.0
  0
LWPOLYLINE
  5
25e
100
AcDbEntity
  8
box_20140320_155023_543584
 62
7
100
AcDbPolyline
 90
4
 70
0
 10
275.198417
 20
321.306472
 30
0.0
 10
275.198417
 20
328.728917
 30
0.0
 10
272.199806
 20
328.728917
 30
0.0
 10
272.199806
 20
336.049056
 30
0.0
  0
LWPOLYLINE
  5
25f
100
AcDbEntity
  8
box_20140320_155023_543584
 62
7
100
AcDbPolyline
 90
2
 70
0
 10
275.198417
 20
336.049056
 30
0.0
 10
272.199806
 20
336.049056
 30
0.0
  0
LWPOLYLINE
  5
260
100
AcDbEntity
  8
box_20140320_155023_543584
 62
7
100
AcDbPolyline
 90
4
 70
0
 10
275.198417
 20
336.049056
 30
0.0
 10
275.198417
 20
343.471500
 30
0.0
 10
272.199806
 20
343.471500
 30
0.0
 10
272.199806
 20
350.791639
 30
0.0
  0
LWPOLYLINE
  5
261
100
AcDbEntity
  8
box_20140320_155023_543584
 62
7
100
AcDbPolyline
 90
2
 70
0
 10
275.198417
 20
350.791639
 30
0.0
 10
272.199806
 20
350.791639
 30
0.0
  0
LWPOLYLINE
  5
262
100
AcDbEntity
  8
box_20140320_155023_543584
 62
7
100
AcDbPolyline
 90
4
 70
0
 10
275.198417
 20
350.791639
 30
0.0
 10
275.198417
 20
358.210556
 30
0.0
 10
272.199806
 20
358.210556
 30
0.0
 10
272.199806
 20
365.534222
 30
0.0
  0
LWPOLYLINE
  5
263
100
AcDbEntity
  8
box_20140320_155023_543584
 62
7
100
AcDbPolyline
 90
2
 70
0
 10
275.198417
 20
365.534222
 30
0.0
 10
272.199806
 20
365.534222
 30
0.0
  0
LWPOLYLINE
  5
264
100
AcDbEntity
  8
box_20140320_155023_543584
 62
7
100
AcDbPolyline
 90
4
 70
0
 10
275.198417
 20
365.534222
 30
0.0
 10
275.198417
 20
372.953139
 30
0.0
 10
272.199806
 20
372.953139
 30
0.0
 10
272.199806
 20
380.301500
 30
0.0
  0
LWPOLYLINE
  5
265
100
AcDbEntity
  8
box_20140320_155023_543584
 62
7
100
AcDbPolyline
 90
4
 70
0
 10
93.150972
 20
393.350750
 30
0.0
 10
97.525417
 20
393.350750
 30
0.0
 10
97.525417
 20
390.348611
 30
0.0
 10
104.979611
 20
390.348611
 30
0.0
  0
LWPOLYLINE
  5
266
100
AcDbEntity
  8
box_20140320_155023_543584
 62
7
100
AcDbPolyline
 90
2
 70
0
 10
104.979611
 20
393.350750
 30
0.0
 10
104.979611
 20
390.348611
 30
0.0
  0
LWPOLYLINE
  5
267
100
AcDbEntity
  8
box_20140320_155023_543584
 62
7
100
AcDbPolyline
 90
4
 70
0
 10
104.979611
 20
393.350750
 30
0.0
 10
112.331500
 20
393.350750
 30
0.0
 10
112.331500
 20
390.348611
 30
0.0
 10
119.782167
 20
390.348611
 30
0.0
  0
LWPOLYLINE
  5
268
100
AcDbEntity
  8
box_20140320_155023_543584
 62
7
100
AcDbPolyline
 90
2
 70
0
 10
119.782167
 20
393.350750
 30
0.0
 10
119.782167
 20
390.348611
 30
0.0
  0
LWPOLYLINE
  5
269
100
AcDbEntity
  8
box_20140320_155023_543584
 62
7
100
AcDbPolyline
 90
4
 70
0
 10
119.782167
 20
393.350750
 30
0.0
 10
127.134056
 20
393.350750
 30
0.0
 10
127.134056
 20
390.348611
 30
0.0
 10
134.588250
 20
390.348611
 30
0.0
  0
LWPOLYLINE
  5
26a
100
AcDbEntity
  8
box_20140320_155023_543584
 62
7
100
AcDbPolyline
 90
2
 70
0
 10
134.588250
 20
393.350750
 30
0.0
 10
134.588250
 20
390.348611
 30
0.0
  0
LWPOLYLINE
  5
26b
100
AcDbEntity
  8
box_20140320_155023_543584
 62
7
100
AcDbPolyline
 90
4
 70
0
 10
134.588250
 20
393.350750
 30
0.0
 10
141.940139
 20
393.350750
 30
0.0
 10
141.940139
 20
390.348611
 30
0.0
 10
149.390806
 20
390.348611
 30
0.0
  0
LWPOLYLINE
  5
26c
100
AcDbEntity
  8
box_20140320_155023_543584
 62
7
100
AcDbPolyline
 90
2
 70
0
 10
149.390806
 20
393.350750
 30
0.0
 10
149.390806
 20
390.348611
 30
0.0
  0
LWPOLYLINE
  5
26d
100
AcDbEntity
  8
box_20140320_155023_543584
 62
7
100
AcDbPolyline
 90
4
 70
0
 10
149.390806
 20
393.350750
 30
0.0
 10
156.742694
 20
393.350750
 30
0.0
 10
156.742694
 20
390.348611
 30
0.0
 10
164.193361
 20
390.348611
 30
0.0
  0
LWPOLYLINE
  5
26e
100
AcDbEntity
  8
box_20140320_155023_543584
 62
7
100
AcDbPolyline
 90
2
 70
0
 10
164.193361
 20
393.350750
 30
0.0
 10
164.193361
 20
390.348611
 30
0.0
  0
LWPOLYLINE
  5
26f
100
AcDbEntity
  8
box_20140320_155023_543584
 62
7
100
AcDbPolyline
 90
4
 70
0
 10
164.193361
 20
393.350750
 30
0.0
 10
171.545250
 20
393.350750
 30
0.0
 10
171.545250
 20
390.348611
 30
0.0
 10
178.999444
 20
390.348611
 30
0.0
  0
LWPOLYLINE
  5
270
100
AcDbEntity
  8
box_20140320_155023_543584
 62
7
100
AcDbPolyline
 90
2
 70
0
 10
178.999444
 20
393.350750
 30
0.0
 10
178.999444
 20
390.348611
 30
0.0
  0
LWPOLYLINE
  5
271
100
AcDbEntity
  8
box_20140320_155023_543584
 62
7
100
AcDbPolyline
 90
4
 70
0
 10
178.999444
 20
393.350750
 30
0.0
 10
186.351333
 20
393.350750
 30
0.0
 10
186.351333
 20
390.348611
 30
0.0
 10
193.802000
 20
390.348611
 30
0.0
  0
LWPOLYLINE
  5
272
100
AcDbEntity
  8
box_20140320_155023_543584
 62
7
100
AcDbPolyline
 90
2
 70
0
 10
193.802000
 20
393.350750
 30
0.0
 10
193.802000
 20
390.348611
 30
0.0
  0
LWPOLYLINE
  5
273
100
AcDbEntity
  8
box_20140320_155023_543584
 62
7
100
AcDbPolyline
 90
4
 70
0
 10
193.802000
 20
393.350750
 30
0.0
 10
201.153889
 20
393.350750
 30
0.0
 10
201.153889
 20
390.348611
 30
0.0
 10
208.608083
 20
390.348611
 30
0.0
  0
LWPOLYLINE
  5
274
100
AcDbEntity
  8
box_20140320_155023_543584
 62
7
100
AcDbPolyline
 90
2
 70
0
 10
208.608083
 20
393.350750
 30
0.0
 10
208.608083
 20
390.348611
 30
0.0
  0
LWPOLYLINE
  5
275
100
AcDbEntity
  8
box_20140320_155023_543584
 62
7
100
AcDbPolyline
 90
4
 70
0
 10
208.608083
 20
393.350750
 30
0.0
 10
215.959972
 20
393.350750
 30
0.0
 10
215.959972
 20
390.348611
 30
0.0
 10
223.410639
 20
390.348611
 30
0.0
  0
LWPOLYLINE
  5
276
100
AcDbEntity
  8
box_20140320_155023_543584
 62
7
100
AcDbPolyline
 90
2
 70
0
 10
223.410639
 20
393.350750
 30
0.0
 10
223.410639
 20
390.348611
 30
0.0
  0
LWPOLYLINE
  5
277
100
AcDbEntity
  8
box_20140320_155023_543584
 62
7
100
AcDbPolyline
 90
4
 70
0
 10
223.410639
 20
393.350750
 30
0.0
 10
230.762528
 20
393.350750
 30
0.0
 10
230.762528
 20
390.348611
 30
0.0
 10
238.213194
 20
390.348611
 30
0.0
  0
LWPOLYLINE
  5
278
100
AcDbEntity
  8
box_20140320_155023_543584
 62
7
100
AcDbPolyline
 90
2
 70
0
 10
238.213194
 20
393.350750
 30
0.0
 10
238.213194
 20
390.348611
 30
0.0
  0
LWPOLYLINE
  5
279
100
AcDbEntity
  8
box_20140320_155023_543584
 62
7
100
AcDbPolyline
 90
4
 70
0
 10
238.213194
 20
393.350750
 30
0.0
 10
245.568611
 20
393.350750
 30
0.0
 10
245.568611
 20
390.348611
 30
0.0
 10
253.019278
 20
390.348611
 30
0.0
  0
LWPOLYLINE
  5
27a
100
AcDbEntity
  8
box_20140320_155023_543584
 62
7
100
AcDbPolyline
 90
2
 70
0
 10
253.019278
 20
393.350750
 30
0.0
 10
253.019278
 20
390.348611
 30
0.0
  0
LWPOLYLINE
  5
27b
100
AcDbEntity
  8
box_20140320_155023_543584
 62
7
100
AcDbPolyline
 90
4
 70
0
 10
253.019278
 20
393.350750
 30
0.0
 10
260.371167
 20
393.350750
 30
0.0
 10
260.371167
 20
390.348611
 30
0.0
 10
267.821833
 20
390.348611
 30
0.0
  0
LWPOLYLINE
  5
27c
100
AcDbEntity
  8
box_20140320_155023_543584
 62
7
100
AcDbPolyline
 90
2
 70
0
 10
267.821833
 20
393.350750
 30
0.0
 10
267.821833
 20
390.348611
 30
0.0
  0
LWPOLYLINE
  5
27d
100
AcDbEntity
  8
box_20140320_155023_543584
 62
7
100
AcDbPolyline
 90
2
 70
0
 10
267.821833
 20
393.350750
 30
0.0
 10
272.199806
 20
393.350750
 30
0.0
  0
LWPOLYLINE
  5
27e
100
AcDbEntity
  8
box_20140320_155023_543584
 62
7
100
AcDbPolyline
 90
2
 70
0
 10
93.150972
 20
457.401083
 30
0.0
 10
97.525417
 20
457.401083
 30
0.0
  0
LWPOLYLINE
  5
27f
100
AcDbEntity
  8
box_20140320_155023_543584
 62
7
100
AcDbPolyline
 90
2
 70
0
 10
97.525417
 20
460.399694
 30
0.0
 10
97.525417
 20
457.401083
 30
0.0
  0
LWPOLYLINE
  5
280
100
AcDbEntity
  8
box_20140320_155023_543584
 62
7
100
AcDbPolyline
 90
4
 70
0
 10
97.525417
 20
460.399694
 30
0.0
 10
104.979611
 20
460.399694
 30
0.0
 10
104.979611
 20
457.401083
 30
0.0
 10
112.331500
 20
457.401083
 30
0.0
  0
LWPOLYLINE
  5
281
100
AcDbEntity
  8
box_20140320_155023_543584
 62
7
100
AcDbPolyline
 90
2
 70
0
 10
112.331500
 20
460.399694
 30
0.0
 10
112.331500
 20
457.401083
 30
0.0
  0
LWPOLYLINE
  5
282
100
AcDbEntity
  8
box_20140320_155023_543584
 62
7
100
AcDbPolyline
 90
4
 70
0
 10
112.331500
 20
460.399694
 30
0.0
 10
119.782167
 20
460.399694
 30
0.0
 10
119.782167
 20
457.401083
 30
0.0
 10
127.134056
 20
457.401083
 30
0.0
  0
LWPOLYLINE
  5
283
100
AcDbEntity
  8
box_20140320_155023_543584
 62
7
100
AcDbPolyline
 90
2
 70
0
 10
127.134056
 20
460.399694
 30
0.0
 10
127.134056
 20
457.401083
 30
0.0
  0
LWPOLYLINE
  5
284
100
AcDbEntity
  8
box_20140320_155023_543584
 62
7
100
AcDbPolyline
 90
4
 70
0
 10
127.134056
 20
460.399694
 30
0.0
 10
134.588250
 20
460.399694
 30
0.0
 10
134.588250
 20
457.401083
 30
0.0
 10
141.940139
 20
457.401083
 30
0.0
  0
LWPOLYLINE
  5
285
100
AcDbEntity
  8
box_20140320_155023_543584
 62
7
100
AcDbPolyline
 90
2
 70
0
 10
141.940139
 20
460.399694
 30
0.0
 10
141.940139
 20
457.401083
 30
0.0
  0
LWPOLYLINE
  5
286
100
AcDbEntity
  8
box_20140320_155023_543584
 62
7
100
AcDbPolyline
 90
4
 70
0
 10
141.940139
 20
460.399694
 30
0.0
 10
149.390806
 20
460.399694
 30
0.0
 10
149.390806
 20
457.401083
 30
0.0
 10
156.742694
 20
457.401083
 30
0.0
  0
LWPOLYLINE
  5
287
100
AcDbEntity
  8
box_20140320_155023_543584
 62
7
100
AcDbPolyline
 90
2
 70
0
 10
156.742694
 20
460.399694
 30
0.0
 10
156.742694
 20
457.401083
 30
0.0
  0
LWPOLYLINE
  5
288
100
AcDbEntity
  8
box_20140320_155023_543584
 62
7
100
AcDbPolyline
 90
4
 70
0
 10
156.742694
 20
460.399694
 30
0.0
 10
164.193361
 20
460.399694
 30
0.0
 10
164.193361
 20
457.401083
 30
0.0
 10
171.545250
 20
457.401083
 30
0.0
  0
LWPOLYLINE
  5
289
100
AcDbEntity
  8
box_20140320_155023_543584
 62
7
100
AcDbPolyline
 90
2
 70
0
 10
171.545250
 20
460.399694
 30
0.0
 10
171.545250
 20
457.401083
 30
0.0
  0
LWPOLYLINE
  5
28a
100
AcDbEntity
  8
box_20140320_155023_543584
 62
7
100
AcDbPolyline
 90
4
 70
0
 10
171.545250
 20
460.399694
 30
0.0
 10
178.999444
 20
460.399694
 30
0.0
 10
178.999444
 20
457.401083
 30
0.0
 10
186.351333
 20
457.401083
 30
0.0
  0
LWPOLYLINE
  5
28b
100
AcDbEntity
  8
box_20140320_155023_543584
 62
7
100
AcDbPolyline
 90
2
 70
0
 10
186.351333
 20
460.399694
 30
0.0
 10
186.351333
 20
457.401083
 30
0.0
  0
LWPOLYLINE
  5
28c
100
AcDbEntity
  8
box_20140320_155023_543584
 62
7
100
AcDbPolyline
 90
4
 70
0
 10
186.351333
 20
460.399694
 30
0.0
 10
193.802000
 20
460.399694
 30
0.0
 10
193.802000
 20
457.401083
 30
0.0
 10
201.153889
 20
457.401083
 30
0.0
  0
LWPOLYLINE
  5
28d
100
AcDbEntity
  8
box_20140320_155023_543584
 62
7
100
AcDbPolyline
 90
2
 70
0
 10
201.153889
 20
460.399694
 30
0.0
 10
201.153889
 20
457.401083
 30
0.0
  0
LWPOLYLINE
  5
28e
100
AcDbEntity
  8
box_20140320_155023_543584
 62
7
100
AcDbPolyline
 90
4
 70
0
 10
201.153889
 20
460.399694
 30
0.0
 10
208.608083
 20
460.399694
 30
0.0
 10
208.608083
 20
457.401083
 30
0.0
 10
215.959972
 20
457.401083
 30
0.0
  0
LWPOLYLINE
  5
28f
100
AcDbEntity
  8
box_20140320_155023_543584
 62
7
100
AcDbPolyline
 90
2
 70
0
 10
215.959972
 20
460.399694
 30
0.0
 10
215.959972
 20
457.401083
 30
0.0
  0
LWPOLYLINE
  5
290
100
AcDbEntity
  8
box_20140320_155023_543584
 62
7
100
AcDbPolyline
 90
4
 70
0
 10
215.959972
 20
460.399694
 30
0.0
 10
223.410639
 20
460.399694
 30
0.0
 10
223.410639
 20
457.401083
 30
0.0
 10
230.762528
 20
457.401083
 30
0.0
  0
LWPOLYLINE
  5
291
100
AcDbEntity
  8
box_20140320_155023_543584
 62
7
100
AcDbPolyline
 90
2
 70
0
 10
230.762528
 20
460.399694
 30
0.0
 10
230.762528
 20
457.401083
 30
0.0
  0
LWPOLYLINE
  5
292
100
AcDbEntity
  8
box_20140320_155023_543584
 62
7
100
AcDbPolyline
 90
4
 70
0
 10
230.762528
 20
460.399694
 30
0.0
 10
238.213194
 20
460.399694
 30
0.0
 10
238.213194
 20
457.401083
 30
0.0
 10
245.568611
 20
457.401083
 30
0.0
  0
LWPOLYLINE
  5
293
100
AcDbEntity
  8
box_20140320_155023_543584
 62
7
100
AcDbPolyline
 90
2
 70
0
 10
245.568611
 20
460.399694
 30
0.0
 10
245.568611
 20
457.401083
 30
0.0
  0
LWPOLYLINE
  5
294
100
AcDbEntity
  8
box_20140320_155023_543584
 62
7
100
AcDbPolyline
 90
4
 70
0
 10
245.568611
 20
460.399694
 30
0.0
 10
253.019278
 20
460.399694
 30
0.0
 10
253.019278
 20
457.401083
 30
0.0
 10
260.371167
 20
457.401083
 30
0.0
  0
LWPOLYLINE
  5
295
100
AcDbEntity
  8
box_20140320_155023_543584
 62
7
100
AcDbPolyline
 90
2
 70
0
 10
260.371167
 20
460.399694
 30
0.0
 10
260.371167
 20
457.401083
 30
0.0
  0
LWPOLYLINE
  5
296
100
AcDbEntity
  8
box_20140320_155023_543584
 62
7
100
AcDbPolyline
 90
4
 70
0
 10
260.371167
 20
460.399694
 30
0.0
 10
267.821833
 20
460.399694
 30
0.0
 10
267.821833
 20
457.401083
 30
0.0
 10
272.199806
 20
457.401083
 30
0.0
  0
LWPOLYLINE
  5
297
100
AcDbEntity
  8
box_20140320_155023_543584
 62
7
100
AcDbPolyline
 90
4
 70
0
 10
93.150972
 20
393.350750
 30
0.0
 10
93.150972
 20
398.109722
 30
0.0
 10
90.148833
 20
398.109722
 30
0.0
 10
90.148833
 20
405.941389
 30
0.0
  0
LWPOLYLINE
  5
298
100
AcDbEntity
  8
box_20140320_155023_543584
 62
7
100
AcDbPolyline
 90
2
 70
0
 10
93.150972
 20
405.941389
 30
0.0
 10
90.148833
 20
405.941389
 30
0.0
  0
LWPOLYLINE
  5
299
100
AcDbEntity
  8
box_20140320_155023_543584
 62
7
100
AcDbPolyline
 90
4
 70
0
 10
93.150972
 20
405.941389
 30
0.0
 10
93.150972
 20
413.674278
 30
0.0
 10
90.148833
 20
413.674278
 30
0.0
 10
90.148833
 20
421.509472
 30
0.0
  0
LWPOLYLINE
  5
29a
100
AcDbEntity
  8
box_20140320_155023_543584
 62
7
100
AcDbPolyline
 90
2
 70
0
 10
93.150972
 20
421.509472
 30
0.0
 10
90.148833
 20
421.509472
 30
0.0
  0
LWPOLYLINE
  5
29b
100
AcDbEntity
  8
box_20140320_155023_543584
 62
7
100
AcDbPolyline
 90
4
 70
0
 10
93.150972
 20
421.509472
 30
0.0
 10
93.150972
 20
429.242361
 30
0.0
 10
90.148833
 20
429.242361
 30
0.0
 10
90.148833
 20
437.074028
 30
0.0
  0
LWPOLYLINE
  5
29c
100
AcDbEntity
  8
box_20140320_155023_543584
 62
7
100
AcDbPolyline
 90
2
 70
0
 10
93.150972
 20
437.074028
 30
0.0
 10
90.148833
 20
437.074028
 30
0.0
  0
LWPOLYLINE
  5
29d
100
AcDbEntity
  8
box_20140320_155023_543584
 62
7
100
AcDbPolyline
 90
4
 70
0
 10
93.150972
 20
437.074028
 30
0.0
 10
93.150972
 20
444.806917
 30
0.0
 10
90.148833
 20
444.806917
 30
0.0
 10
90.148833
 20
452.642111
 30
0.0
  0
LWPOLYLINE
  5
29e
100
AcDbEntity
  8
box_20140320_155023_543584
 62
7
100
AcDbPolyline
 90
2
 70
0
 10
93.150972
 20
452.642111
 30
0.0
 10
90.148833
 20
452.642111
 30
0.0
  0
LWPOLYLINE
  5
29f
100
AcDbEntity
  8
box_20140320_155023_543584
 62
7
100
AcDbPolyline
 90
2
 70
0
 10
93.150972
 20
452.642111
 30
0.0
 10
93.150972
 20
457.401083
 30
0.0
  0
LWPOLYLINE
  5
2a0
100
AcDbEntity
  8
box_20140320_155023_543584
 62
7
100
AcDbPolyline
 90
2
 70
0
 10
272.199806
 20
393.350750
 30
0.0
 10
272.199806
 20
398.109722
 30
0.0
  0
LWPOLYLINE
  5
2a1
100
AcDbEntity
  8
box_20140320_155023_543584
 62
7
100
AcDbPolyline
 90
2
 70
0
 10
275.198417
 20
398.109722
 30
0.0
 10
272.199806
 20
398.109722
 30
0.0
  0
LWPOLYLINE
  5
2a2
100
AcDbEntity
  8
box_20140320_155023_543584
 62
7
100
AcDbPolyline
 90
4
 70
0
 10
275.198417
 20
398.109722
 30
0.0
 10
275.198417
 20
405.941389
 30
0.0
 10
272.199806
 20
405.941389
 30
0.0
 10
272.199806
 20
413.674278
 30
0.0
  0
LWPOLYLINE
  5
2a3
100
AcDbEntity
  8
box_20140320_155023_543584
 62
7
100
AcDbPolyline
 90
2
 70
0
 10
275.198417
 20
413.674278
 30
0.0
 10
272.199806
 20
413.674278
 30
0.0
  0
LWPOLYLINE
  5
2a4
100
AcDbEntity
  8
box_20140320_155023_543584
 62
7
100
AcDbPolyline
 90
4
 70
0
 10
275.198417
 20
413.674278
 30
0.0
 10
275.198417
 20
421.509472
 30
0.0
 10
272.199806
 20
421.509472
 30
0.0
 10
272.199806
 20
429.242361
 30
0.0
  0
LWPOLYLINE
  5
2a5
100
AcDbEntity
  8
box_20140320_155023_543584
 62
7
100
AcDbPolyline
 90
2
 70
0
 10
275.198417
 20
429.242361
 30
0.0
 10
272.199806
 20
429.242361
 30
0.0
  0
LWPOLYLINE
  5
2a6
100
AcDbEntity
  8
box_20140320_155023_543584
 62
7
100
AcDbPolyline
 90
4
 70
0
 10
275.198417
 20
429.242361
 30
0.0
 10
275.198417
 20
437.074028
 30
0.0
 10
272.199806
 20
437.074028
 30
0.0
 10
272.199806
 20
444.806917
 30
0.0
  0
LWPOLYLINE
  5
2a7
100
AcDbEntity
  8
box_20140320_155023_543584
 62
7
100
AcDbPolyline
 90
2
 70
0
 10
275.198417
 20
444.806917
 30
0.0
 10
272.199806
 20
444.806917
 30
0.0
  0
LWPOLYLINE
  5
2a8
100
AcDbEntity
  8
box_20140320_155023_543584
 62
7
100
AcDbPolyline
 90
4
 70
0
 10
275.198417
 20
444.806917
 30
0.0
 10
275.198417
 20
452.642111
 30
0.0
 10
272.199806
 20
452.642111
 30
0.0
 10
272.199806
 20
457.401083
 30
0.0
  0
ENDSEC
  0
SECTION
  2
OBJECTS
  0
DICTIONARY
  5
C
330
0
100
AcDbDictionary
  3
ACAD_GROUP
350
D
  3
ACAD_MLINESTYLE
350
17
  0
DICTIONARY
  5
D
330
C
100
AcDbDictionary
  0
DICTIONARY
  5
1A
330
C
100
AcDbDictionary
  0
DICTIONARY
  5
17
330
C
100
AcDbDictionary
  3
STANDARD
350
18
  0
DICTIONARY
  5
19
330
C
100
AcDbDictionary
  0
ENDSEC
  0
EOF
